G04 #@! TF.GenerationSoftware,KiCad,Pcbnew,5.0.0-fee4fd1~65~ubuntu17.10.1*
G04 #@! TF.CreationDate,2018-10-07T18:53:38+01:00*
G04 #@! TF.ProjectId,LED Coaster,4C454420436F61737465722E6B696361,rev?*
G04 #@! TF.SameCoordinates,Original*
G04 #@! TF.FileFunction,Soldermask,Top*
G04 #@! TF.FilePolarity,Negative*
%FSLAX46Y46*%
G04 Gerber Fmt 4.6, Leading zero omitted, Abs format (unit mm)*
G04 Created by KiCad (PCBNEW 5.0.0-fee4fd1~65~ubuntu17.10.1) date Sun Oct  7 18:53:38 2018*
%MOMM*%
%LPD*%
G01*
G04 APERTURE LIST*
%ADD10R,1.400000X1.220000*%
%ADD11R,2.300000X2.300000*%
%ADD12R,4.100000X2.070000*%
%ADD13R,2.400000X0.950000*%
%ADD14C,0.100000*%
%ADD15C,1.900000*%
%ADD16C,1.500000*%
%ADD17R,2.100000X2.100000*%
%ADD18C,2.100000*%
%ADD19C,2.400000*%
%ADD20C,1.700000*%
%ADD21R,1.300000X1.200000*%
%ADD22C,1.200000*%
%ADD23C,3.500000*%
G04 APERTURE END LIST*
D10*
G04 #@! TO.C,C1*
X208280000Y-114135000D03*
X208280000Y-115735000D03*
G04 #@! TD*
D11*
G04 #@! TO.C,C2*
X212725000Y-112395000D03*
X212725000Y-116840000D03*
G04 #@! TD*
D12*
G04 #@! TO.C,D1*
X209550000Y-120253000D03*
X209550000Y-124603000D03*
G04 #@! TD*
D13*
G04 #@! TO.C,IC1*
X195834000Y-114173000D03*
X195834000Y-115443000D03*
X195834000Y-116713000D03*
X195834000Y-117983000D03*
X202946000Y-117983000D03*
X202946000Y-116713000D03*
X202946000Y-115443000D03*
X202946000Y-114173000D03*
G04 #@! TD*
D14*
G04 #@! TO.C,J1*
G36*
X216778974Y-129292724D02*
X216825084Y-129299564D01*
X216870301Y-129310890D01*
X216914191Y-129326594D01*
X216956329Y-129346524D01*
X216996312Y-129370489D01*
X217033753Y-129398257D01*
X217068292Y-129429561D01*
X217099596Y-129464100D01*
X217127364Y-129501541D01*
X217151329Y-129541524D01*
X217171259Y-129583662D01*
X217726150Y-130923287D01*
X217741854Y-130967177D01*
X217753180Y-131012394D01*
X217760020Y-131058504D01*
X217762307Y-131105062D01*
X217760020Y-131151620D01*
X217753180Y-131197730D01*
X217741854Y-131242947D01*
X217726150Y-131286837D01*
X217706220Y-131328975D01*
X217682255Y-131368958D01*
X217654487Y-131406399D01*
X217623183Y-131440938D01*
X217588644Y-131472242D01*
X217551203Y-131500010D01*
X217511220Y-131523975D01*
X217469082Y-131543905D01*
X216591397Y-131907454D01*
X216547507Y-131923158D01*
X216502290Y-131934484D01*
X216456180Y-131941324D01*
X216409622Y-131943611D01*
X216363064Y-131941324D01*
X216316954Y-131934484D01*
X216271737Y-131923158D01*
X216227847Y-131907454D01*
X216185709Y-131887524D01*
X216145726Y-131863559D01*
X216108285Y-131835791D01*
X216073746Y-131804487D01*
X216042442Y-131769948D01*
X216014674Y-131732507D01*
X215990709Y-131692524D01*
X215970779Y-131650386D01*
X215415888Y-130310761D01*
X215400184Y-130266871D01*
X215388858Y-130221654D01*
X215382018Y-130175544D01*
X215379731Y-130128986D01*
X215382018Y-130082428D01*
X215388858Y-130036318D01*
X215400184Y-129991101D01*
X215415888Y-129947211D01*
X215435818Y-129905073D01*
X215459783Y-129865090D01*
X215487551Y-129827649D01*
X215518855Y-129793110D01*
X215553394Y-129761806D01*
X215590835Y-129734038D01*
X215630818Y-129710073D01*
X215672956Y-129690143D01*
X216550641Y-129326594D01*
X216594531Y-129310890D01*
X216639748Y-129299564D01*
X216685858Y-129292724D01*
X216732416Y-129290437D01*
X216778974Y-129292724D01*
X216778974Y-129292724D01*
G37*
D15*
X216571019Y-130617024D03*
D14*
G36*
X223818936Y-126376676D02*
X223865046Y-126383516D01*
X223910263Y-126394842D01*
X223954153Y-126410546D01*
X223996291Y-126430476D01*
X224036274Y-126454441D01*
X224073715Y-126482209D01*
X224108254Y-126513513D01*
X224139558Y-126548052D01*
X224167326Y-126585493D01*
X224191291Y-126625476D01*
X224211221Y-126667614D01*
X224766112Y-128007239D01*
X224781816Y-128051129D01*
X224793142Y-128096346D01*
X224799982Y-128142456D01*
X224802269Y-128189014D01*
X224799982Y-128235572D01*
X224793142Y-128281682D01*
X224781816Y-128326899D01*
X224766112Y-128370789D01*
X224746182Y-128412927D01*
X224722217Y-128452910D01*
X224694449Y-128490351D01*
X224663145Y-128524890D01*
X224628606Y-128556194D01*
X224591165Y-128583962D01*
X224551182Y-128607927D01*
X224509044Y-128627857D01*
X223631359Y-128991406D01*
X223587469Y-129007110D01*
X223542252Y-129018436D01*
X223496142Y-129025276D01*
X223449584Y-129027563D01*
X223403026Y-129025276D01*
X223356916Y-129018436D01*
X223311699Y-129007110D01*
X223267809Y-128991406D01*
X223225671Y-128971476D01*
X223185688Y-128947511D01*
X223148247Y-128919743D01*
X223113708Y-128888439D01*
X223082404Y-128853900D01*
X223054636Y-128816459D01*
X223030671Y-128776476D01*
X223010741Y-128734338D01*
X222455850Y-127394713D01*
X222440146Y-127350823D01*
X222428820Y-127305606D01*
X222421980Y-127259496D01*
X222419693Y-127212938D01*
X222421980Y-127166380D01*
X222428820Y-127120270D01*
X222440146Y-127075053D01*
X222455850Y-127031163D01*
X222475780Y-126989025D01*
X222499745Y-126949042D01*
X222527513Y-126911601D01*
X222558817Y-126877062D01*
X222593356Y-126845758D01*
X222630797Y-126817990D01*
X222670780Y-126794025D01*
X222712918Y-126774095D01*
X223590603Y-126410546D01*
X223634493Y-126394842D01*
X223679710Y-126383516D01*
X223725820Y-126376676D01*
X223772378Y-126374389D01*
X223818936Y-126376676D01*
X223818936Y-126376676D01*
G37*
D15*
X223610981Y-127700976D03*
D14*
G36*
X215466752Y-126124741D02*
X215512862Y-126131581D01*
X215558079Y-126142907D01*
X215601969Y-126158611D01*
X215644107Y-126178541D01*
X215684090Y-126202506D01*
X215721531Y-126230274D01*
X215756070Y-126261578D01*
X215787374Y-126296117D01*
X215815142Y-126333558D01*
X215839107Y-126373541D01*
X215859037Y-126415679D01*
X216413928Y-127755304D01*
X216429632Y-127799194D01*
X216440958Y-127844411D01*
X216447798Y-127890521D01*
X216450085Y-127937079D01*
X216447798Y-127983637D01*
X216440958Y-128029747D01*
X216429632Y-128074964D01*
X216413928Y-128118854D01*
X216393998Y-128160992D01*
X216370033Y-128200975D01*
X216342265Y-128238416D01*
X216310961Y-128272955D01*
X216276422Y-128304259D01*
X216238981Y-128332027D01*
X216198998Y-128355992D01*
X216156860Y-128375922D01*
X215279175Y-128739471D01*
X215235285Y-128755175D01*
X215190068Y-128766501D01*
X215143958Y-128773341D01*
X215097400Y-128775628D01*
X215050842Y-128773341D01*
X215004732Y-128766501D01*
X214959515Y-128755175D01*
X214915625Y-128739471D01*
X214873487Y-128719541D01*
X214833504Y-128695576D01*
X214796063Y-128667808D01*
X214761524Y-128636504D01*
X214730220Y-128601965D01*
X214702452Y-128564524D01*
X214678487Y-128524541D01*
X214658557Y-128482403D01*
X214103666Y-127142778D01*
X214087962Y-127098888D01*
X214076636Y-127053671D01*
X214069796Y-127007561D01*
X214067509Y-126961003D01*
X214069796Y-126914445D01*
X214076636Y-126868335D01*
X214087962Y-126823118D01*
X214103666Y-126779228D01*
X214123596Y-126737090D01*
X214147561Y-126697107D01*
X214175329Y-126659666D01*
X214206633Y-126625127D01*
X214241172Y-126593823D01*
X214278613Y-126566055D01*
X214318596Y-126542090D01*
X214360734Y-126522160D01*
X215238419Y-126158611D01*
X215282309Y-126142907D01*
X215327526Y-126131581D01*
X215373636Y-126124741D01*
X215420194Y-126122454D01*
X215466752Y-126124741D01*
X215466752Y-126124741D01*
G37*
D15*
X215258797Y-127449041D03*
D14*
G36*
X217867385Y-121964370D02*
X217913495Y-121971210D01*
X217958712Y-121982536D01*
X218002602Y-121998240D01*
X218044740Y-122018170D01*
X218084723Y-122042135D01*
X218122164Y-122069903D01*
X218156703Y-122101207D01*
X218188007Y-122135746D01*
X218215775Y-122173187D01*
X218239740Y-122213170D01*
X218259670Y-122255308D01*
X218623219Y-123132993D01*
X218638923Y-123176883D01*
X218650249Y-123222100D01*
X218657089Y-123268210D01*
X218659376Y-123314768D01*
X218657089Y-123361326D01*
X218650249Y-123407436D01*
X218638923Y-123452653D01*
X218623219Y-123496543D01*
X218603289Y-123538681D01*
X218579324Y-123578664D01*
X218551556Y-123616105D01*
X218520252Y-123650644D01*
X218485713Y-123681948D01*
X218448272Y-123709716D01*
X218408289Y-123733681D01*
X218366151Y-123753611D01*
X217488466Y-124117160D01*
X217444576Y-124132864D01*
X217399359Y-124144190D01*
X217353249Y-124151030D01*
X217306691Y-124153317D01*
X217260133Y-124151030D01*
X217214023Y-124144190D01*
X217168806Y-124132864D01*
X217124916Y-124117160D01*
X217082778Y-124097230D01*
X217042795Y-124073265D01*
X217005354Y-124045497D01*
X216970815Y-124014193D01*
X216939511Y-123979654D01*
X216911743Y-123942213D01*
X216887778Y-123902230D01*
X216867848Y-123860092D01*
X216504299Y-122982407D01*
X216488595Y-122938517D01*
X216477269Y-122893300D01*
X216470429Y-122847190D01*
X216468142Y-122800632D01*
X216470429Y-122754074D01*
X216477269Y-122707964D01*
X216488595Y-122662747D01*
X216504299Y-122618857D01*
X216524229Y-122576719D01*
X216548194Y-122536736D01*
X216575962Y-122499295D01*
X216607266Y-122464756D01*
X216641805Y-122433452D01*
X216679246Y-122405684D01*
X216719229Y-122381719D01*
X216761367Y-122361789D01*
X217639052Y-121998240D01*
X217682942Y-121982536D01*
X217728159Y-121971210D01*
X217774269Y-121964370D01*
X217820827Y-121962083D01*
X217867385Y-121964370D01*
X217867385Y-121964370D01*
G37*
D15*
X217563759Y-123057700D03*
D14*
G36*
X215755396Y-122839184D02*
X215801506Y-122846024D01*
X215846723Y-122857350D01*
X215890613Y-122873054D01*
X215932751Y-122892984D01*
X215972734Y-122916949D01*
X216010175Y-122944717D01*
X216044714Y-122976021D01*
X216076018Y-123010560D01*
X216103786Y-123048001D01*
X216127751Y-123087984D01*
X216147681Y-123130122D01*
X216511230Y-124007807D01*
X216526934Y-124051697D01*
X216538260Y-124096914D01*
X216545100Y-124143024D01*
X216547387Y-124189582D01*
X216545100Y-124236140D01*
X216538260Y-124282250D01*
X216526934Y-124327467D01*
X216511230Y-124371357D01*
X216491300Y-124413495D01*
X216467335Y-124453478D01*
X216439567Y-124490919D01*
X216408263Y-124525458D01*
X216373724Y-124556762D01*
X216336283Y-124584530D01*
X216296300Y-124608495D01*
X216254162Y-124628425D01*
X215376477Y-124991974D01*
X215332587Y-125007678D01*
X215287370Y-125019004D01*
X215241260Y-125025844D01*
X215194702Y-125028131D01*
X215148144Y-125025844D01*
X215102034Y-125019004D01*
X215056817Y-125007678D01*
X215012927Y-124991974D01*
X214970789Y-124972044D01*
X214930806Y-124948079D01*
X214893365Y-124920311D01*
X214858826Y-124889007D01*
X214827522Y-124854468D01*
X214799754Y-124817027D01*
X214775789Y-124777044D01*
X214755859Y-124734906D01*
X214392310Y-123857221D01*
X214376606Y-123813331D01*
X214365280Y-123768114D01*
X214358440Y-123722004D01*
X214356153Y-123675446D01*
X214358440Y-123628888D01*
X214365280Y-123582778D01*
X214376606Y-123537561D01*
X214392310Y-123493671D01*
X214412240Y-123451533D01*
X214436205Y-123411550D01*
X214463973Y-123374109D01*
X214495277Y-123339570D01*
X214529816Y-123308266D01*
X214567257Y-123280498D01*
X214607240Y-123256533D01*
X214649378Y-123236603D01*
X215527063Y-122873054D01*
X215570953Y-122857350D01*
X215616170Y-122846024D01*
X215662280Y-122839184D01*
X215708838Y-122836897D01*
X215755396Y-122839184D01*
X215755396Y-122839184D01*
G37*
D15*
X215451770Y-123932514D03*
D16*
X219549483Y-131170333D03*
X217605452Y-126477025D03*
G04 #@! TD*
D17*
G04 #@! TO.C,J2*
X195580000Y-108077000D03*
D18*
X198120000Y-108077000D03*
X200660000Y-108077000D03*
X203200000Y-108077000D03*
X205740000Y-108077000D03*
X208280000Y-108077000D03*
G04 #@! TD*
D10*
G04 #@! TO.C,R1*
X222885000Y-116929000D03*
X222885000Y-118529000D03*
G04 #@! TD*
G04 #@! TO.C,R2*
X223012000Y-113360000D03*
X223012000Y-111760000D03*
G04 #@! TD*
G04 #@! TO.C,R3*
X223012000Y-106515000D03*
X223012000Y-108115000D03*
G04 #@! TD*
G04 #@! TO.C,R4*
X199390000Y-122720000D03*
X199390000Y-121120000D03*
G04 #@! TD*
G04 #@! TO.C,R5*
X203835000Y-122720000D03*
X203835000Y-121120000D03*
G04 #@! TD*
D19*
G04 #@! TO.C,SW1*
X198247000Y-102870000D03*
X218567000Y-102870000D03*
X201422000Y-102870000D03*
X214757000Y-102870000D03*
G04 #@! TD*
D14*
G04 #@! TO.C,SW2*
G36*
X193820519Y-125799291D02*
X193861775Y-125805411D01*
X193902233Y-125815545D01*
X193941503Y-125829596D01*
X195003964Y-126269682D01*
X195041667Y-126287515D01*
X195077440Y-126308956D01*
X195110940Y-126333802D01*
X195141843Y-126361811D01*
X195169852Y-126392714D01*
X195194698Y-126426214D01*
X195216140Y-126461987D01*
X195233972Y-126499691D01*
X195248023Y-126538960D01*
X195258157Y-126579418D01*
X195264277Y-126620674D01*
X195266323Y-126662331D01*
X195264277Y-126703988D01*
X195258157Y-126745244D01*
X195248023Y-126785702D01*
X195233972Y-126824971D01*
X194908691Y-127610269D01*
X194890859Y-127647973D01*
X194869417Y-127683746D01*
X194844571Y-127717246D01*
X194816562Y-127748149D01*
X194785659Y-127776158D01*
X194752159Y-127801004D01*
X194716386Y-127822446D01*
X194678682Y-127840278D01*
X194639413Y-127854329D01*
X194598955Y-127864463D01*
X194557699Y-127870583D01*
X194516042Y-127872629D01*
X194474385Y-127870583D01*
X194433129Y-127864463D01*
X194392671Y-127854329D01*
X194353401Y-127840278D01*
X193290940Y-127400192D01*
X193253237Y-127382359D01*
X193217464Y-127360918D01*
X193183964Y-127336072D01*
X193153061Y-127308063D01*
X193125052Y-127277160D01*
X193100206Y-127243660D01*
X193078764Y-127207887D01*
X193060932Y-127170183D01*
X193046881Y-127130914D01*
X193036747Y-127090456D01*
X193030627Y-127049200D01*
X193028581Y-127007543D01*
X193030627Y-126965886D01*
X193036747Y-126924630D01*
X193046881Y-126884172D01*
X193060932Y-126844903D01*
X193386213Y-126059605D01*
X193404045Y-126021901D01*
X193425487Y-125986128D01*
X193450333Y-125952628D01*
X193478342Y-125921725D01*
X193509245Y-125893716D01*
X193542745Y-125868870D01*
X193578518Y-125847428D01*
X193616222Y-125829596D01*
X193655491Y-125815545D01*
X193695949Y-125805411D01*
X193737205Y-125799291D01*
X193778862Y-125797245D01*
X193820519Y-125799291D01*
X193820519Y-125799291D01*
G37*
D20*
X194147452Y-126834937D03*
D14*
G36*
X200749615Y-128669417D02*
X200790871Y-128675537D01*
X200831329Y-128685671D01*
X200870599Y-128699722D01*
X201933060Y-129139808D01*
X201970763Y-129157641D01*
X202006536Y-129179082D01*
X202040036Y-129203928D01*
X202070939Y-129231937D01*
X202098948Y-129262840D01*
X202123794Y-129296340D01*
X202145236Y-129332113D01*
X202163068Y-129369817D01*
X202177119Y-129409086D01*
X202187253Y-129449544D01*
X202193373Y-129490800D01*
X202195419Y-129532457D01*
X202193373Y-129574114D01*
X202187253Y-129615370D01*
X202177119Y-129655828D01*
X202163068Y-129695097D01*
X201837787Y-130480395D01*
X201819955Y-130518099D01*
X201798513Y-130553872D01*
X201773667Y-130587372D01*
X201745658Y-130618275D01*
X201714755Y-130646284D01*
X201681255Y-130671130D01*
X201645482Y-130692572D01*
X201607778Y-130710404D01*
X201568509Y-130724455D01*
X201528051Y-130734589D01*
X201486795Y-130740709D01*
X201445138Y-130742755D01*
X201403481Y-130740709D01*
X201362225Y-130734589D01*
X201321767Y-130724455D01*
X201282497Y-130710404D01*
X200220036Y-130270318D01*
X200182333Y-130252485D01*
X200146560Y-130231044D01*
X200113060Y-130206198D01*
X200082157Y-130178189D01*
X200054148Y-130147286D01*
X200029302Y-130113786D01*
X200007860Y-130078013D01*
X199990028Y-130040309D01*
X199975977Y-130001040D01*
X199965843Y-129960582D01*
X199959723Y-129919326D01*
X199957677Y-129877669D01*
X199959723Y-129836012D01*
X199965843Y-129794756D01*
X199975977Y-129754298D01*
X199990028Y-129715029D01*
X200315309Y-128929731D01*
X200333141Y-128892027D01*
X200354583Y-128856254D01*
X200379429Y-128822754D01*
X200407438Y-128791851D01*
X200438341Y-128763842D01*
X200471841Y-128738996D01*
X200507614Y-128717554D01*
X200545318Y-128699722D01*
X200584587Y-128685671D01*
X200625045Y-128675537D01*
X200666301Y-128669417D01*
X200707958Y-128667371D01*
X200749615Y-128669417D01*
X200749615Y-128669417D01*
G37*
D20*
X201076548Y-129705063D03*
G04 #@! TD*
D21*
G04 #@! TO.C,T1*
X217440000Y-117795000D03*
X217440000Y-119695000D03*
X219440000Y-118745000D03*
G04 #@! TD*
G04 #@! TO.C,T2*
X219440000Y-113411000D03*
X217440000Y-114361000D03*
X217440000Y-112461000D03*
G04 #@! TD*
G04 #@! TO.C,T3*
X217440000Y-107127000D03*
X217440000Y-109027000D03*
X219440000Y-108077000D03*
G04 #@! TD*
D14*
G04 #@! TO.C,L1*
G36*
X210633405Y-75410945D02*
X210662527Y-75415264D01*
X210691085Y-75422418D01*
X210718805Y-75432336D01*
X210745419Y-75444924D01*
X210770671Y-75460059D01*
X210794318Y-75477597D01*
X210816132Y-75497368D01*
X210835903Y-75519182D01*
X210853441Y-75542829D01*
X210868576Y-75568081D01*
X210881164Y-75594695D01*
X210891082Y-75622415D01*
X210898236Y-75650973D01*
X210902555Y-75680095D01*
X210904000Y-75709500D01*
X210904000Y-76309500D01*
X210902555Y-76338905D01*
X210898236Y-76368027D01*
X210891082Y-76396585D01*
X210881164Y-76424305D01*
X210868576Y-76450919D01*
X210853441Y-76476171D01*
X210835903Y-76499818D01*
X210816132Y-76521632D01*
X210794318Y-76541403D01*
X210770671Y-76558941D01*
X210745419Y-76574076D01*
X210718805Y-76586664D01*
X210691085Y-76596582D01*
X210662527Y-76603736D01*
X210633405Y-76608055D01*
X210604000Y-76609500D01*
X209004000Y-76609500D01*
X208974595Y-76608055D01*
X208945473Y-76603736D01*
X208916915Y-76596582D01*
X208889195Y-76586664D01*
X208862581Y-76574076D01*
X208837329Y-76558941D01*
X208813682Y-76541403D01*
X208791868Y-76521632D01*
X208772097Y-76499818D01*
X208754559Y-76476171D01*
X208739424Y-76450919D01*
X208726836Y-76424305D01*
X208716918Y-76396585D01*
X208709764Y-76368027D01*
X208705445Y-76338905D01*
X208704000Y-76309500D01*
X208704000Y-75709500D01*
X208705445Y-75680095D01*
X208709764Y-75650973D01*
X208716918Y-75622415D01*
X208726836Y-75594695D01*
X208739424Y-75568081D01*
X208754559Y-75542829D01*
X208772097Y-75519182D01*
X208791868Y-75497368D01*
X208813682Y-75477597D01*
X208837329Y-75460059D01*
X208862581Y-75444924D01*
X208889195Y-75432336D01*
X208916915Y-75422418D01*
X208945473Y-75415264D01*
X208974595Y-75410945D01*
X209004000Y-75409500D01*
X210604000Y-75409500D01*
X210633405Y-75410945D01*
X210633405Y-75410945D01*
G37*
D22*
X209804000Y-76009500D03*
D14*
G36*
X207458405Y-75410945D02*
X207487527Y-75415264D01*
X207516085Y-75422418D01*
X207543805Y-75432336D01*
X207570419Y-75444924D01*
X207595671Y-75460059D01*
X207619318Y-75477597D01*
X207641132Y-75497368D01*
X207660903Y-75519182D01*
X207678441Y-75542829D01*
X207693576Y-75568081D01*
X207706164Y-75594695D01*
X207716082Y-75622415D01*
X207723236Y-75650973D01*
X207727555Y-75680095D01*
X207729000Y-75709500D01*
X207729000Y-76309500D01*
X207727555Y-76338905D01*
X207723236Y-76368027D01*
X207716082Y-76396585D01*
X207706164Y-76424305D01*
X207693576Y-76450919D01*
X207678441Y-76476171D01*
X207660903Y-76499818D01*
X207641132Y-76521632D01*
X207619318Y-76541403D01*
X207595671Y-76558941D01*
X207570419Y-76574076D01*
X207543805Y-76586664D01*
X207516085Y-76596582D01*
X207487527Y-76603736D01*
X207458405Y-76608055D01*
X207429000Y-76609500D01*
X205829000Y-76609500D01*
X205799595Y-76608055D01*
X205770473Y-76603736D01*
X205741915Y-76596582D01*
X205714195Y-76586664D01*
X205687581Y-76574076D01*
X205662329Y-76558941D01*
X205638682Y-76541403D01*
X205616868Y-76521632D01*
X205597097Y-76499818D01*
X205579559Y-76476171D01*
X205564424Y-76450919D01*
X205551836Y-76424305D01*
X205541918Y-76396585D01*
X205534764Y-76368027D01*
X205530445Y-76338905D01*
X205529000Y-76309500D01*
X205529000Y-75709500D01*
X205530445Y-75680095D01*
X205534764Y-75650973D01*
X205541918Y-75622415D01*
X205551836Y-75594695D01*
X205564424Y-75568081D01*
X205579559Y-75542829D01*
X205597097Y-75519182D01*
X205616868Y-75497368D01*
X205638682Y-75477597D01*
X205662329Y-75460059D01*
X205687581Y-75444924D01*
X205714195Y-75432336D01*
X205741915Y-75422418D01*
X205770473Y-75415264D01*
X205799595Y-75410945D01*
X205829000Y-75409500D01*
X207429000Y-75409500D01*
X207458405Y-75410945D01*
X207458405Y-75410945D01*
G37*
D22*
X206629000Y-76009500D03*
D14*
G36*
X210633405Y-73950445D02*
X210662527Y-73954764D01*
X210691085Y-73961918D01*
X210718805Y-73971836D01*
X210745419Y-73984424D01*
X210770671Y-73999559D01*
X210794318Y-74017097D01*
X210816132Y-74036868D01*
X210835903Y-74058682D01*
X210853441Y-74082329D01*
X210868576Y-74107581D01*
X210881164Y-74134195D01*
X210891082Y-74161915D01*
X210898236Y-74190473D01*
X210902555Y-74219595D01*
X210904000Y-74249000D01*
X210904000Y-74849000D01*
X210902555Y-74878405D01*
X210898236Y-74907527D01*
X210891082Y-74936085D01*
X210881164Y-74963805D01*
X210868576Y-74990419D01*
X210853441Y-75015671D01*
X210835903Y-75039318D01*
X210816132Y-75061132D01*
X210794318Y-75080903D01*
X210770671Y-75098441D01*
X210745419Y-75113576D01*
X210718805Y-75126164D01*
X210691085Y-75136082D01*
X210662527Y-75143236D01*
X210633405Y-75147555D01*
X210604000Y-75149000D01*
X209004000Y-75149000D01*
X208974595Y-75147555D01*
X208945473Y-75143236D01*
X208916915Y-75136082D01*
X208889195Y-75126164D01*
X208862581Y-75113576D01*
X208837329Y-75098441D01*
X208813682Y-75080903D01*
X208791868Y-75061132D01*
X208772097Y-75039318D01*
X208754559Y-75015671D01*
X208739424Y-74990419D01*
X208726836Y-74963805D01*
X208716918Y-74936085D01*
X208709764Y-74907527D01*
X208705445Y-74878405D01*
X208704000Y-74849000D01*
X208704000Y-74249000D01*
X208705445Y-74219595D01*
X208709764Y-74190473D01*
X208716918Y-74161915D01*
X208726836Y-74134195D01*
X208739424Y-74107581D01*
X208754559Y-74082329D01*
X208772097Y-74058682D01*
X208791868Y-74036868D01*
X208813682Y-74017097D01*
X208837329Y-73999559D01*
X208862581Y-73984424D01*
X208889195Y-73971836D01*
X208916915Y-73961918D01*
X208945473Y-73954764D01*
X208974595Y-73950445D01*
X209004000Y-73949000D01*
X210604000Y-73949000D01*
X210633405Y-73950445D01*
X210633405Y-73950445D01*
G37*
D22*
X209804000Y-74549000D03*
D14*
G36*
X207458405Y-73950445D02*
X207487527Y-73954764D01*
X207516085Y-73961918D01*
X207543805Y-73971836D01*
X207570419Y-73984424D01*
X207595671Y-73999559D01*
X207619318Y-74017097D01*
X207641132Y-74036868D01*
X207660903Y-74058682D01*
X207678441Y-74082329D01*
X207693576Y-74107581D01*
X207706164Y-74134195D01*
X207716082Y-74161915D01*
X207723236Y-74190473D01*
X207727555Y-74219595D01*
X207729000Y-74249000D01*
X207729000Y-74849000D01*
X207727555Y-74878405D01*
X207723236Y-74907527D01*
X207716082Y-74936085D01*
X207706164Y-74963805D01*
X207693576Y-74990419D01*
X207678441Y-75015671D01*
X207660903Y-75039318D01*
X207641132Y-75061132D01*
X207619318Y-75080903D01*
X207595671Y-75098441D01*
X207570419Y-75113576D01*
X207543805Y-75126164D01*
X207516085Y-75136082D01*
X207487527Y-75143236D01*
X207458405Y-75147555D01*
X207429000Y-75149000D01*
X205829000Y-75149000D01*
X205799595Y-75147555D01*
X205770473Y-75143236D01*
X205741915Y-75136082D01*
X205714195Y-75126164D01*
X205687581Y-75113576D01*
X205662329Y-75098441D01*
X205638682Y-75080903D01*
X205616868Y-75061132D01*
X205597097Y-75039318D01*
X205579559Y-75015671D01*
X205564424Y-74990419D01*
X205551836Y-74963805D01*
X205541918Y-74936085D01*
X205534764Y-74907527D01*
X205530445Y-74878405D01*
X205529000Y-74849000D01*
X205529000Y-74249000D01*
X205530445Y-74219595D01*
X205534764Y-74190473D01*
X205541918Y-74161915D01*
X205551836Y-74134195D01*
X205564424Y-74107581D01*
X205579559Y-74082329D01*
X205597097Y-74058682D01*
X205616868Y-74036868D01*
X205638682Y-74017097D01*
X205662329Y-73999559D01*
X205687581Y-73984424D01*
X205714195Y-73971836D01*
X205741915Y-73961918D01*
X205770473Y-73954764D01*
X205799595Y-73950445D01*
X205829000Y-73949000D01*
X207429000Y-73949000D01*
X207458405Y-73950445D01*
X207458405Y-73950445D01*
G37*
D22*
X206629000Y-74549000D03*
G04 #@! TD*
D14*
G04 #@! TO.C,L2*
G36*
X227016405Y-82078445D02*
X227045527Y-82082764D01*
X227074085Y-82089918D01*
X227101805Y-82099836D01*
X227128419Y-82112424D01*
X227153671Y-82127559D01*
X227177318Y-82145097D01*
X227199132Y-82164868D01*
X227218903Y-82186682D01*
X227236441Y-82210329D01*
X227251576Y-82235581D01*
X227264164Y-82262195D01*
X227274082Y-82289915D01*
X227281236Y-82318473D01*
X227285555Y-82347595D01*
X227287000Y-82377000D01*
X227287000Y-82977000D01*
X227285555Y-83006405D01*
X227281236Y-83035527D01*
X227274082Y-83064085D01*
X227264164Y-83091805D01*
X227251576Y-83118419D01*
X227236441Y-83143671D01*
X227218903Y-83167318D01*
X227199132Y-83189132D01*
X227177318Y-83208903D01*
X227153671Y-83226441D01*
X227128419Y-83241576D01*
X227101805Y-83254164D01*
X227074085Y-83264082D01*
X227045527Y-83271236D01*
X227016405Y-83275555D01*
X226987000Y-83277000D01*
X225387000Y-83277000D01*
X225357595Y-83275555D01*
X225328473Y-83271236D01*
X225299915Y-83264082D01*
X225272195Y-83254164D01*
X225245581Y-83241576D01*
X225220329Y-83226441D01*
X225196682Y-83208903D01*
X225174868Y-83189132D01*
X225155097Y-83167318D01*
X225137559Y-83143671D01*
X225122424Y-83118419D01*
X225109836Y-83091805D01*
X225099918Y-83064085D01*
X225092764Y-83035527D01*
X225088445Y-83006405D01*
X225087000Y-82977000D01*
X225087000Y-82377000D01*
X225088445Y-82347595D01*
X225092764Y-82318473D01*
X225099918Y-82289915D01*
X225109836Y-82262195D01*
X225122424Y-82235581D01*
X225137559Y-82210329D01*
X225155097Y-82186682D01*
X225174868Y-82164868D01*
X225196682Y-82145097D01*
X225220329Y-82127559D01*
X225245581Y-82112424D01*
X225272195Y-82099836D01*
X225299915Y-82089918D01*
X225328473Y-82082764D01*
X225357595Y-82078445D01*
X225387000Y-82077000D01*
X226987000Y-82077000D01*
X227016405Y-82078445D01*
X227016405Y-82078445D01*
G37*
D22*
X226187000Y-82677000D03*
D14*
G36*
X230191405Y-82078445D02*
X230220527Y-82082764D01*
X230249085Y-82089918D01*
X230276805Y-82099836D01*
X230303419Y-82112424D01*
X230328671Y-82127559D01*
X230352318Y-82145097D01*
X230374132Y-82164868D01*
X230393903Y-82186682D01*
X230411441Y-82210329D01*
X230426576Y-82235581D01*
X230439164Y-82262195D01*
X230449082Y-82289915D01*
X230456236Y-82318473D01*
X230460555Y-82347595D01*
X230462000Y-82377000D01*
X230462000Y-82977000D01*
X230460555Y-83006405D01*
X230456236Y-83035527D01*
X230449082Y-83064085D01*
X230439164Y-83091805D01*
X230426576Y-83118419D01*
X230411441Y-83143671D01*
X230393903Y-83167318D01*
X230374132Y-83189132D01*
X230352318Y-83208903D01*
X230328671Y-83226441D01*
X230303419Y-83241576D01*
X230276805Y-83254164D01*
X230249085Y-83264082D01*
X230220527Y-83271236D01*
X230191405Y-83275555D01*
X230162000Y-83277000D01*
X228562000Y-83277000D01*
X228532595Y-83275555D01*
X228503473Y-83271236D01*
X228474915Y-83264082D01*
X228447195Y-83254164D01*
X228420581Y-83241576D01*
X228395329Y-83226441D01*
X228371682Y-83208903D01*
X228349868Y-83189132D01*
X228330097Y-83167318D01*
X228312559Y-83143671D01*
X228297424Y-83118419D01*
X228284836Y-83091805D01*
X228274918Y-83064085D01*
X228267764Y-83035527D01*
X228263445Y-83006405D01*
X228262000Y-82977000D01*
X228262000Y-82377000D01*
X228263445Y-82347595D01*
X228267764Y-82318473D01*
X228274918Y-82289915D01*
X228284836Y-82262195D01*
X228297424Y-82235581D01*
X228312559Y-82210329D01*
X228330097Y-82186682D01*
X228349868Y-82164868D01*
X228371682Y-82145097D01*
X228395329Y-82127559D01*
X228420581Y-82112424D01*
X228447195Y-82099836D01*
X228474915Y-82089918D01*
X228503473Y-82082764D01*
X228532595Y-82078445D01*
X228562000Y-82077000D01*
X230162000Y-82077000D01*
X230191405Y-82078445D01*
X230191405Y-82078445D01*
G37*
D22*
X229362000Y-82677000D03*
D14*
G36*
X227016405Y-83538945D02*
X227045527Y-83543264D01*
X227074085Y-83550418D01*
X227101805Y-83560336D01*
X227128419Y-83572924D01*
X227153671Y-83588059D01*
X227177318Y-83605597D01*
X227199132Y-83625368D01*
X227218903Y-83647182D01*
X227236441Y-83670829D01*
X227251576Y-83696081D01*
X227264164Y-83722695D01*
X227274082Y-83750415D01*
X227281236Y-83778973D01*
X227285555Y-83808095D01*
X227287000Y-83837500D01*
X227287000Y-84437500D01*
X227285555Y-84466905D01*
X227281236Y-84496027D01*
X227274082Y-84524585D01*
X227264164Y-84552305D01*
X227251576Y-84578919D01*
X227236441Y-84604171D01*
X227218903Y-84627818D01*
X227199132Y-84649632D01*
X227177318Y-84669403D01*
X227153671Y-84686941D01*
X227128419Y-84702076D01*
X227101805Y-84714664D01*
X227074085Y-84724582D01*
X227045527Y-84731736D01*
X227016405Y-84736055D01*
X226987000Y-84737500D01*
X225387000Y-84737500D01*
X225357595Y-84736055D01*
X225328473Y-84731736D01*
X225299915Y-84724582D01*
X225272195Y-84714664D01*
X225245581Y-84702076D01*
X225220329Y-84686941D01*
X225196682Y-84669403D01*
X225174868Y-84649632D01*
X225155097Y-84627818D01*
X225137559Y-84604171D01*
X225122424Y-84578919D01*
X225109836Y-84552305D01*
X225099918Y-84524585D01*
X225092764Y-84496027D01*
X225088445Y-84466905D01*
X225087000Y-84437500D01*
X225087000Y-83837500D01*
X225088445Y-83808095D01*
X225092764Y-83778973D01*
X225099918Y-83750415D01*
X225109836Y-83722695D01*
X225122424Y-83696081D01*
X225137559Y-83670829D01*
X225155097Y-83647182D01*
X225174868Y-83625368D01*
X225196682Y-83605597D01*
X225220329Y-83588059D01*
X225245581Y-83572924D01*
X225272195Y-83560336D01*
X225299915Y-83550418D01*
X225328473Y-83543264D01*
X225357595Y-83538945D01*
X225387000Y-83537500D01*
X226987000Y-83537500D01*
X227016405Y-83538945D01*
X227016405Y-83538945D01*
G37*
D22*
X226187000Y-84137500D03*
D14*
G36*
X230191405Y-83538945D02*
X230220527Y-83543264D01*
X230249085Y-83550418D01*
X230276805Y-83560336D01*
X230303419Y-83572924D01*
X230328671Y-83588059D01*
X230352318Y-83605597D01*
X230374132Y-83625368D01*
X230393903Y-83647182D01*
X230411441Y-83670829D01*
X230426576Y-83696081D01*
X230439164Y-83722695D01*
X230449082Y-83750415D01*
X230456236Y-83778973D01*
X230460555Y-83808095D01*
X230462000Y-83837500D01*
X230462000Y-84437500D01*
X230460555Y-84466905D01*
X230456236Y-84496027D01*
X230449082Y-84524585D01*
X230439164Y-84552305D01*
X230426576Y-84578919D01*
X230411441Y-84604171D01*
X230393903Y-84627818D01*
X230374132Y-84649632D01*
X230352318Y-84669403D01*
X230328671Y-84686941D01*
X230303419Y-84702076D01*
X230276805Y-84714664D01*
X230249085Y-84724582D01*
X230220527Y-84731736D01*
X230191405Y-84736055D01*
X230162000Y-84737500D01*
X228562000Y-84737500D01*
X228532595Y-84736055D01*
X228503473Y-84731736D01*
X228474915Y-84724582D01*
X228447195Y-84714664D01*
X228420581Y-84702076D01*
X228395329Y-84686941D01*
X228371682Y-84669403D01*
X228349868Y-84649632D01*
X228330097Y-84627818D01*
X228312559Y-84604171D01*
X228297424Y-84578919D01*
X228284836Y-84552305D01*
X228274918Y-84524585D01*
X228267764Y-84496027D01*
X228263445Y-84466905D01*
X228262000Y-84437500D01*
X228262000Y-83837500D01*
X228263445Y-83808095D01*
X228267764Y-83778973D01*
X228274918Y-83750415D01*
X228284836Y-83722695D01*
X228297424Y-83696081D01*
X228312559Y-83670829D01*
X228330097Y-83647182D01*
X228349868Y-83625368D01*
X228371682Y-83605597D01*
X228395329Y-83588059D01*
X228420581Y-83572924D01*
X228447195Y-83560336D01*
X228474915Y-83550418D01*
X228503473Y-83543264D01*
X228532595Y-83538945D01*
X228562000Y-83537500D01*
X230162000Y-83537500D01*
X230191405Y-83538945D01*
X230191405Y-83538945D01*
G37*
D22*
X229362000Y-84137500D03*
G04 #@! TD*
D14*
G04 #@! TO.C,L3*
G36*
X238192405Y-102969945D02*
X238221527Y-102974264D01*
X238250085Y-102981418D01*
X238277805Y-102991336D01*
X238304419Y-103003924D01*
X238329671Y-103019059D01*
X238353318Y-103036597D01*
X238375132Y-103056368D01*
X238394903Y-103078182D01*
X238412441Y-103101829D01*
X238427576Y-103127081D01*
X238440164Y-103153695D01*
X238450082Y-103181415D01*
X238457236Y-103209973D01*
X238461555Y-103239095D01*
X238463000Y-103268500D01*
X238463000Y-103868500D01*
X238461555Y-103897905D01*
X238457236Y-103927027D01*
X238450082Y-103955585D01*
X238440164Y-103983305D01*
X238427576Y-104009919D01*
X238412441Y-104035171D01*
X238394903Y-104058818D01*
X238375132Y-104080632D01*
X238353318Y-104100403D01*
X238329671Y-104117941D01*
X238304419Y-104133076D01*
X238277805Y-104145664D01*
X238250085Y-104155582D01*
X238221527Y-104162736D01*
X238192405Y-104167055D01*
X238163000Y-104168500D01*
X236563000Y-104168500D01*
X236533595Y-104167055D01*
X236504473Y-104162736D01*
X236475915Y-104155582D01*
X236448195Y-104145664D01*
X236421581Y-104133076D01*
X236396329Y-104117941D01*
X236372682Y-104100403D01*
X236350868Y-104080632D01*
X236331097Y-104058818D01*
X236313559Y-104035171D01*
X236298424Y-104009919D01*
X236285836Y-103983305D01*
X236275918Y-103955585D01*
X236268764Y-103927027D01*
X236264445Y-103897905D01*
X236263000Y-103868500D01*
X236263000Y-103268500D01*
X236264445Y-103239095D01*
X236268764Y-103209973D01*
X236275918Y-103181415D01*
X236285836Y-103153695D01*
X236298424Y-103127081D01*
X236313559Y-103101829D01*
X236331097Y-103078182D01*
X236350868Y-103056368D01*
X236372682Y-103036597D01*
X236396329Y-103019059D01*
X236421581Y-103003924D01*
X236448195Y-102991336D01*
X236475915Y-102981418D01*
X236504473Y-102974264D01*
X236533595Y-102969945D01*
X236563000Y-102968500D01*
X238163000Y-102968500D01*
X238192405Y-102969945D01*
X238192405Y-102969945D01*
G37*
D22*
X237363000Y-103568500D03*
D14*
G36*
X235017405Y-102969945D02*
X235046527Y-102974264D01*
X235075085Y-102981418D01*
X235102805Y-102991336D01*
X235129419Y-103003924D01*
X235154671Y-103019059D01*
X235178318Y-103036597D01*
X235200132Y-103056368D01*
X235219903Y-103078182D01*
X235237441Y-103101829D01*
X235252576Y-103127081D01*
X235265164Y-103153695D01*
X235275082Y-103181415D01*
X235282236Y-103209973D01*
X235286555Y-103239095D01*
X235288000Y-103268500D01*
X235288000Y-103868500D01*
X235286555Y-103897905D01*
X235282236Y-103927027D01*
X235275082Y-103955585D01*
X235265164Y-103983305D01*
X235252576Y-104009919D01*
X235237441Y-104035171D01*
X235219903Y-104058818D01*
X235200132Y-104080632D01*
X235178318Y-104100403D01*
X235154671Y-104117941D01*
X235129419Y-104133076D01*
X235102805Y-104145664D01*
X235075085Y-104155582D01*
X235046527Y-104162736D01*
X235017405Y-104167055D01*
X234988000Y-104168500D01*
X233388000Y-104168500D01*
X233358595Y-104167055D01*
X233329473Y-104162736D01*
X233300915Y-104155582D01*
X233273195Y-104145664D01*
X233246581Y-104133076D01*
X233221329Y-104117941D01*
X233197682Y-104100403D01*
X233175868Y-104080632D01*
X233156097Y-104058818D01*
X233138559Y-104035171D01*
X233123424Y-104009919D01*
X233110836Y-103983305D01*
X233100918Y-103955585D01*
X233093764Y-103927027D01*
X233089445Y-103897905D01*
X233088000Y-103868500D01*
X233088000Y-103268500D01*
X233089445Y-103239095D01*
X233093764Y-103209973D01*
X233100918Y-103181415D01*
X233110836Y-103153695D01*
X233123424Y-103127081D01*
X233138559Y-103101829D01*
X233156097Y-103078182D01*
X233175868Y-103056368D01*
X233197682Y-103036597D01*
X233221329Y-103019059D01*
X233246581Y-103003924D01*
X233273195Y-102991336D01*
X233300915Y-102981418D01*
X233329473Y-102974264D01*
X233358595Y-102969945D01*
X233388000Y-102968500D01*
X234988000Y-102968500D01*
X235017405Y-102969945D01*
X235017405Y-102969945D01*
G37*
D22*
X234188000Y-103568500D03*
D14*
G36*
X238192405Y-101509445D02*
X238221527Y-101513764D01*
X238250085Y-101520918D01*
X238277805Y-101530836D01*
X238304419Y-101543424D01*
X238329671Y-101558559D01*
X238353318Y-101576097D01*
X238375132Y-101595868D01*
X238394903Y-101617682D01*
X238412441Y-101641329D01*
X238427576Y-101666581D01*
X238440164Y-101693195D01*
X238450082Y-101720915D01*
X238457236Y-101749473D01*
X238461555Y-101778595D01*
X238463000Y-101808000D01*
X238463000Y-102408000D01*
X238461555Y-102437405D01*
X238457236Y-102466527D01*
X238450082Y-102495085D01*
X238440164Y-102522805D01*
X238427576Y-102549419D01*
X238412441Y-102574671D01*
X238394903Y-102598318D01*
X238375132Y-102620132D01*
X238353318Y-102639903D01*
X238329671Y-102657441D01*
X238304419Y-102672576D01*
X238277805Y-102685164D01*
X238250085Y-102695082D01*
X238221527Y-102702236D01*
X238192405Y-102706555D01*
X238163000Y-102708000D01*
X236563000Y-102708000D01*
X236533595Y-102706555D01*
X236504473Y-102702236D01*
X236475915Y-102695082D01*
X236448195Y-102685164D01*
X236421581Y-102672576D01*
X236396329Y-102657441D01*
X236372682Y-102639903D01*
X236350868Y-102620132D01*
X236331097Y-102598318D01*
X236313559Y-102574671D01*
X236298424Y-102549419D01*
X236285836Y-102522805D01*
X236275918Y-102495085D01*
X236268764Y-102466527D01*
X236264445Y-102437405D01*
X236263000Y-102408000D01*
X236263000Y-101808000D01*
X236264445Y-101778595D01*
X236268764Y-101749473D01*
X236275918Y-101720915D01*
X236285836Y-101693195D01*
X236298424Y-101666581D01*
X236313559Y-101641329D01*
X236331097Y-101617682D01*
X236350868Y-101595868D01*
X236372682Y-101576097D01*
X236396329Y-101558559D01*
X236421581Y-101543424D01*
X236448195Y-101530836D01*
X236475915Y-101520918D01*
X236504473Y-101513764D01*
X236533595Y-101509445D01*
X236563000Y-101508000D01*
X238163000Y-101508000D01*
X238192405Y-101509445D01*
X238192405Y-101509445D01*
G37*
D22*
X237363000Y-102108000D03*
D14*
G36*
X235017405Y-101509445D02*
X235046527Y-101513764D01*
X235075085Y-101520918D01*
X235102805Y-101530836D01*
X235129419Y-101543424D01*
X235154671Y-101558559D01*
X235178318Y-101576097D01*
X235200132Y-101595868D01*
X235219903Y-101617682D01*
X235237441Y-101641329D01*
X235252576Y-101666581D01*
X235265164Y-101693195D01*
X235275082Y-101720915D01*
X235282236Y-101749473D01*
X235286555Y-101778595D01*
X235288000Y-101808000D01*
X235288000Y-102408000D01*
X235286555Y-102437405D01*
X235282236Y-102466527D01*
X235275082Y-102495085D01*
X235265164Y-102522805D01*
X235252576Y-102549419D01*
X235237441Y-102574671D01*
X235219903Y-102598318D01*
X235200132Y-102620132D01*
X235178318Y-102639903D01*
X235154671Y-102657441D01*
X235129419Y-102672576D01*
X235102805Y-102685164D01*
X235075085Y-102695082D01*
X235046527Y-102702236D01*
X235017405Y-102706555D01*
X234988000Y-102708000D01*
X233388000Y-102708000D01*
X233358595Y-102706555D01*
X233329473Y-102702236D01*
X233300915Y-102695082D01*
X233273195Y-102685164D01*
X233246581Y-102672576D01*
X233221329Y-102657441D01*
X233197682Y-102639903D01*
X233175868Y-102620132D01*
X233156097Y-102598318D01*
X233138559Y-102574671D01*
X233123424Y-102549419D01*
X233110836Y-102522805D01*
X233100918Y-102495085D01*
X233093764Y-102466527D01*
X233089445Y-102437405D01*
X233088000Y-102408000D01*
X233088000Y-101808000D01*
X233089445Y-101778595D01*
X233093764Y-101749473D01*
X233100918Y-101720915D01*
X233110836Y-101693195D01*
X233123424Y-101666581D01*
X233138559Y-101641329D01*
X233156097Y-101617682D01*
X233175868Y-101595868D01*
X233197682Y-101576097D01*
X233221329Y-101558559D01*
X233246581Y-101543424D01*
X233273195Y-101530836D01*
X233300915Y-101520918D01*
X233329473Y-101513764D01*
X233358595Y-101509445D01*
X233388000Y-101508000D01*
X234988000Y-101508000D01*
X235017405Y-101509445D01*
X235017405Y-101509445D01*
G37*
D22*
X234188000Y-102108000D03*
G04 #@! TD*
D14*
G04 #@! TO.C,L4*
G36*
X227016405Y-121067445D02*
X227045527Y-121071764D01*
X227074085Y-121078918D01*
X227101805Y-121088836D01*
X227128419Y-121101424D01*
X227153671Y-121116559D01*
X227177318Y-121134097D01*
X227199132Y-121153868D01*
X227218903Y-121175682D01*
X227236441Y-121199329D01*
X227251576Y-121224581D01*
X227264164Y-121251195D01*
X227274082Y-121278915D01*
X227281236Y-121307473D01*
X227285555Y-121336595D01*
X227287000Y-121366000D01*
X227287000Y-121966000D01*
X227285555Y-121995405D01*
X227281236Y-122024527D01*
X227274082Y-122053085D01*
X227264164Y-122080805D01*
X227251576Y-122107419D01*
X227236441Y-122132671D01*
X227218903Y-122156318D01*
X227199132Y-122178132D01*
X227177318Y-122197903D01*
X227153671Y-122215441D01*
X227128419Y-122230576D01*
X227101805Y-122243164D01*
X227074085Y-122253082D01*
X227045527Y-122260236D01*
X227016405Y-122264555D01*
X226987000Y-122266000D01*
X225387000Y-122266000D01*
X225357595Y-122264555D01*
X225328473Y-122260236D01*
X225299915Y-122253082D01*
X225272195Y-122243164D01*
X225245581Y-122230576D01*
X225220329Y-122215441D01*
X225196682Y-122197903D01*
X225174868Y-122178132D01*
X225155097Y-122156318D01*
X225137559Y-122132671D01*
X225122424Y-122107419D01*
X225109836Y-122080805D01*
X225099918Y-122053085D01*
X225092764Y-122024527D01*
X225088445Y-121995405D01*
X225087000Y-121966000D01*
X225087000Y-121366000D01*
X225088445Y-121336595D01*
X225092764Y-121307473D01*
X225099918Y-121278915D01*
X225109836Y-121251195D01*
X225122424Y-121224581D01*
X225137559Y-121199329D01*
X225155097Y-121175682D01*
X225174868Y-121153868D01*
X225196682Y-121134097D01*
X225220329Y-121116559D01*
X225245581Y-121101424D01*
X225272195Y-121088836D01*
X225299915Y-121078918D01*
X225328473Y-121071764D01*
X225357595Y-121067445D01*
X225387000Y-121066000D01*
X226987000Y-121066000D01*
X227016405Y-121067445D01*
X227016405Y-121067445D01*
G37*
D22*
X226187000Y-121666000D03*
D14*
G36*
X230191405Y-121067445D02*
X230220527Y-121071764D01*
X230249085Y-121078918D01*
X230276805Y-121088836D01*
X230303419Y-121101424D01*
X230328671Y-121116559D01*
X230352318Y-121134097D01*
X230374132Y-121153868D01*
X230393903Y-121175682D01*
X230411441Y-121199329D01*
X230426576Y-121224581D01*
X230439164Y-121251195D01*
X230449082Y-121278915D01*
X230456236Y-121307473D01*
X230460555Y-121336595D01*
X230462000Y-121366000D01*
X230462000Y-121966000D01*
X230460555Y-121995405D01*
X230456236Y-122024527D01*
X230449082Y-122053085D01*
X230439164Y-122080805D01*
X230426576Y-122107419D01*
X230411441Y-122132671D01*
X230393903Y-122156318D01*
X230374132Y-122178132D01*
X230352318Y-122197903D01*
X230328671Y-122215441D01*
X230303419Y-122230576D01*
X230276805Y-122243164D01*
X230249085Y-122253082D01*
X230220527Y-122260236D01*
X230191405Y-122264555D01*
X230162000Y-122266000D01*
X228562000Y-122266000D01*
X228532595Y-122264555D01*
X228503473Y-122260236D01*
X228474915Y-122253082D01*
X228447195Y-122243164D01*
X228420581Y-122230576D01*
X228395329Y-122215441D01*
X228371682Y-122197903D01*
X228349868Y-122178132D01*
X228330097Y-122156318D01*
X228312559Y-122132671D01*
X228297424Y-122107419D01*
X228284836Y-122080805D01*
X228274918Y-122053085D01*
X228267764Y-122024527D01*
X228263445Y-121995405D01*
X228262000Y-121966000D01*
X228262000Y-121366000D01*
X228263445Y-121336595D01*
X228267764Y-121307473D01*
X228274918Y-121278915D01*
X228284836Y-121251195D01*
X228297424Y-121224581D01*
X228312559Y-121199329D01*
X228330097Y-121175682D01*
X228349868Y-121153868D01*
X228371682Y-121134097D01*
X228395329Y-121116559D01*
X228420581Y-121101424D01*
X228447195Y-121088836D01*
X228474915Y-121078918D01*
X228503473Y-121071764D01*
X228532595Y-121067445D01*
X228562000Y-121066000D01*
X230162000Y-121066000D01*
X230191405Y-121067445D01*
X230191405Y-121067445D01*
G37*
D22*
X229362000Y-121666000D03*
D14*
G36*
X227016405Y-122527945D02*
X227045527Y-122532264D01*
X227074085Y-122539418D01*
X227101805Y-122549336D01*
X227128419Y-122561924D01*
X227153671Y-122577059D01*
X227177318Y-122594597D01*
X227199132Y-122614368D01*
X227218903Y-122636182D01*
X227236441Y-122659829D01*
X227251576Y-122685081D01*
X227264164Y-122711695D01*
X227274082Y-122739415D01*
X227281236Y-122767973D01*
X227285555Y-122797095D01*
X227287000Y-122826500D01*
X227287000Y-123426500D01*
X227285555Y-123455905D01*
X227281236Y-123485027D01*
X227274082Y-123513585D01*
X227264164Y-123541305D01*
X227251576Y-123567919D01*
X227236441Y-123593171D01*
X227218903Y-123616818D01*
X227199132Y-123638632D01*
X227177318Y-123658403D01*
X227153671Y-123675941D01*
X227128419Y-123691076D01*
X227101805Y-123703664D01*
X227074085Y-123713582D01*
X227045527Y-123720736D01*
X227016405Y-123725055D01*
X226987000Y-123726500D01*
X225387000Y-123726500D01*
X225357595Y-123725055D01*
X225328473Y-123720736D01*
X225299915Y-123713582D01*
X225272195Y-123703664D01*
X225245581Y-123691076D01*
X225220329Y-123675941D01*
X225196682Y-123658403D01*
X225174868Y-123638632D01*
X225155097Y-123616818D01*
X225137559Y-123593171D01*
X225122424Y-123567919D01*
X225109836Y-123541305D01*
X225099918Y-123513585D01*
X225092764Y-123485027D01*
X225088445Y-123455905D01*
X225087000Y-123426500D01*
X225087000Y-122826500D01*
X225088445Y-122797095D01*
X225092764Y-122767973D01*
X225099918Y-122739415D01*
X225109836Y-122711695D01*
X225122424Y-122685081D01*
X225137559Y-122659829D01*
X225155097Y-122636182D01*
X225174868Y-122614368D01*
X225196682Y-122594597D01*
X225220329Y-122577059D01*
X225245581Y-122561924D01*
X225272195Y-122549336D01*
X225299915Y-122539418D01*
X225328473Y-122532264D01*
X225357595Y-122527945D01*
X225387000Y-122526500D01*
X226987000Y-122526500D01*
X227016405Y-122527945D01*
X227016405Y-122527945D01*
G37*
D22*
X226187000Y-123126500D03*
D14*
G36*
X230191405Y-122527945D02*
X230220527Y-122532264D01*
X230249085Y-122539418D01*
X230276805Y-122549336D01*
X230303419Y-122561924D01*
X230328671Y-122577059D01*
X230352318Y-122594597D01*
X230374132Y-122614368D01*
X230393903Y-122636182D01*
X230411441Y-122659829D01*
X230426576Y-122685081D01*
X230439164Y-122711695D01*
X230449082Y-122739415D01*
X230456236Y-122767973D01*
X230460555Y-122797095D01*
X230462000Y-122826500D01*
X230462000Y-123426500D01*
X230460555Y-123455905D01*
X230456236Y-123485027D01*
X230449082Y-123513585D01*
X230439164Y-123541305D01*
X230426576Y-123567919D01*
X230411441Y-123593171D01*
X230393903Y-123616818D01*
X230374132Y-123638632D01*
X230352318Y-123658403D01*
X230328671Y-123675941D01*
X230303419Y-123691076D01*
X230276805Y-123703664D01*
X230249085Y-123713582D01*
X230220527Y-123720736D01*
X230191405Y-123725055D01*
X230162000Y-123726500D01*
X228562000Y-123726500D01*
X228532595Y-123725055D01*
X228503473Y-123720736D01*
X228474915Y-123713582D01*
X228447195Y-123703664D01*
X228420581Y-123691076D01*
X228395329Y-123675941D01*
X228371682Y-123658403D01*
X228349868Y-123638632D01*
X228330097Y-123616818D01*
X228312559Y-123593171D01*
X228297424Y-123567919D01*
X228284836Y-123541305D01*
X228274918Y-123513585D01*
X228267764Y-123485027D01*
X228263445Y-123455905D01*
X228262000Y-123426500D01*
X228262000Y-122826500D01*
X228263445Y-122797095D01*
X228267764Y-122767973D01*
X228274918Y-122739415D01*
X228284836Y-122711695D01*
X228297424Y-122685081D01*
X228312559Y-122659829D01*
X228330097Y-122636182D01*
X228349868Y-122614368D01*
X228371682Y-122594597D01*
X228395329Y-122577059D01*
X228420581Y-122561924D01*
X228447195Y-122549336D01*
X228474915Y-122539418D01*
X228503473Y-122532264D01*
X228532595Y-122527945D01*
X228562000Y-122526500D01*
X230162000Y-122526500D01*
X230191405Y-122527945D01*
X230191405Y-122527945D01*
G37*
D22*
X229362000Y-123126500D03*
G04 #@! TD*
D14*
G04 #@! TO.C,L5*
G36*
X210633405Y-130528945D02*
X210662527Y-130533264D01*
X210691085Y-130540418D01*
X210718805Y-130550336D01*
X210745419Y-130562924D01*
X210770671Y-130578059D01*
X210794318Y-130595597D01*
X210816132Y-130615368D01*
X210835903Y-130637182D01*
X210853441Y-130660829D01*
X210868576Y-130686081D01*
X210881164Y-130712695D01*
X210891082Y-130740415D01*
X210898236Y-130768973D01*
X210902555Y-130798095D01*
X210904000Y-130827500D01*
X210904000Y-131427500D01*
X210902555Y-131456905D01*
X210898236Y-131486027D01*
X210891082Y-131514585D01*
X210881164Y-131542305D01*
X210868576Y-131568919D01*
X210853441Y-131594171D01*
X210835903Y-131617818D01*
X210816132Y-131639632D01*
X210794318Y-131659403D01*
X210770671Y-131676941D01*
X210745419Y-131692076D01*
X210718805Y-131704664D01*
X210691085Y-131714582D01*
X210662527Y-131721736D01*
X210633405Y-131726055D01*
X210604000Y-131727500D01*
X209004000Y-131727500D01*
X208974595Y-131726055D01*
X208945473Y-131721736D01*
X208916915Y-131714582D01*
X208889195Y-131704664D01*
X208862581Y-131692076D01*
X208837329Y-131676941D01*
X208813682Y-131659403D01*
X208791868Y-131639632D01*
X208772097Y-131617818D01*
X208754559Y-131594171D01*
X208739424Y-131568919D01*
X208726836Y-131542305D01*
X208716918Y-131514585D01*
X208709764Y-131486027D01*
X208705445Y-131456905D01*
X208704000Y-131427500D01*
X208704000Y-130827500D01*
X208705445Y-130798095D01*
X208709764Y-130768973D01*
X208716918Y-130740415D01*
X208726836Y-130712695D01*
X208739424Y-130686081D01*
X208754559Y-130660829D01*
X208772097Y-130637182D01*
X208791868Y-130615368D01*
X208813682Y-130595597D01*
X208837329Y-130578059D01*
X208862581Y-130562924D01*
X208889195Y-130550336D01*
X208916915Y-130540418D01*
X208945473Y-130533264D01*
X208974595Y-130528945D01*
X209004000Y-130527500D01*
X210604000Y-130527500D01*
X210633405Y-130528945D01*
X210633405Y-130528945D01*
G37*
D22*
X209804000Y-131127500D03*
D14*
G36*
X207458405Y-130528945D02*
X207487527Y-130533264D01*
X207516085Y-130540418D01*
X207543805Y-130550336D01*
X207570419Y-130562924D01*
X207595671Y-130578059D01*
X207619318Y-130595597D01*
X207641132Y-130615368D01*
X207660903Y-130637182D01*
X207678441Y-130660829D01*
X207693576Y-130686081D01*
X207706164Y-130712695D01*
X207716082Y-130740415D01*
X207723236Y-130768973D01*
X207727555Y-130798095D01*
X207729000Y-130827500D01*
X207729000Y-131427500D01*
X207727555Y-131456905D01*
X207723236Y-131486027D01*
X207716082Y-131514585D01*
X207706164Y-131542305D01*
X207693576Y-131568919D01*
X207678441Y-131594171D01*
X207660903Y-131617818D01*
X207641132Y-131639632D01*
X207619318Y-131659403D01*
X207595671Y-131676941D01*
X207570419Y-131692076D01*
X207543805Y-131704664D01*
X207516085Y-131714582D01*
X207487527Y-131721736D01*
X207458405Y-131726055D01*
X207429000Y-131727500D01*
X205829000Y-131727500D01*
X205799595Y-131726055D01*
X205770473Y-131721736D01*
X205741915Y-131714582D01*
X205714195Y-131704664D01*
X205687581Y-131692076D01*
X205662329Y-131676941D01*
X205638682Y-131659403D01*
X205616868Y-131639632D01*
X205597097Y-131617818D01*
X205579559Y-131594171D01*
X205564424Y-131568919D01*
X205551836Y-131542305D01*
X205541918Y-131514585D01*
X205534764Y-131486027D01*
X205530445Y-131456905D01*
X205529000Y-131427500D01*
X205529000Y-130827500D01*
X205530445Y-130798095D01*
X205534764Y-130768973D01*
X205541918Y-130740415D01*
X205551836Y-130712695D01*
X205564424Y-130686081D01*
X205579559Y-130660829D01*
X205597097Y-130637182D01*
X205616868Y-130615368D01*
X205638682Y-130595597D01*
X205662329Y-130578059D01*
X205687581Y-130562924D01*
X205714195Y-130550336D01*
X205741915Y-130540418D01*
X205770473Y-130533264D01*
X205799595Y-130528945D01*
X205829000Y-130527500D01*
X207429000Y-130527500D01*
X207458405Y-130528945D01*
X207458405Y-130528945D01*
G37*
D22*
X206629000Y-131127500D03*
D14*
G36*
X210633405Y-129068445D02*
X210662527Y-129072764D01*
X210691085Y-129079918D01*
X210718805Y-129089836D01*
X210745419Y-129102424D01*
X210770671Y-129117559D01*
X210794318Y-129135097D01*
X210816132Y-129154868D01*
X210835903Y-129176682D01*
X210853441Y-129200329D01*
X210868576Y-129225581D01*
X210881164Y-129252195D01*
X210891082Y-129279915D01*
X210898236Y-129308473D01*
X210902555Y-129337595D01*
X210904000Y-129367000D01*
X210904000Y-129967000D01*
X210902555Y-129996405D01*
X210898236Y-130025527D01*
X210891082Y-130054085D01*
X210881164Y-130081805D01*
X210868576Y-130108419D01*
X210853441Y-130133671D01*
X210835903Y-130157318D01*
X210816132Y-130179132D01*
X210794318Y-130198903D01*
X210770671Y-130216441D01*
X210745419Y-130231576D01*
X210718805Y-130244164D01*
X210691085Y-130254082D01*
X210662527Y-130261236D01*
X210633405Y-130265555D01*
X210604000Y-130267000D01*
X209004000Y-130267000D01*
X208974595Y-130265555D01*
X208945473Y-130261236D01*
X208916915Y-130254082D01*
X208889195Y-130244164D01*
X208862581Y-130231576D01*
X208837329Y-130216441D01*
X208813682Y-130198903D01*
X208791868Y-130179132D01*
X208772097Y-130157318D01*
X208754559Y-130133671D01*
X208739424Y-130108419D01*
X208726836Y-130081805D01*
X208716918Y-130054085D01*
X208709764Y-130025527D01*
X208705445Y-129996405D01*
X208704000Y-129967000D01*
X208704000Y-129367000D01*
X208705445Y-129337595D01*
X208709764Y-129308473D01*
X208716918Y-129279915D01*
X208726836Y-129252195D01*
X208739424Y-129225581D01*
X208754559Y-129200329D01*
X208772097Y-129176682D01*
X208791868Y-129154868D01*
X208813682Y-129135097D01*
X208837329Y-129117559D01*
X208862581Y-129102424D01*
X208889195Y-129089836D01*
X208916915Y-129079918D01*
X208945473Y-129072764D01*
X208974595Y-129068445D01*
X209004000Y-129067000D01*
X210604000Y-129067000D01*
X210633405Y-129068445D01*
X210633405Y-129068445D01*
G37*
D22*
X209804000Y-129667000D03*
D14*
G36*
X207458405Y-129068445D02*
X207487527Y-129072764D01*
X207516085Y-129079918D01*
X207543805Y-129089836D01*
X207570419Y-129102424D01*
X207595671Y-129117559D01*
X207619318Y-129135097D01*
X207641132Y-129154868D01*
X207660903Y-129176682D01*
X207678441Y-129200329D01*
X207693576Y-129225581D01*
X207706164Y-129252195D01*
X207716082Y-129279915D01*
X207723236Y-129308473D01*
X207727555Y-129337595D01*
X207729000Y-129367000D01*
X207729000Y-129967000D01*
X207727555Y-129996405D01*
X207723236Y-130025527D01*
X207716082Y-130054085D01*
X207706164Y-130081805D01*
X207693576Y-130108419D01*
X207678441Y-130133671D01*
X207660903Y-130157318D01*
X207641132Y-130179132D01*
X207619318Y-130198903D01*
X207595671Y-130216441D01*
X207570419Y-130231576D01*
X207543805Y-130244164D01*
X207516085Y-130254082D01*
X207487527Y-130261236D01*
X207458405Y-130265555D01*
X207429000Y-130267000D01*
X205829000Y-130267000D01*
X205799595Y-130265555D01*
X205770473Y-130261236D01*
X205741915Y-130254082D01*
X205714195Y-130244164D01*
X205687581Y-130231576D01*
X205662329Y-130216441D01*
X205638682Y-130198903D01*
X205616868Y-130179132D01*
X205597097Y-130157318D01*
X205579559Y-130133671D01*
X205564424Y-130108419D01*
X205551836Y-130081805D01*
X205541918Y-130054085D01*
X205534764Y-130025527D01*
X205530445Y-129996405D01*
X205529000Y-129967000D01*
X205529000Y-129367000D01*
X205530445Y-129337595D01*
X205534764Y-129308473D01*
X205541918Y-129279915D01*
X205551836Y-129252195D01*
X205564424Y-129225581D01*
X205579559Y-129200329D01*
X205597097Y-129176682D01*
X205616868Y-129154868D01*
X205638682Y-129135097D01*
X205662329Y-129117559D01*
X205687581Y-129102424D01*
X205714195Y-129089836D01*
X205741915Y-129079918D01*
X205770473Y-129072764D01*
X205799595Y-129068445D01*
X205829000Y-129067000D01*
X207429000Y-129067000D01*
X207458405Y-129068445D01*
X207458405Y-129068445D01*
G37*
D22*
X206629000Y-129667000D03*
G04 #@! TD*
D14*
G04 #@! TO.C,L6*
G36*
X188154405Y-121067445D02*
X188183527Y-121071764D01*
X188212085Y-121078918D01*
X188239805Y-121088836D01*
X188266419Y-121101424D01*
X188291671Y-121116559D01*
X188315318Y-121134097D01*
X188337132Y-121153868D01*
X188356903Y-121175682D01*
X188374441Y-121199329D01*
X188389576Y-121224581D01*
X188402164Y-121251195D01*
X188412082Y-121278915D01*
X188419236Y-121307473D01*
X188423555Y-121336595D01*
X188425000Y-121366000D01*
X188425000Y-121966000D01*
X188423555Y-121995405D01*
X188419236Y-122024527D01*
X188412082Y-122053085D01*
X188402164Y-122080805D01*
X188389576Y-122107419D01*
X188374441Y-122132671D01*
X188356903Y-122156318D01*
X188337132Y-122178132D01*
X188315318Y-122197903D01*
X188291671Y-122215441D01*
X188266419Y-122230576D01*
X188239805Y-122243164D01*
X188212085Y-122253082D01*
X188183527Y-122260236D01*
X188154405Y-122264555D01*
X188125000Y-122266000D01*
X186525000Y-122266000D01*
X186495595Y-122264555D01*
X186466473Y-122260236D01*
X186437915Y-122253082D01*
X186410195Y-122243164D01*
X186383581Y-122230576D01*
X186358329Y-122215441D01*
X186334682Y-122197903D01*
X186312868Y-122178132D01*
X186293097Y-122156318D01*
X186275559Y-122132671D01*
X186260424Y-122107419D01*
X186247836Y-122080805D01*
X186237918Y-122053085D01*
X186230764Y-122024527D01*
X186226445Y-121995405D01*
X186225000Y-121966000D01*
X186225000Y-121366000D01*
X186226445Y-121336595D01*
X186230764Y-121307473D01*
X186237918Y-121278915D01*
X186247836Y-121251195D01*
X186260424Y-121224581D01*
X186275559Y-121199329D01*
X186293097Y-121175682D01*
X186312868Y-121153868D01*
X186334682Y-121134097D01*
X186358329Y-121116559D01*
X186383581Y-121101424D01*
X186410195Y-121088836D01*
X186437915Y-121078918D01*
X186466473Y-121071764D01*
X186495595Y-121067445D01*
X186525000Y-121066000D01*
X188125000Y-121066000D01*
X188154405Y-121067445D01*
X188154405Y-121067445D01*
G37*
D22*
X187325000Y-121666000D03*
D14*
G36*
X191329405Y-121067445D02*
X191358527Y-121071764D01*
X191387085Y-121078918D01*
X191414805Y-121088836D01*
X191441419Y-121101424D01*
X191466671Y-121116559D01*
X191490318Y-121134097D01*
X191512132Y-121153868D01*
X191531903Y-121175682D01*
X191549441Y-121199329D01*
X191564576Y-121224581D01*
X191577164Y-121251195D01*
X191587082Y-121278915D01*
X191594236Y-121307473D01*
X191598555Y-121336595D01*
X191600000Y-121366000D01*
X191600000Y-121966000D01*
X191598555Y-121995405D01*
X191594236Y-122024527D01*
X191587082Y-122053085D01*
X191577164Y-122080805D01*
X191564576Y-122107419D01*
X191549441Y-122132671D01*
X191531903Y-122156318D01*
X191512132Y-122178132D01*
X191490318Y-122197903D01*
X191466671Y-122215441D01*
X191441419Y-122230576D01*
X191414805Y-122243164D01*
X191387085Y-122253082D01*
X191358527Y-122260236D01*
X191329405Y-122264555D01*
X191300000Y-122266000D01*
X189700000Y-122266000D01*
X189670595Y-122264555D01*
X189641473Y-122260236D01*
X189612915Y-122253082D01*
X189585195Y-122243164D01*
X189558581Y-122230576D01*
X189533329Y-122215441D01*
X189509682Y-122197903D01*
X189487868Y-122178132D01*
X189468097Y-122156318D01*
X189450559Y-122132671D01*
X189435424Y-122107419D01*
X189422836Y-122080805D01*
X189412918Y-122053085D01*
X189405764Y-122024527D01*
X189401445Y-121995405D01*
X189400000Y-121966000D01*
X189400000Y-121366000D01*
X189401445Y-121336595D01*
X189405764Y-121307473D01*
X189412918Y-121278915D01*
X189422836Y-121251195D01*
X189435424Y-121224581D01*
X189450559Y-121199329D01*
X189468097Y-121175682D01*
X189487868Y-121153868D01*
X189509682Y-121134097D01*
X189533329Y-121116559D01*
X189558581Y-121101424D01*
X189585195Y-121088836D01*
X189612915Y-121078918D01*
X189641473Y-121071764D01*
X189670595Y-121067445D01*
X189700000Y-121066000D01*
X191300000Y-121066000D01*
X191329405Y-121067445D01*
X191329405Y-121067445D01*
G37*
D22*
X190500000Y-121666000D03*
D14*
G36*
X188154405Y-122527945D02*
X188183527Y-122532264D01*
X188212085Y-122539418D01*
X188239805Y-122549336D01*
X188266419Y-122561924D01*
X188291671Y-122577059D01*
X188315318Y-122594597D01*
X188337132Y-122614368D01*
X188356903Y-122636182D01*
X188374441Y-122659829D01*
X188389576Y-122685081D01*
X188402164Y-122711695D01*
X188412082Y-122739415D01*
X188419236Y-122767973D01*
X188423555Y-122797095D01*
X188425000Y-122826500D01*
X188425000Y-123426500D01*
X188423555Y-123455905D01*
X188419236Y-123485027D01*
X188412082Y-123513585D01*
X188402164Y-123541305D01*
X188389576Y-123567919D01*
X188374441Y-123593171D01*
X188356903Y-123616818D01*
X188337132Y-123638632D01*
X188315318Y-123658403D01*
X188291671Y-123675941D01*
X188266419Y-123691076D01*
X188239805Y-123703664D01*
X188212085Y-123713582D01*
X188183527Y-123720736D01*
X188154405Y-123725055D01*
X188125000Y-123726500D01*
X186525000Y-123726500D01*
X186495595Y-123725055D01*
X186466473Y-123720736D01*
X186437915Y-123713582D01*
X186410195Y-123703664D01*
X186383581Y-123691076D01*
X186358329Y-123675941D01*
X186334682Y-123658403D01*
X186312868Y-123638632D01*
X186293097Y-123616818D01*
X186275559Y-123593171D01*
X186260424Y-123567919D01*
X186247836Y-123541305D01*
X186237918Y-123513585D01*
X186230764Y-123485027D01*
X186226445Y-123455905D01*
X186225000Y-123426500D01*
X186225000Y-122826500D01*
X186226445Y-122797095D01*
X186230764Y-122767973D01*
X186237918Y-122739415D01*
X186247836Y-122711695D01*
X186260424Y-122685081D01*
X186275559Y-122659829D01*
X186293097Y-122636182D01*
X186312868Y-122614368D01*
X186334682Y-122594597D01*
X186358329Y-122577059D01*
X186383581Y-122561924D01*
X186410195Y-122549336D01*
X186437915Y-122539418D01*
X186466473Y-122532264D01*
X186495595Y-122527945D01*
X186525000Y-122526500D01*
X188125000Y-122526500D01*
X188154405Y-122527945D01*
X188154405Y-122527945D01*
G37*
D22*
X187325000Y-123126500D03*
D14*
G36*
X191329405Y-122527945D02*
X191358527Y-122532264D01*
X191387085Y-122539418D01*
X191414805Y-122549336D01*
X191441419Y-122561924D01*
X191466671Y-122577059D01*
X191490318Y-122594597D01*
X191512132Y-122614368D01*
X191531903Y-122636182D01*
X191549441Y-122659829D01*
X191564576Y-122685081D01*
X191577164Y-122711695D01*
X191587082Y-122739415D01*
X191594236Y-122767973D01*
X191598555Y-122797095D01*
X191600000Y-122826500D01*
X191600000Y-123426500D01*
X191598555Y-123455905D01*
X191594236Y-123485027D01*
X191587082Y-123513585D01*
X191577164Y-123541305D01*
X191564576Y-123567919D01*
X191549441Y-123593171D01*
X191531903Y-123616818D01*
X191512132Y-123638632D01*
X191490318Y-123658403D01*
X191466671Y-123675941D01*
X191441419Y-123691076D01*
X191414805Y-123703664D01*
X191387085Y-123713582D01*
X191358527Y-123720736D01*
X191329405Y-123725055D01*
X191300000Y-123726500D01*
X189700000Y-123726500D01*
X189670595Y-123725055D01*
X189641473Y-123720736D01*
X189612915Y-123713582D01*
X189585195Y-123703664D01*
X189558581Y-123691076D01*
X189533329Y-123675941D01*
X189509682Y-123658403D01*
X189487868Y-123638632D01*
X189468097Y-123616818D01*
X189450559Y-123593171D01*
X189435424Y-123567919D01*
X189422836Y-123541305D01*
X189412918Y-123513585D01*
X189405764Y-123485027D01*
X189401445Y-123455905D01*
X189400000Y-123426500D01*
X189400000Y-122826500D01*
X189401445Y-122797095D01*
X189405764Y-122767973D01*
X189412918Y-122739415D01*
X189422836Y-122711695D01*
X189435424Y-122685081D01*
X189450559Y-122659829D01*
X189468097Y-122636182D01*
X189487868Y-122614368D01*
X189509682Y-122594597D01*
X189533329Y-122577059D01*
X189558581Y-122561924D01*
X189585195Y-122549336D01*
X189612915Y-122539418D01*
X189641473Y-122532264D01*
X189670595Y-122527945D01*
X189700000Y-122526500D01*
X191300000Y-122526500D01*
X191329405Y-122527945D01*
X191329405Y-122527945D01*
G37*
D22*
X190500000Y-123126500D03*
G04 #@! TD*
D14*
G04 #@! TO.C,L7*
G36*
X183201405Y-102969945D02*
X183230527Y-102974264D01*
X183259085Y-102981418D01*
X183286805Y-102991336D01*
X183313419Y-103003924D01*
X183338671Y-103019059D01*
X183362318Y-103036597D01*
X183384132Y-103056368D01*
X183403903Y-103078182D01*
X183421441Y-103101829D01*
X183436576Y-103127081D01*
X183449164Y-103153695D01*
X183459082Y-103181415D01*
X183466236Y-103209973D01*
X183470555Y-103239095D01*
X183472000Y-103268500D01*
X183472000Y-103868500D01*
X183470555Y-103897905D01*
X183466236Y-103927027D01*
X183459082Y-103955585D01*
X183449164Y-103983305D01*
X183436576Y-104009919D01*
X183421441Y-104035171D01*
X183403903Y-104058818D01*
X183384132Y-104080632D01*
X183362318Y-104100403D01*
X183338671Y-104117941D01*
X183313419Y-104133076D01*
X183286805Y-104145664D01*
X183259085Y-104155582D01*
X183230527Y-104162736D01*
X183201405Y-104167055D01*
X183172000Y-104168500D01*
X181572000Y-104168500D01*
X181542595Y-104167055D01*
X181513473Y-104162736D01*
X181484915Y-104155582D01*
X181457195Y-104145664D01*
X181430581Y-104133076D01*
X181405329Y-104117941D01*
X181381682Y-104100403D01*
X181359868Y-104080632D01*
X181340097Y-104058818D01*
X181322559Y-104035171D01*
X181307424Y-104009919D01*
X181294836Y-103983305D01*
X181284918Y-103955585D01*
X181277764Y-103927027D01*
X181273445Y-103897905D01*
X181272000Y-103868500D01*
X181272000Y-103268500D01*
X181273445Y-103239095D01*
X181277764Y-103209973D01*
X181284918Y-103181415D01*
X181294836Y-103153695D01*
X181307424Y-103127081D01*
X181322559Y-103101829D01*
X181340097Y-103078182D01*
X181359868Y-103056368D01*
X181381682Y-103036597D01*
X181405329Y-103019059D01*
X181430581Y-103003924D01*
X181457195Y-102991336D01*
X181484915Y-102981418D01*
X181513473Y-102974264D01*
X181542595Y-102969945D01*
X181572000Y-102968500D01*
X183172000Y-102968500D01*
X183201405Y-102969945D01*
X183201405Y-102969945D01*
G37*
D22*
X182372000Y-103568500D03*
D14*
G36*
X180026405Y-102969945D02*
X180055527Y-102974264D01*
X180084085Y-102981418D01*
X180111805Y-102991336D01*
X180138419Y-103003924D01*
X180163671Y-103019059D01*
X180187318Y-103036597D01*
X180209132Y-103056368D01*
X180228903Y-103078182D01*
X180246441Y-103101829D01*
X180261576Y-103127081D01*
X180274164Y-103153695D01*
X180284082Y-103181415D01*
X180291236Y-103209973D01*
X180295555Y-103239095D01*
X180297000Y-103268500D01*
X180297000Y-103868500D01*
X180295555Y-103897905D01*
X180291236Y-103927027D01*
X180284082Y-103955585D01*
X180274164Y-103983305D01*
X180261576Y-104009919D01*
X180246441Y-104035171D01*
X180228903Y-104058818D01*
X180209132Y-104080632D01*
X180187318Y-104100403D01*
X180163671Y-104117941D01*
X180138419Y-104133076D01*
X180111805Y-104145664D01*
X180084085Y-104155582D01*
X180055527Y-104162736D01*
X180026405Y-104167055D01*
X179997000Y-104168500D01*
X178397000Y-104168500D01*
X178367595Y-104167055D01*
X178338473Y-104162736D01*
X178309915Y-104155582D01*
X178282195Y-104145664D01*
X178255581Y-104133076D01*
X178230329Y-104117941D01*
X178206682Y-104100403D01*
X178184868Y-104080632D01*
X178165097Y-104058818D01*
X178147559Y-104035171D01*
X178132424Y-104009919D01*
X178119836Y-103983305D01*
X178109918Y-103955585D01*
X178102764Y-103927027D01*
X178098445Y-103897905D01*
X178097000Y-103868500D01*
X178097000Y-103268500D01*
X178098445Y-103239095D01*
X178102764Y-103209973D01*
X178109918Y-103181415D01*
X178119836Y-103153695D01*
X178132424Y-103127081D01*
X178147559Y-103101829D01*
X178165097Y-103078182D01*
X178184868Y-103056368D01*
X178206682Y-103036597D01*
X178230329Y-103019059D01*
X178255581Y-103003924D01*
X178282195Y-102991336D01*
X178309915Y-102981418D01*
X178338473Y-102974264D01*
X178367595Y-102969945D01*
X178397000Y-102968500D01*
X179997000Y-102968500D01*
X180026405Y-102969945D01*
X180026405Y-102969945D01*
G37*
D22*
X179197000Y-103568500D03*
D14*
G36*
X183201405Y-101509445D02*
X183230527Y-101513764D01*
X183259085Y-101520918D01*
X183286805Y-101530836D01*
X183313419Y-101543424D01*
X183338671Y-101558559D01*
X183362318Y-101576097D01*
X183384132Y-101595868D01*
X183403903Y-101617682D01*
X183421441Y-101641329D01*
X183436576Y-101666581D01*
X183449164Y-101693195D01*
X183459082Y-101720915D01*
X183466236Y-101749473D01*
X183470555Y-101778595D01*
X183472000Y-101808000D01*
X183472000Y-102408000D01*
X183470555Y-102437405D01*
X183466236Y-102466527D01*
X183459082Y-102495085D01*
X183449164Y-102522805D01*
X183436576Y-102549419D01*
X183421441Y-102574671D01*
X183403903Y-102598318D01*
X183384132Y-102620132D01*
X183362318Y-102639903D01*
X183338671Y-102657441D01*
X183313419Y-102672576D01*
X183286805Y-102685164D01*
X183259085Y-102695082D01*
X183230527Y-102702236D01*
X183201405Y-102706555D01*
X183172000Y-102708000D01*
X181572000Y-102708000D01*
X181542595Y-102706555D01*
X181513473Y-102702236D01*
X181484915Y-102695082D01*
X181457195Y-102685164D01*
X181430581Y-102672576D01*
X181405329Y-102657441D01*
X181381682Y-102639903D01*
X181359868Y-102620132D01*
X181340097Y-102598318D01*
X181322559Y-102574671D01*
X181307424Y-102549419D01*
X181294836Y-102522805D01*
X181284918Y-102495085D01*
X181277764Y-102466527D01*
X181273445Y-102437405D01*
X181272000Y-102408000D01*
X181272000Y-101808000D01*
X181273445Y-101778595D01*
X181277764Y-101749473D01*
X181284918Y-101720915D01*
X181294836Y-101693195D01*
X181307424Y-101666581D01*
X181322559Y-101641329D01*
X181340097Y-101617682D01*
X181359868Y-101595868D01*
X181381682Y-101576097D01*
X181405329Y-101558559D01*
X181430581Y-101543424D01*
X181457195Y-101530836D01*
X181484915Y-101520918D01*
X181513473Y-101513764D01*
X181542595Y-101509445D01*
X181572000Y-101508000D01*
X183172000Y-101508000D01*
X183201405Y-101509445D01*
X183201405Y-101509445D01*
G37*
D22*
X182372000Y-102108000D03*
D14*
G36*
X180026405Y-101509445D02*
X180055527Y-101513764D01*
X180084085Y-101520918D01*
X180111805Y-101530836D01*
X180138419Y-101543424D01*
X180163671Y-101558559D01*
X180187318Y-101576097D01*
X180209132Y-101595868D01*
X180228903Y-101617682D01*
X180246441Y-101641329D01*
X180261576Y-101666581D01*
X180274164Y-101693195D01*
X180284082Y-101720915D01*
X180291236Y-101749473D01*
X180295555Y-101778595D01*
X180297000Y-101808000D01*
X180297000Y-102408000D01*
X180295555Y-102437405D01*
X180291236Y-102466527D01*
X180284082Y-102495085D01*
X180274164Y-102522805D01*
X180261576Y-102549419D01*
X180246441Y-102574671D01*
X180228903Y-102598318D01*
X180209132Y-102620132D01*
X180187318Y-102639903D01*
X180163671Y-102657441D01*
X180138419Y-102672576D01*
X180111805Y-102685164D01*
X180084085Y-102695082D01*
X180055527Y-102702236D01*
X180026405Y-102706555D01*
X179997000Y-102708000D01*
X178397000Y-102708000D01*
X178367595Y-102706555D01*
X178338473Y-102702236D01*
X178309915Y-102695082D01*
X178282195Y-102685164D01*
X178255581Y-102672576D01*
X178230329Y-102657441D01*
X178206682Y-102639903D01*
X178184868Y-102620132D01*
X178165097Y-102598318D01*
X178147559Y-102574671D01*
X178132424Y-102549419D01*
X178119836Y-102522805D01*
X178109918Y-102495085D01*
X178102764Y-102466527D01*
X178098445Y-102437405D01*
X178097000Y-102408000D01*
X178097000Y-101808000D01*
X178098445Y-101778595D01*
X178102764Y-101749473D01*
X178109918Y-101720915D01*
X178119836Y-101693195D01*
X178132424Y-101666581D01*
X178147559Y-101641329D01*
X178165097Y-101617682D01*
X178184868Y-101595868D01*
X178206682Y-101576097D01*
X178230329Y-101558559D01*
X178255581Y-101543424D01*
X178282195Y-101530836D01*
X178309915Y-101520918D01*
X178338473Y-101513764D01*
X178367595Y-101509445D01*
X178397000Y-101508000D01*
X179997000Y-101508000D01*
X180026405Y-101509445D01*
X180026405Y-101509445D01*
G37*
D22*
X179197000Y-102108000D03*
G04 #@! TD*
D14*
G04 #@! TO.C,L8*
G36*
X188027405Y-82078445D02*
X188056527Y-82082764D01*
X188085085Y-82089918D01*
X188112805Y-82099836D01*
X188139419Y-82112424D01*
X188164671Y-82127559D01*
X188188318Y-82145097D01*
X188210132Y-82164868D01*
X188229903Y-82186682D01*
X188247441Y-82210329D01*
X188262576Y-82235581D01*
X188275164Y-82262195D01*
X188285082Y-82289915D01*
X188292236Y-82318473D01*
X188296555Y-82347595D01*
X188298000Y-82377000D01*
X188298000Y-82977000D01*
X188296555Y-83006405D01*
X188292236Y-83035527D01*
X188285082Y-83064085D01*
X188275164Y-83091805D01*
X188262576Y-83118419D01*
X188247441Y-83143671D01*
X188229903Y-83167318D01*
X188210132Y-83189132D01*
X188188318Y-83208903D01*
X188164671Y-83226441D01*
X188139419Y-83241576D01*
X188112805Y-83254164D01*
X188085085Y-83264082D01*
X188056527Y-83271236D01*
X188027405Y-83275555D01*
X187998000Y-83277000D01*
X186398000Y-83277000D01*
X186368595Y-83275555D01*
X186339473Y-83271236D01*
X186310915Y-83264082D01*
X186283195Y-83254164D01*
X186256581Y-83241576D01*
X186231329Y-83226441D01*
X186207682Y-83208903D01*
X186185868Y-83189132D01*
X186166097Y-83167318D01*
X186148559Y-83143671D01*
X186133424Y-83118419D01*
X186120836Y-83091805D01*
X186110918Y-83064085D01*
X186103764Y-83035527D01*
X186099445Y-83006405D01*
X186098000Y-82977000D01*
X186098000Y-82377000D01*
X186099445Y-82347595D01*
X186103764Y-82318473D01*
X186110918Y-82289915D01*
X186120836Y-82262195D01*
X186133424Y-82235581D01*
X186148559Y-82210329D01*
X186166097Y-82186682D01*
X186185868Y-82164868D01*
X186207682Y-82145097D01*
X186231329Y-82127559D01*
X186256581Y-82112424D01*
X186283195Y-82099836D01*
X186310915Y-82089918D01*
X186339473Y-82082764D01*
X186368595Y-82078445D01*
X186398000Y-82077000D01*
X187998000Y-82077000D01*
X188027405Y-82078445D01*
X188027405Y-82078445D01*
G37*
D22*
X187198000Y-82677000D03*
D14*
G36*
X191202405Y-82078445D02*
X191231527Y-82082764D01*
X191260085Y-82089918D01*
X191287805Y-82099836D01*
X191314419Y-82112424D01*
X191339671Y-82127559D01*
X191363318Y-82145097D01*
X191385132Y-82164868D01*
X191404903Y-82186682D01*
X191422441Y-82210329D01*
X191437576Y-82235581D01*
X191450164Y-82262195D01*
X191460082Y-82289915D01*
X191467236Y-82318473D01*
X191471555Y-82347595D01*
X191473000Y-82377000D01*
X191473000Y-82977000D01*
X191471555Y-83006405D01*
X191467236Y-83035527D01*
X191460082Y-83064085D01*
X191450164Y-83091805D01*
X191437576Y-83118419D01*
X191422441Y-83143671D01*
X191404903Y-83167318D01*
X191385132Y-83189132D01*
X191363318Y-83208903D01*
X191339671Y-83226441D01*
X191314419Y-83241576D01*
X191287805Y-83254164D01*
X191260085Y-83264082D01*
X191231527Y-83271236D01*
X191202405Y-83275555D01*
X191173000Y-83277000D01*
X189573000Y-83277000D01*
X189543595Y-83275555D01*
X189514473Y-83271236D01*
X189485915Y-83264082D01*
X189458195Y-83254164D01*
X189431581Y-83241576D01*
X189406329Y-83226441D01*
X189382682Y-83208903D01*
X189360868Y-83189132D01*
X189341097Y-83167318D01*
X189323559Y-83143671D01*
X189308424Y-83118419D01*
X189295836Y-83091805D01*
X189285918Y-83064085D01*
X189278764Y-83035527D01*
X189274445Y-83006405D01*
X189273000Y-82977000D01*
X189273000Y-82377000D01*
X189274445Y-82347595D01*
X189278764Y-82318473D01*
X189285918Y-82289915D01*
X189295836Y-82262195D01*
X189308424Y-82235581D01*
X189323559Y-82210329D01*
X189341097Y-82186682D01*
X189360868Y-82164868D01*
X189382682Y-82145097D01*
X189406329Y-82127559D01*
X189431581Y-82112424D01*
X189458195Y-82099836D01*
X189485915Y-82089918D01*
X189514473Y-82082764D01*
X189543595Y-82078445D01*
X189573000Y-82077000D01*
X191173000Y-82077000D01*
X191202405Y-82078445D01*
X191202405Y-82078445D01*
G37*
D22*
X190373000Y-82677000D03*
D14*
G36*
X188027405Y-83538945D02*
X188056527Y-83543264D01*
X188085085Y-83550418D01*
X188112805Y-83560336D01*
X188139419Y-83572924D01*
X188164671Y-83588059D01*
X188188318Y-83605597D01*
X188210132Y-83625368D01*
X188229903Y-83647182D01*
X188247441Y-83670829D01*
X188262576Y-83696081D01*
X188275164Y-83722695D01*
X188285082Y-83750415D01*
X188292236Y-83778973D01*
X188296555Y-83808095D01*
X188298000Y-83837500D01*
X188298000Y-84437500D01*
X188296555Y-84466905D01*
X188292236Y-84496027D01*
X188285082Y-84524585D01*
X188275164Y-84552305D01*
X188262576Y-84578919D01*
X188247441Y-84604171D01*
X188229903Y-84627818D01*
X188210132Y-84649632D01*
X188188318Y-84669403D01*
X188164671Y-84686941D01*
X188139419Y-84702076D01*
X188112805Y-84714664D01*
X188085085Y-84724582D01*
X188056527Y-84731736D01*
X188027405Y-84736055D01*
X187998000Y-84737500D01*
X186398000Y-84737500D01*
X186368595Y-84736055D01*
X186339473Y-84731736D01*
X186310915Y-84724582D01*
X186283195Y-84714664D01*
X186256581Y-84702076D01*
X186231329Y-84686941D01*
X186207682Y-84669403D01*
X186185868Y-84649632D01*
X186166097Y-84627818D01*
X186148559Y-84604171D01*
X186133424Y-84578919D01*
X186120836Y-84552305D01*
X186110918Y-84524585D01*
X186103764Y-84496027D01*
X186099445Y-84466905D01*
X186098000Y-84437500D01*
X186098000Y-83837500D01*
X186099445Y-83808095D01*
X186103764Y-83778973D01*
X186110918Y-83750415D01*
X186120836Y-83722695D01*
X186133424Y-83696081D01*
X186148559Y-83670829D01*
X186166097Y-83647182D01*
X186185868Y-83625368D01*
X186207682Y-83605597D01*
X186231329Y-83588059D01*
X186256581Y-83572924D01*
X186283195Y-83560336D01*
X186310915Y-83550418D01*
X186339473Y-83543264D01*
X186368595Y-83538945D01*
X186398000Y-83537500D01*
X187998000Y-83537500D01*
X188027405Y-83538945D01*
X188027405Y-83538945D01*
G37*
D22*
X187198000Y-84137500D03*
D14*
G36*
X191202405Y-83538945D02*
X191231527Y-83543264D01*
X191260085Y-83550418D01*
X191287805Y-83560336D01*
X191314419Y-83572924D01*
X191339671Y-83588059D01*
X191363318Y-83605597D01*
X191385132Y-83625368D01*
X191404903Y-83647182D01*
X191422441Y-83670829D01*
X191437576Y-83696081D01*
X191450164Y-83722695D01*
X191460082Y-83750415D01*
X191467236Y-83778973D01*
X191471555Y-83808095D01*
X191473000Y-83837500D01*
X191473000Y-84437500D01*
X191471555Y-84466905D01*
X191467236Y-84496027D01*
X191460082Y-84524585D01*
X191450164Y-84552305D01*
X191437576Y-84578919D01*
X191422441Y-84604171D01*
X191404903Y-84627818D01*
X191385132Y-84649632D01*
X191363318Y-84669403D01*
X191339671Y-84686941D01*
X191314419Y-84702076D01*
X191287805Y-84714664D01*
X191260085Y-84724582D01*
X191231527Y-84731736D01*
X191202405Y-84736055D01*
X191173000Y-84737500D01*
X189573000Y-84737500D01*
X189543595Y-84736055D01*
X189514473Y-84731736D01*
X189485915Y-84724582D01*
X189458195Y-84714664D01*
X189431581Y-84702076D01*
X189406329Y-84686941D01*
X189382682Y-84669403D01*
X189360868Y-84649632D01*
X189341097Y-84627818D01*
X189323559Y-84604171D01*
X189308424Y-84578919D01*
X189295836Y-84552305D01*
X189285918Y-84524585D01*
X189278764Y-84496027D01*
X189274445Y-84466905D01*
X189273000Y-84437500D01*
X189273000Y-83837500D01*
X189274445Y-83808095D01*
X189278764Y-83778973D01*
X189285918Y-83750415D01*
X189295836Y-83722695D01*
X189308424Y-83696081D01*
X189323559Y-83670829D01*
X189341097Y-83647182D01*
X189360868Y-83625368D01*
X189382682Y-83605597D01*
X189406329Y-83588059D01*
X189431581Y-83572924D01*
X189458195Y-83560336D01*
X189485915Y-83550418D01*
X189514473Y-83543264D01*
X189543595Y-83538945D01*
X189573000Y-83537500D01*
X191173000Y-83537500D01*
X191202405Y-83538945D01*
X191202405Y-83538945D01*
G37*
D22*
X190373000Y-84137500D03*
G04 #@! TD*
D23*
G04 #@! TO.C,Fix_Hole1*
X188214000Y-102870000D03*
G04 #@! TD*
G04 #@! TO.C,Fix_Hole2*
X228346000Y-102870000D03*
G04 #@! TD*
M02*
