M48
;DRILL file {KiCad 5.0.0-fee4fd1~65~ubuntu17.10.1} date Sun Oct  7 18:53:34 2018
;FORMAT={-:-/ absolute / inch / decimal}
FMAT,2
INCH,TZ
T1C0.0157
T2C0.0300
T3C0.0315
%
G90
G05
M72
T1
X7.1Y-4.155
X7.1295Y-3.945
X7.1498Y-4.1906
X7.26Y-4.29
X7.3259Y-4.7191
X7.355Y-3.355
X7.375Y-4.725
X7.4384Y-3.2284
X7.4791Y-4.9159
X7.5491Y-3.1541
X7.565Y-4.79
X7.6Y-4.63
X7.605Y-4.57
X7.64Y-4.495
X7.71Y-4.785
X7.8Y-4.695
X7.875Y-4.905
X7.915Y-4.6
X7.955Y-4.83
X7.995Y-5.14
X8.005Y-4.94
X8.015Y-4.405
X8.065Y-2.935
X8.065Y-5.145
X8.075Y-2.995
X8.1059Y-4.6142
X8.1219Y-4.77
X8.15Y-4.405
X8.2829Y-4.46
X8.325Y-5.105
X8.35Y-2.88
X8.35Y-5.215
X8.4Y-4.74
X8.4Y-4.88
X8.48Y-4.435
X8.485Y-4.22
X8.5Y-4.63
X8.7Y-4.125
X8.845Y-4.71
X8.855Y-4.28
X8.87Y-4.95
X8.875Y-4.89
X8.9Y-3.355
X8.9197Y-3.198
X8.93Y-4.455
X8.93Y-4.625
X9.025Y-4.91
X9.03Y-4.745
X9.095Y-4.265
X9.105Y-3.32
X9.165Y-4.08
X9.215Y-3.96
X9.315Y-3.95
X9.32Y-4.13
X9.395Y-4.125
T2
X7.805Y-4.05
X7.93Y-4.05
X8.455Y-4.05
X8.605Y-4.05
T3
X7.7Y-4.255
X7.8Y-4.255
X7.9Y-4.255
X8.Y-4.255
X8.1Y-4.255
X8.2Y-4.255
T0
M30
