G04 #@! TF.GenerationSoftware,KiCad,Pcbnew,5.0.0-fee4fd1~65~ubuntu17.10.1*
G04 #@! TF.CreationDate,2018-10-07T18:53:38+01:00*
G04 #@! TF.ProjectId,LED Coaster,4C454420436F61737465722E6B696361,rev?*
G04 #@! TF.SameCoordinates,Original*
G04 #@! TF.FileFunction,Copper,L1,Top,Signal*
G04 #@! TF.FilePolarity,Positive*
%FSLAX46Y46*%
G04 Gerber Fmt 4.6, Leading zero omitted, Abs format (unit mm)*
G04 Created by KiCad (PCBNEW 5.0.0-fee4fd1~65~ubuntu17.10.1) date Sun Oct  7 18:53:38 2018*
%MOMM*%
%LPD*%
G01*
G04 APERTURE LIST*
G04 #@! TA.AperFunction,SMDPad,CuDef*
%ADD10R,1.000000X0.820000*%
G04 #@! TD*
G04 #@! TA.AperFunction,SMDPad,CuDef*
%ADD11R,1.900000X1.900000*%
G04 #@! TD*
G04 #@! TA.AperFunction,SMDPad,CuDef*
%ADD12R,3.700000X1.670000*%
G04 #@! TD*
G04 #@! TA.AperFunction,SMDPad,CuDef*
%ADD13R,2.000000X0.550000*%
G04 #@! TD*
G04 #@! TA.AperFunction,Conductor*
%ADD14C,0.100000*%
G04 #@! TD*
G04 #@! TA.AperFunction,SMDPad,CuDef*
%ADD15C,1.500000*%
G04 #@! TD*
G04 #@! TA.AperFunction,ComponentPad*
%ADD16R,1.700000X1.700000*%
G04 #@! TD*
G04 #@! TA.AperFunction,ComponentPad*
%ADD17C,1.700000*%
G04 #@! TD*
G04 #@! TA.AperFunction,ComponentPad*
%ADD18C,2.000000*%
G04 #@! TD*
G04 #@! TA.AperFunction,SMDPad,CuDef*
%ADD19C,1.300000*%
G04 #@! TD*
G04 #@! TA.AperFunction,SMDPad,CuDef*
%ADD20R,0.900000X0.800000*%
G04 #@! TD*
G04 #@! TA.AperFunction,SMDPad,CuDef*
%ADD21C,0.800000*%
G04 #@! TD*
G04 #@! TA.AperFunction,ViaPad*
%ADD22C,1.000000*%
G04 #@! TD*
G04 #@! TA.AperFunction,ViaPad*
%ADD23C,0.800000*%
G04 #@! TD*
G04 #@! TA.AperFunction,Conductor*
%ADD24C,0.500000*%
G04 #@! TD*
G04 #@! TA.AperFunction,Conductor*
%ADD25C,0.300000*%
G04 #@! TD*
G04 #@! TA.AperFunction,Conductor*
%ADD26C,0.254000*%
G04 #@! TD*
G04 APERTURE END LIST*
D10*
G04 #@! TO.P,C1,1*
G04 #@! TO.N,+5V*
X208280000Y-114135000D03*
G04 #@! TO.P,C1,2*
G04 #@! TO.N,GND*
X208280000Y-115735000D03*
G04 #@! TD*
D11*
G04 #@! TO.P,C2,1*
G04 #@! TO.N,+5V*
X212725000Y-112395000D03*
G04 #@! TO.P,C2,2*
G04 #@! TO.N,GND*
X212725000Y-116840000D03*
G04 #@! TD*
D12*
G04 #@! TO.P,D1,1*
G04 #@! TO.N,+5V*
X209550000Y-120253000D03*
G04 #@! TO.P,D1,2*
G04 #@! TO.N,Net-(D1-Pad2)*
X209550000Y-124603000D03*
G04 #@! TD*
D13*
G04 #@! TO.P,IC1,1*
G04 #@! TO.N,+5V*
X195834000Y-114173000D03*
G04 #@! TO.P,IC1,2*
G04 #@! TO.N,Net-(IC1-Pad2)*
X195834000Y-115443000D03*
G04 #@! TO.P,IC1,3*
G04 #@! TO.N,Net-(IC1-Pad3)*
X195834000Y-116713000D03*
G04 #@! TO.P,IC1,4*
G04 #@! TO.N,Net-(IC1-Pad4)*
X195834000Y-117983000D03*
G04 #@! TO.P,IC1,5*
G04 #@! TO.N,Net-(IC1-Pad5)*
X202946000Y-117983000D03*
G04 #@! TO.P,IC1,6*
G04 #@! TO.N,Net-(IC1-Pad6)*
X202946000Y-116713000D03*
G04 #@! TO.P,IC1,7*
G04 #@! TO.N,Net-(IC1-Pad7)*
X202946000Y-115443000D03*
G04 #@! TO.P,IC1,8*
G04 #@! TO.N,GND*
X202946000Y-114173000D03*
G04 #@! TD*
D14*
G04 #@! TO.N,*
G04 #@! TO.C,J1*
G36*
X216715053Y-129522899D02*
X216751456Y-129528298D01*
X216787154Y-129537240D01*
X216821803Y-129549638D01*
X216855071Y-129565372D01*
X216886636Y-129584292D01*
X216916194Y-129606214D01*
X216943462Y-129630928D01*
X216968176Y-129658195D01*
X216990098Y-129687754D01*
X217009017Y-129719319D01*
X217024752Y-129752587D01*
X217503106Y-130907436D01*
X217515504Y-130942085D01*
X217524445Y-130977783D01*
X217529845Y-131014186D01*
X217531651Y-131050942D01*
X217529845Y-131087698D01*
X217524445Y-131124101D01*
X217515504Y-131159799D01*
X217503106Y-131194448D01*
X217487371Y-131227716D01*
X217468452Y-131259281D01*
X217446530Y-131288840D01*
X217421816Y-131316107D01*
X217394548Y-131340821D01*
X217364990Y-131362743D01*
X217333425Y-131381662D01*
X217300157Y-131397397D01*
X216607247Y-131684410D01*
X216572598Y-131696808D01*
X216536900Y-131705749D01*
X216500498Y-131711149D01*
X216463741Y-131712955D01*
X216426985Y-131711149D01*
X216390582Y-131705750D01*
X216354884Y-131696808D01*
X216320235Y-131684410D01*
X216286967Y-131668676D01*
X216255402Y-131649756D01*
X216225844Y-131627834D01*
X216198576Y-131603120D01*
X216173862Y-131575853D01*
X216151940Y-131546294D01*
X216133021Y-131514729D01*
X216117286Y-131481461D01*
X215638932Y-130326612D01*
X215626534Y-130291963D01*
X215617593Y-130256265D01*
X215612193Y-130219862D01*
X215610387Y-130183106D01*
X215612193Y-130146350D01*
X215617593Y-130109947D01*
X215626534Y-130074249D01*
X215638932Y-130039600D01*
X215654667Y-130006332D01*
X215673586Y-129974767D01*
X215695508Y-129945208D01*
X215720222Y-129917941D01*
X215747490Y-129893227D01*
X215777048Y-129871305D01*
X215808613Y-129852386D01*
X215841881Y-129836651D01*
X216534791Y-129549638D01*
X216569440Y-129537240D01*
X216605138Y-129528299D01*
X216641540Y-129522899D01*
X216678297Y-129521093D01*
X216715053Y-129522899D01*
X216715053Y-129522899D01*
G37*
D15*
G04 #@! TD*
G04 #@! TO.P,J1,*
G04 #@! TO.N,*
X216571019Y-130617024D03*
D14*
G04 #@! TO.N,*
G04 #@! TO.C,J1*
G36*
X223755015Y-126606851D02*
X223791418Y-126612250D01*
X223827116Y-126621192D01*
X223861765Y-126633590D01*
X223895033Y-126649324D01*
X223926598Y-126668244D01*
X223956156Y-126690166D01*
X223983424Y-126714880D01*
X224008138Y-126742147D01*
X224030060Y-126771706D01*
X224048979Y-126803271D01*
X224064714Y-126836539D01*
X224543068Y-127991388D01*
X224555466Y-128026037D01*
X224564407Y-128061735D01*
X224569807Y-128098138D01*
X224571613Y-128134894D01*
X224569807Y-128171650D01*
X224564407Y-128208053D01*
X224555466Y-128243751D01*
X224543068Y-128278400D01*
X224527333Y-128311668D01*
X224508414Y-128343233D01*
X224486492Y-128372792D01*
X224461778Y-128400059D01*
X224434510Y-128424773D01*
X224404952Y-128446695D01*
X224373387Y-128465614D01*
X224340119Y-128481349D01*
X223647209Y-128768362D01*
X223612560Y-128780760D01*
X223576862Y-128789701D01*
X223540460Y-128795101D01*
X223503703Y-128796907D01*
X223466947Y-128795101D01*
X223430544Y-128789702D01*
X223394846Y-128780760D01*
X223360197Y-128768362D01*
X223326929Y-128752628D01*
X223295364Y-128733708D01*
X223265806Y-128711786D01*
X223238538Y-128687072D01*
X223213824Y-128659805D01*
X223191902Y-128630246D01*
X223172983Y-128598681D01*
X223157248Y-128565413D01*
X222678894Y-127410564D01*
X222666496Y-127375915D01*
X222657555Y-127340217D01*
X222652155Y-127303814D01*
X222650349Y-127267058D01*
X222652155Y-127230302D01*
X222657555Y-127193899D01*
X222666496Y-127158201D01*
X222678894Y-127123552D01*
X222694629Y-127090284D01*
X222713548Y-127058719D01*
X222735470Y-127029160D01*
X222760184Y-127001893D01*
X222787452Y-126977179D01*
X222817010Y-126955257D01*
X222848575Y-126936338D01*
X222881843Y-126920603D01*
X223574753Y-126633590D01*
X223609402Y-126621192D01*
X223645100Y-126612251D01*
X223681502Y-126606851D01*
X223718259Y-126605045D01*
X223755015Y-126606851D01*
X223755015Y-126606851D01*
G37*
D15*
G04 #@! TD*
G04 #@! TO.P,J1,*
G04 #@! TO.N,*
X223610981Y-127700976D03*
D14*
G04 #@! TO.N,GND*
G04 #@! TO.C,J1*
G36*
X215402831Y-126354916D02*
X215439234Y-126360315D01*
X215474932Y-126369257D01*
X215509581Y-126381655D01*
X215542849Y-126397389D01*
X215574414Y-126416309D01*
X215603972Y-126438231D01*
X215631240Y-126462945D01*
X215655954Y-126490212D01*
X215677876Y-126519771D01*
X215696795Y-126551336D01*
X215712530Y-126584604D01*
X216190884Y-127739453D01*
X216203282Y-127774102D01*
X216212223Y-127809800D01*
X216217623Y-127846203D01*
X216219429Y-127882959D01*
X216217623Y-127919715D01*
X216212223Y-127956118D01*
X216203282Y-127991816D01*
X216190884Y-128026465D01*
X216175149Y-128059733D01*
X216156230Y-128091298D01*
X216134308Y-128120857D01*
X216109594Y-128148124D01*
X216082326Y-128172838D01*
X216052768Y-128194760D01*
X216021203Y-128213679D01*
X215987935Y-128229414D01*
X215295025Y-128516427D01*
X215260376Y-128528825D01*
X215224678Y-128537766D01*
X215188276Y-128543166D01*
X215151519Y-128544972D01*
X215114763Y-128543166D01*
X215078360Y-128537767D01*
X215042662Y-128528825D01*
X215008013Y-128516427D01*
X214974745Y-128500693D01*
X214943180Y-128481773D01*
X214913622Y-128459851D01*
X214886354Y-128435137D01*
X214861640Y-128407870D01*
X214839718Y-128378311D01*
X214820799Y-128346746D01*
X214805064Y-128313478D01*
X214326710Y-127158629D01*
X214314312Y-127123980D01*
X214305371Y-127088282D01*
X214299971Y-127051879D01*
X214298165Y-127015123D01*
X214299971Y-126978367D01*
X214305371Y-126941964D01*
X214314312Y-126906266D01*
X214326710Y-126871617D01*
X214342445Y-126838349D01*
X214361364Y-126806784D01*
X214383286Y-126777225D01*
X214408000Y-126749958D01*
X214435268Y-126725244D01*
X214464826Y-126703322D01*
X214496391Y-126684403D01*
X214529659Y-126668668D01*
X215222569Y-126381655D01*
X215257218Y-126369257D01*
X215292916Y-126360316D01*
X215329318Y-126354916D01*
X215366075Y-126353110D01*
X215402831Y-126354916D01*
X215402831Y-126354916D01*
G37*
D15*
G04 #@! TD*
G04 #@! TO.P,J1,2*
G04 #@! TO.N,GND*
X215258797Y-127449041D03*
D14*
G04 #@! TO.N,Net-(D1-Pad2)*
G04 #@! TO.C,J1*
G36*
X217803465Y-122194545D02*
X217839867Y-122199945D01*
X217875565Y-122208886D01*
X217910215Y-122221284D01*
X217943482Y-122237019D01*
X217975047Y-122255938D01*
X218004606Y-122277860D01*
X218031873Y-122302574D01*
X218056587Y-122329842D01*
X218078509Y-122359400D01*
X218097429Y-122390966D01*
X218113163Y-122424233D01*
X218400175Y-123117143D01*
X218412573Y-123151793D01*
X218421515Y-123187490D01*
X218426914Y-123223893D01*
X218428720Y-123260649D01*
X218426914Y-123297406D01*
X218421514Y-123333808D01*
X218412573Y-123369506D01*
X218400175Y-123404156D01*
X218384440Y-123437423D01*
X218365521Y-123468988D01*
X218343599Y-123498547D01*
X218318885Y-123525814D01*
X218291617Y-123550528D01*
X218262059Y-123572450D01*
X218230493Y-123591370D01*
X218197226Y-123607104D01*
X217504316Y-123894116D01*
X217469666Y-123906514D01*
X217433969Y-123915456D01*
X217397566Y-123920855D01*
X217360810Y-123922661D01*
X217324053Y-123920855D01*
X217287651Y-123915455D01*
X217251953Y-123906514D01*
X217217303Y-123894116D01*
X217184036Y-123878381D01*
X217152471Y-123859462D01*
X217122912Y-123837540D01*
X217095645Y-123812826D01*
X217070931Y-123785558D01*
X217049009Y-123756000D01*
X217030089Y-123724434D01*
X217014355Y-123691167D01*
X216727343Y-122998257D01*
X216714945Y-122963607D01*
X216706003Y-122927910D01*
X216700604Y-122891507D01*
X216698798Y-122854751D01*
X216700604Y-122817994D01*
X216706004Y-122781592D01*
X216714945Y-122745894D01*
X216727343Y-122711244D01*
X216743078Y-122677977D01*
X216761997Y-122646412D01*
X216783919Y-122616853D01*
X216808633Y-122589586D01*
X216835901Y-122564872D01*
X216865459Y-122542950D01*
X216897025Y-122524030D01*
X216930292Y-122508296D01*
X217623202Y-122221284D01*
X217657852Y-122208886D01*
X217693549Y-122199944D01*
X217729952Y-122194545D01*
X217766708Y-122192739D01*
X217803465Y-122194545D01*
X217803465Y-122194545D01*
G37*
D15*
G04 #@! TD*
G04 #@! TO.P,J1,1*
G04 #@! TO.N,Net-(D1-Pad2)*
X217563759Y-123057700D03*
D14*
G04 #@! TO.N,GND*
G04 #@! TO.C,J1*
G36*
X215691476Y-123069359D02*
X215727878Y-123074759D01*
X215763576Y-123083700D01*
X215798226Y-123096098D01*
X215831493Y-123111833D01*
X215863058Y-123130752D01*
X215892617Y-123152674D01*
X215919884Y-123177388D01*
X215944598Y-123204656D01*
X215966520Y-123234214D01*
X215985440Y-123265780D01*
X216001174Y-123299047D01*
X216288186Y-123991957D01*
X216300584Y-124026607D01*
X216309526Y-124062304D01*
X216314925Y-124098707D01*
X216316731Y-124135463D01*
X216314925Y-124172220D01*
X216309525Y-124208622D01*
X216300584Y-124244320D01*
X216288186Y-124278970D01*
X216272451Y-124312237D01*
X216253532Y-124343802D01*
X216231610Y-124373361D01*
X216206896Y-124400628D01*
X216179628Y-124425342D01*
X216150070Y-124447264D01*
X216118504Y-124466184D01*
X216085237Y-124481918D01*
X215392327Y-124768930D01*
X215357677Y-124781328D01*
X215321980Y-124790270D01*
X215285577Y-124795669D01*
X215248821Y-124797475D01*
X215212064Y-124795669D01*
X215175662Y-124790269D01*
X215139964Y-124781328D01*
X215105314Y-124768930D01*
X215072047Y-124753195D01*
X215040482Y-124734276D01*
X215010923Y-124712354D01*
X214983656Y-124687640D01*
X214958942Y-124660372D01*
X214937020Y-124630814D01*
X214918100Y-124599248D01*
X214902366Y-124565981D01*
X214615354Y-123873071D01*
X214602956Y-123838421D01*
X214594014Y-123802724D01*
X214588615Y-123766321D01*
X214586809Y-123729565D01*
X214588615Y-123692808D01*
X214594015Y-123656406D01*
X214602956Y-123620708D01*
X214615354Y-123586058D01*
X214631089Y-123552791D01*
X214650008Y-123521226D01*
X214671930Y-123491667D01*
X214696644Y-123464400D01*
X214723912Y-123439686D01*
X214753470Y-123417764D01*
X214785036Y-123398844D01*
X214818303Y-123383110D01*
X215511213Y-123096098D01*
X215545863Y-123083700D01*
X215581560Y-123074758D01*
X215617963Y-123069359D01*
X215654719Y-123067553D01*
X215691476Y-123069359D01*
X215691476Y-123069359D01*
G37*
D15*
G04 #@! TD*
G04 #@! TO.P,J1,3*
G04 #@! TO.N,GND*
X215451770Y-123932514D03*
D16*
G04 #@! TO.P,J2,1*
G04 #@! TO.N,Net-(IC1-Pad4)*
X195580000Y-108077000D03*
D17*
G04 #@! TO.P,J2,2*
G04 #@! TO.N,+5V*
X198120000Y-108077000D03*
G04 #@! TO.P,J2,3*
G04 #@! TO.N,GND*
X200660000Y-108077000D03*
G04 #@! TO.P,J2,4*
G04 #@! TO.N,Net-(IC1-Pad7)*
X203200000Y-108077000D03*
G04 #@! TO.P,J2,5*
G04 #@! TO.N,Net-(IC1-Pad6)*
X205740000Y-108077000D03*
G04 #@! TO.P,J2,6*
G04 #@! TO.N,N/C*
X208280000Y-108077000D03*
G04 #@! TD*
D10*
G04 #@! TO.P,R1,2*
G04 #@! TO.N,RED*
X222885000Y-116929000D03*
G04 #@! TO.P,R1,1*
G04 #@! TO.N,Net-(R1-Pad1)*
X222885000Y-118529000D03*
G04 #@! TD*
G04 #@! TO.P,R2,1*
G04 #@! TO.N,Net-(R2-Pad1)*
X223012000Y-113360000D03*
G04 #@! TO.P,R2,2*
G04 #@! TO.N,GREEN*
X223012000Y-111760000D03*
G04 #@! TD*
G04 #@! TO.P,R3,2*
G04 #@! TO.N,BLUE*
X223012000Y-106515000D03*
G04 #@! TO.P,R3,1*
G04 #@! TO.N,Net-(R3-Pad1)*
X223012000Y-108115000D03*
G04 #@! TD*
G04 #@! TO.P,R4,1*
G04 #@! TO.N,Net-(IC1-Pad4)*
X199390000Y-122720000D03*
G04 #@! TO.P,R4,2*
G04 #@! TO.N,+5V*
X199390000Y-121120000D03*
G04 #@! TD*
G04 #@! TO.P,R5,1*
G04 #@! TO.N,Net-(IC1-Pad6)*
X203835000Y-122720000D03*
G04 #@! TO.P,R5,2*
G04 #@! TO.N,+5V*
X203835000Y-121120000D03*
G04 #@! TD*
D18*
G04 #@! TO.P,SW1,1*
G04 #@! TO.N,Net-(IC1-Pad6)*
X198247000Y-102870000D03*
G04 #@! TO.P,SW1,2*
G04 #@! TO.N,GND*
X218567000Y-102870000D03*
G04 #@! TO.P,SW1,1*
G04 #@! TO.N,Net-(IC1-Pad6)*
X201422000Y-102870000D03*
G04 #@! TO.P,SW1,2*
G04 #@! TO.N,GND*
X214757000Y-102870000D03*
G04 #@! TD*
D14*
G04 #@! TO.N,GND*
G04 #@! TO.C,SW2*
G36*
X193864837Y-126029467D02*
X193896385Y-126034147D01*
X193927324Y-126041896D01*
X193957353Y-126052641D01*
X194835039Y-126416190D01*
X194863871Y-126429827D01*
X194891227Y-126446223D01*
X194916845Y-126465223D01*
X194940477Y-126486641D01*
X194961895Y-126510273D01*
X194980895Y-126535891D01*
X194997291Y-126563247D01*
X195010928Y-126592079D01*
X195021673Y-126622108D01*
X195029422Y-126653047D01*
X195034102Y-126684595D01*
X195035667Y-126716451D01*
X195034102Y-126748306D01*
X195029422Y-126779855D01*
X195021673Y-126810793D01*
X195010928Y-126840823D01*
X194762184Y-127441344D01*
X194748547Y-127470176D01*
X194732151Y-127497532D01*
X194713151Y-127523150D01*
X194691733Y-127546782D01*
X194668101Y-127568200D01*
X194642483Y-127587200D01*
X194615127Y-127603596D01*
X194586295Y-127617233D01*
X194556265Y-127627978D01*
X194525327Y-127635727D01*
X194493779Y-127640407D01*
X194461923Y-127641972D01*
X194430067Y-127640407D01*
X194398519Y-127635727D01*
X194367580Y-127627978D01*
X194337551Y-127617233D01*
X193459865Y-127253684D01*
X193431033Y-127240047D01*
X193403677Y-127223651D01*
X193378059Y-127204651D01*
X193354427Y-127183233D01*
X193333009Y-127159601D01*
X193314009Y-127133983D01*
X193297613Y-127106627D01*
X193283976Y-127077795D01*
X193273231Y-127047766D01*
X193265482Y-127016827D01*
X193260802Y-126985279D01*
X193259237Y-126953423D01*
X193260802Y-126921568D01*
X193265482Y-126890019D01*
X193273231Y-126859081D01*
X193283976Y-126829051D01*
X193532720Y-126228530D01*
X193546357Y-126199698D01*
X193562753Y-126172342D01*
X193581753Y-126146724D01*
X193603171Y-126123092D01*
X193626803Y-126101674D01*
X193652421Y-126082674D01*
X193679777Y-126066278D01*
X193708609Y-126052641D01*
X193738639Y-126041896D01*
X193769577Y-126034147D01*
X193801125Y-126029467D01*
X193832981Y-126027902D01*
X193864837Y-126029467D01*
X193864837Y-126029467D01*
G37*
D19*
G04 #@! TD*
G04 #@! TO.P,SW2,1*
G04 #@! TO.N,GND*
X194147452Y-126834937D03*
D14*
G04 #@! TO.N,Net-(IC1-Pad6)*
G04 #@! TO.C,SW2*
G36*
X200793933Y-128899593D02*
X200825481Y-128904273D01*
X200856420Y-128912022D01*
X200886449Y-128922767D01*
X201764135Y-129286316D01*
X201792967Y-129299953D01*
X201820323Y-129316349D01*
X201845941Y-129335349D01*
X201869573Y-129356767D01*
X201890991Y-129380399D01*
X201909991Y-129406017D01*
X201926387Y-129433373D01*
X201940024Y-129462205D01*
X201950769Y-129492234D01*
X201958518Y-129523173D01*
X201963198Y-129554721D01*
X201964763Y-129586577D01*
X201963198Y-129618432D01*
X201958518Y-129649981D01*
X201950769Y-129680919D01*
X201940024Y-129710949D01*
X201691280Y-130311470D01*
X201677643Y-130340302D01*
X201661247Y-130367658D01*
X201642247Y-130393276D01*
X201620829Y-130416908D01*
X201597197Y-130438326D01*
X201571579Y-130457326D01*
X201544223Y-130473722D01*
X201515391Y-130487359D01*
X201485361Y-130498104D01*
X201454423Y-130505853D01*
X201422875Y-130510533D01*
X201391019Y-130512098D01*
X201359163Y-130510533D01*
X201327615Y-130505853D01*
X201296676Y-130498104D01*
X201266647Y-130487359D01*
X200388961Y-130123810D01*
X200360129Y-130110173D01*
X200332773Y-130093777D01*
X200307155Y-130074777D01*
X200283523Y-130053359D01*
X200262105Y-130029727D01*
X200243105Y-130004109D01*
X200226709Y-129976753D01*
X200213072Y-129947921D01*
X200202327Y-129917892D01*
X200194578Y-129886953D01*
X200189898Y-129855405D01*
X200188333Y-129823549D01*
X200189898Y-129791694D01*
X200194578Y-129760145D01*
X200202327Y-129729207D01*
X200213072Y-129699177D01*
X200461816Y-129098656D01*
X200475453Y-129069824D01*
X200491849Y-129042468D01*
X200510849Y-129016850D01*
X200532267Y-128993218D01*
X200555899Y-128971800D01*
X200581517Y-128952800D01*
X200608873Y-128936404D01*
X200637705Y-128922767D01*
X200667735Y-128912022D01*
X200698673Y-128904273D01*
X200730221Y-128899593D01*
X200762077Y-128898028D01*
X200793933Y-128899593D01*
X200793933Y-128899593D01*
G37*
D19*
G04 #@! TD*
G04 #@! TO.P,SW2,2*
G04 #@! TO.N,Net-(IC1-Pad6)*
X201076548Y-129705063D03*
D20*
G04 #@! TO.P,T1,1*
G04 #@! TO.N,Net-(IC1-Pad2)*
X217440000Y-117795000D03*
G04 #@! TO.P,T1,3*
G04 #@! TO.N,GND*
X217440000Y-119695000D03*
G04 #@! TO.P,T1,2*
G04 #@! TO.N,Net-(R1-Pad1)*
X219440000Y-118745000D03*
G04 #@! TD*
G04 #@! TO.P,T2,2*
G04 #@! TO.N,Net-(R2-Pad1)*
X219440000Y-113411000D03*
G04 #@! TO.P,T2,3*
G04 #@! TO.N,GND*
X217440000Y-114361000D03*
G04 #@! TO.P,T2,1*
G04 #@! TO.N,Net-(IC1-Pad3)*
X217440000Y-112461000D03*
G04 #@! TD*
G04 #@! TO.P,T3,1*
G04 #@! TO.N,Net-(IC1-Pad5)*
X217440000Y-107127000D03*
G04 #@! TO.P,T3,3*
G04 #@! TO.N,GND*
X217440000Y-109027000D03*
G04 #@! TO.P,T3,2*
G04 #@! TO.N,Net-(R3-Pad1)*
X219440000Y-108077000D03*
G04 #@! TD*
D14*
G04 #@! TO.N,BLUE*
G04 #@! TO.C,L1*
G36*
X210523603Y-75610463D02*
X210543018Y-75613343D01*
X210562057Y-75618112D01*
X210580537Y-75624724D01*
X210598279Y-75633116D01*
X210615114Y-75643206D01*
X210630879Y-75654898D01*
X210645421Y-75668079D01*
X210658602Y-75682621D01*
X210670294Y-75698386D01*
X210680384Y-75715221D01*
X210688776Y-75732963D01*
X210695388Y-75751443D01*
X210700157Y-75770482D01*
X210703037Y-75789897D01*
X210704000Y-75809500D01*
X210704000Y-76209500D01*
X210703037Y-76229103D01*
X210700157Y-76248518D01*
X210695388Y-76267557D01*
X210688776Y-76286037D01*
X210680384Y-76303779D01*
X210670294Y-76320614D01*
X210658602Y-76336379D01*
X210645421Y-76350921D01*
X210630879Y-76364102D01*
X210615114Y-76375794D01*
X210598279Y-76385884D01*
X210580537Y-76394276D01*
X210562057Y-76400888D01*
X210543018Y-76405657D01*
X210523603Y-76408537D01*
X210504000Y-76409500D01*
X209104000Y-76409500D01*
X209084397Y-76408537D01*
X209064982Y-76405657D01*
X209045943Y-76400888D01*
X209027463Y-76394276D01*
X209009721Y-76385884D01*
X208992886Y-76375794D01*
X208977121Y-76364102D01*
X208962579Y-76350921D01*
X208949398Y-76336379D01*
X208937706Y-76320614D01*
X208927616Y-76303779D01*
X208919224Y-76286037D01*
X208912612Y-76267557D01*
X208907843Y-76248518D01*
X208904963Y-76229103D01*
X208904000Y-76209500D01*
X208904000Y-75809500D01*
X208904963Y-75789897D01*
X208907843Y-75770482D01*
X208912612Y-75751443D01*
X208919224Y-75732963D01*
X208927616Y-75715221D01*
X208937706Y-75698386D01*
X208949398Y-75682621D01*
X208962579Y-75668079D01*
X208977121Y-75654898D01*
X208992886Y-75643206D01*
X209009721Y-75633116D01*
X209027463Y-75624724D01*
X209045943Y-75618112D01*
X209064982Y-75613343D01*
X209084397Y-75610463D01*
X209104000Y-75609500D01*
X210504000Y-75609500D01*
X210523603Y-75610463D01*
X210523603Y-75610463D01*
G37*
D21*
G04 #@! TD*
G04 #@! TO.P,L1,4*
G04 #@! TO.N,BLUE*
X209804000Y-76009500D03*
D14*
G04 #@! TO.N,GREEN*
G04 #@! TO.C,L1*
G36*
X207348603Y-75610463D02*
X207368018Y-75613343D01*
X207387057Y-75618112D01*
X207405537Y-75624724D01*
X207423279Y-75633116D01*
X207440114Y-75643206D01*
X207455879Y-75654898D01*
X207470421Y-75668079D01*
X207483602Y-75682621D01*
X207495294Y-75698386D01*
X207505384Y-75715221D01*
X207513776Y-75732963D01*
X207520388Y-75751443D01*
X207525157Y-75770482D01*
X207528037Y-75789897D01*
X207529000Y-75809500D01*
X207529000Y-76209500D01*
X207528037Y-76229103D01*
X207525157Y-76248518D01*
X207520388Y-76267557D01*
X207513776Y-76286037D01*
X207505384Y-76303779D01*
X207495294Y-76320614D01*
X207483602Y-76336379D01*
X207470421Y-76350921D01*
X207455879Y-76364102D01*
X207440114Y-76375794D01*
X207423279Y-76385884D01*
X207405537Y-76394276D01*
X207387057Y-76400888D01*
X207368018Y-76405657D01*
X207348603Y-76408537D01*
X207329000Y-76409500D01*
X205929000Y-76409500D01*
X205909397Y-76408537D01*
X205889982Y-76405657D01*
X205870943Y-76400888D01*
X205852463Y-76394276D01*
X205834721Y-76385884D01*
X205817886Y-76375794D01*
X205802121Y-76364102D01*
X205787579Y-76350921D01*
X205774398Y-76336379D01*
X205762706Y-76320614D01*
X205752616Y-76303779D01*
X205744224Y-76286037D01*
X205737612Y-76267557D01*
X205732843Y-76248518D01*
X205729963Y-76229103D01*
X205729000Y-76209500D01*
X205729000Y-75809500D01*
X205729963Y-75789897D01*
X205732843Y-75770482D01*
X205737612Y-75751443D01*
X205744224Y-75732963D01*
X205752616Y-75715221D01*
X205762706Y-75698386D01*
X205774398Y-75682621D01*
X205787579Y-75668079D01*
X205802121Y-75654898D01*
X205817886Y-75643206D01*
X205834721Y-75633116D01*
X205852463Y-75624724D01*
X205870943Y-75618112D01*
X205889982Y-75613343D01*
X205909397Y-75610463D01*
X205929000Y-75609500D01*
X207329000Y-75609500D01*
X207348603Y-75610463D01*
X207348603Y-75610463D01*
G37*
D21*
G04 #@! TD*
G04 #@! TO.P,L1,3*
G04 #@! TO.N,GREEN*
X206629000Y-76009500D03*
D14*
G04 #@! TO.N,+5V*
G04 #@! TO.C,L1*
G36*
X210523603Y-74149963D02*
X210543018Y-74152843D01*
X210562057Y-74157612D01*
X210580537Y-74164224D01*
X210598279Y-74172616D01*
X210615114Y-74182706D01*
X210630879Y-74194398D01*
X210645421Y-74207579D01*
X210658602Y-74222121D01*
X210670294Y-74237886D01*
X210680384Y-74254721D01*
X210688776Y-74272463D01*
X210695388Y-74290943D01*
X210700157Y-74309982D01*
X210703037Y-74329397D01*
X210704000Y-74349000D01*
X210704000Y-74749000D01*
X210703037Y-74768603D01*
X210700157Y-74788018D01*
X210695388Y-74807057D01*
X210688776Y-74825537D01*
X210680384Y-74843279D01*
X210670294Y-74860114D01*
X210658602Y-74875879D01*
X210645421Y-74890421D01*
X210630879Y-74903602D01*
X210615114Y-74915294D01*
X210598279Y-74925384D01*
X210580537Y-74933776D01*
X210562057Y-74940388D01*
X210543018Y-74945157D01*
X210523603Y-74948037D01*
X210504000Y-74949000D01*
X209104000Y-74949000D01*
X209084397Y-74948037D01*
X209064982Y-74945157D01*
X209045943Y-74940388D01*
X209027463Y-74933776D01*
X209009721Y-74925384D01*
X208992886Y-74915294D01*
X208977121Y-74903602D01*
X208962579Y-74890421D01*
X208949398Y-74875879D01*
X208937706Y-74860114D01*
X208927616Y-74843279D01*
X208919224Y-74825537D01*
X208912612Y-74807057D01*
X208907843Y-74788018D01*
X208904963Y-74768603D01*
X208904000Y-74749000D01*
X208904000Y-74349000D01*
X208904963Y-74329397D01*
X208907843Y-74309982D01*
X208912612Y-74290943D01*
X208919224Y-74272463D01*
X208927616Y-74254721D01*
X208937706Y-74237886D01*
X208949398Y-74222121D01*
X208962579Y-74207579D01*
X208977121Y-74194398D01*
X208992886Y-74182706D01*
X209009721Y-74172616D01*
X209027463Y-74164224D01*
X209045943Y-74157612D01*
X209064982Y-74152843D01*
X209084397Y-74149963D01*
X209104000Y-74149000D01*
X210504000Y-74149000D01*
X210523603Y-74149963D01*
X210523603Y-74149963D01*
G37*
D21*
G04 #@! TD*
G04 #@! TO.P,L1,2*
G04 #@! TO.N,+5V*
X209804000Y-74549000D03*
D14*
G04 #@! TO.N,RED*
G04 #@! TO.C,L1*
G36*
X207348603Y-74149963D02*
X207368018Y-74152843D01*
X207387057Y-74157612D01*
X207405537Y-74164224D01*
X207423279Y-74172616D01*
X207440114Y-74182706D01*
X207455879Y-74194398D01*
X207470421Y-74207579D01*
X207483602Y-74222121D01*
X207495294Y-74237886D01*
X207505384Y-74254721D01*
X207513776Y-74272463D01*
X207520388Y-74290943D01*
X207525157Y-74309982D01*
X207528037Y-74329397D01*
X207529000Y-74349000D01*
X207529000Y-74749000D01*
X207528037Y-74768603D01*
X207525157Y-74788018D01*
X207520388Y-74807057D01*
X207513776Y-74825537D01*
X207505384Y-74843279D01*
X207495294Y-74860114D01*
X207483602Y-74875879D01*
X207470421Y-74890421D01*
X207455879Y-74903602D01*
X207440114Y-74915294D01*
X207423279Y-74925384D01*
X207405537Y-74933776D01*
X207387057Y-74940388D01*
X207368018Y-74945157D01*
X207348603Y-74948037D01*
X207329000Y-74949000D01*
X205929000Y-74949000D01*
X205909397Y-74948037D01*
X205889982Y-74945157D01*
X205870943Y-74940388D01*
X205852463Y-74933776D01*
X205834721Y-74925384D01*
X205817886Y-74915294D01*
X205802121Y-74903602D01*
X205787579Y-74890421D01*
X205774398Y-74875879D01*
X205762706Y-74860114D01*
X205752616Y-74843279D01*
X205744224Y-74825537D01*
X205737612Y-74807057D01*
X205732843Y-74788018D01*
X205729963Y-74768603D01*
X205729000Y-74749000D01*
X205729000Y-74349000D01*
X205729963Y-74329397D01*
X205732843Y-74309982D01*
X205737612Y-74290943D01*
X205744224Y-74272463D01*
X205752616Y-74254721D01*
X205762706Y-74237886D01*
X205774398Y-74222121D01*
X205787579Y-74207579D01*
X205802121Y-74194398D01*
X205817886Y-74182706D01*
X205834721Y-74172616D01*
X205852463Y-74164224D01*
X205870943Y-74157612D01*
X205889982Y-74152843D01*
X205909397Y-74149963D01*
X205929000Y-74149000D01*
X207329000Y-74149000D01*
X207348603Y-74149963D01*
X207348603Y-74149963D01*
G37*
D21*
G04 #@! TD*
G04 #@! TO.P,L1,1*
G04 #@! TO.N,RED*
X206629000Y-74549000D03*
D14*
G04 #@! TO.N,RED*
G04 #@! TO.C,L2*
G36*
X226906603Y-82277963D02*
X226926018Y-82280843D01*
X226945057Y-82285612D01*
X226963537Y-82292224D01*
X226981279Y-82300616D01*
X226998114Y-82310706D01*
X227013879Y-82322398D01*
X227028421Y-82335579D01*
X227041602Y-82350121D01*
X227053294Y-82365886D01*
X227063384Y-82382721D01*
X227071776Y-82400463D01*
X227078388Y-82418943D01*
X227083157Y-82437982D01*
X227086037Y-82457397D01*
X227087000Y-82477000D01*
X227087000Y-82877000D01*
X227086037Y-82896603D01*
X227083157Y-82916018D01*
X227078388Y-82935057D01*
X227071776Y-82953537D01*
X227063384Y-82971279D01*
X227053294Y-82988114D01*
X227041602Y-83003879D01*
X227028421Y-83018421D01*
X227013879Y-83031602D01*
X226998114Y-83043294D01*
X226981279Y-83053384D01*
X226963537Y-83061776D01*
X226945057Y-83068388D01*
X226926018Y-83073157D01*
X226906603Y-83076037D01*
X226887000Y-83077000D01*
X225487000Y-83077000D01*
X225467397Y-83076037D01*
X225447982Y-83073157D01*
X225428943Y-83068388D01*
X225410463Y-83061776D01*
X225392721Y-83053384D01*
X225375886Y-83043294D01*
X225360121Y-83031602D01*
X225345579Y-83018421D01*
X225332398Y-83003879D01*
X225320706Y-82988114D01*
X225310616Y-82971279D01*
X225302224Y-82953537D01*
X225295612Y-82935057D01*
X225290843Y-82916018D01*
X225287963Y-82896603D01*
X225287000Y-82877000D01*
X225287000Y-82477000D01*
X225287963Y-82457397D01*
X225290843Y-82437982D01*
X225295612Y-82418943D01*
X225302224Y-82400463D01*
X225310616Y-82382721D01*
X225320706Y-82365886D01*
X225332398Y-82350121D01*
X225345579Y-82335579D01*
X225360121Y-82322398D01*
X225375886Y-82310706D01*
X225392721Y-82300616D01*
X225410463Y-82292224D01*
X225428943Y-82285612D01*
X225447982Y-82280843D01*
X225467397Y-82277963D01*
X225487000Y-82277000D01*
X226887000Y-82277000D01*
X226906603Y-82277963D01*
X226906603Y-82277963D01*
G37*
D21*
G04 #@! TD*
G04 #@! TO.P,L2,1*
G04 #@! TO.N,RED*
X226187000Y-82677000D03*
D14*
G04 #@! TO.N,+5V*
G04 #@! TO.C,L2*
G36*
X230081603Y-82277963D02*
X230101018Y-82280843D01*
X230120057Y-82285612D01*
X230138537Y-82292224D01*
X230156279Y-82300616D01*
X230173114Y-82310706D01*
X230188879Y-82322398D01*
X230203421Y-82335579D01*
X230216602Y-82350121D01*
X230228294Y-82365886D01*
X230238384Y-82382721D01*
X230246776Y-82400463D01*
X230253388Y-82418943D01*
X230258157Y-82437982D01*
X230261037Y-82457397D01*
X230262000Y-82477000D01*
X230262000Y-82877000D01*
X230261037Y-82896603D01*
X230258157Y-82916018D01*
X230253388Y-82935057D01*
X230246776Y-82953537D01*
X230238384Y-82971279D01*
X230228294Y-82988114D01*
X230216602Y-83003879D01*
X230203421Y-83018421D01*
X230188879Y-83031602D01*
X230173114Y-83043294D01*
X230156279Y-83053384D01*
X230138537Y-83061776D01*
X230120057Y-83068388D01*
X230101018Y-83073157D01*
X230081603Y-83076037D01*
X230062000Y-83077000D01*
X228662000Y-83077000D01*
X228642397Y-83076037D01*
X228622982Y-83073157D01*
X228603943Y-83068388D01*
X228585463Y-83061776D01*
X228567721Y-83053384D01*
X228550886Y-83043294D01*
X228535121Y-83031602D01*
X228520579Y-83018421D01*
X228507398Y-83003879D01*
X228495706Y-82988114D01*
X228485616Y-82971279D01*
X228477224Y-82953537D01*
X228470612Y-82935057D01*
X228465843Y-82916018D01*
X228462963Y-82896603D01*
X228462000Y-82877000D01*
X228462000Y-82477000D01*
X228462963Y-82457397D01*
X228465843Y-82437982D01*
X228470612Y-82418943D01*
X228477224Y-82400463D01*
X228485616Y-82382721D01*
X228495706Y-82365886D01*
X228507398Y-82350121D01*
X228520579Y-82335579D01*
X228535121Y-82322398D01*
X228550886Y-82310706D01*
X228567721Y-82300616D01*
X228585463Y-82292224D01*
X228603943Y-82285612D01*
X228622982Y-82280843D01*
X228642397Y-82277963D01*
X228662000Y-82277000D01*
X230062000Y-82277000D01*
X230081603Y-82277963D01*
X230081603Y-82277963D01*
G37*
D21*
G04 #@! TD*
G04 #@! TO.P,L2,2*
G04 #@! TO.N,+5V*
X229362000Y-82677000D03*
D14*
G04 #@! TO.N,GREEN*
G04 #@! TO.C,L2*
G36*
X226906603Y-83738463D02*
X226926018Y-83741343D01*
X226945057Y-83746112D01*
X226963537Y-83752724D01*
X226981279Y-83761116D01*
X226998114Y-83771206D01*
X227013879Y-83782898D01*
X227028421Y-83796079D01*
X227041602Y-83810621D01*
X227053294Y-83826386D01*
X227063384Y-83843221D01*
X227071776Y-83860963D01*
X227078388Y-83879443D01*
X227083157Y-83898482D01*
X227086037Y-83917897D01*
X227087000Y-83937500D01*
X227087000Y-84337500D01*
X227086037Y-84357103D01*
X227083157Y-84376518D01*
X227078388Y-84395557D01*
X227071776Y-84414037D01*
X227063384Y-84431779D01*
X227053294Y-84448614D01*
X227041602Y-84464379D01*
X227028421Y-84478921D01*
X227013879Y-84492102D01*
X226998114Y-84503794D01*
X226981279Y-84513884D01*
X226963537Y-84522276D01*
X226945057Y-84528888D01*
X226926018Y-84533657D01*
X226906603Y-84536537D01*
X226887000Y-84537500D01*
X225487000Y-84537500D01*
X225467397Y-84536537D01*
X225447982Y-84533657D01*
X225428943Y-84528888D01*
X225410463Y-84522276D01*
X225392721Y-84513884D01*
X225375886Y-84503794D01*
X225360121Y-84492102D01*
X225345579Y-84478921D01*
X225332398Y-84464379D01*
X225320706Y-84448614D01*
X225310616Y-84431779D01*
X225302224Y-84414037D01*
X225295612Y-84395557D01*
X225290843Y-84376518D01*
X225287963Y-84357103D01*
X225287000Y-84337500D01*
X225287000Y-83937500D01*
X225287963Y-83917897D01*
X225290843Y-83898482D01*
X225295612Y-83879443D01*
X225302224Y-83860963D01*
X225310616Y-83843221D01*
X225320706Y-83826386D01*
X225332398Y-83810621D01*
X225345579Y-83796079D01*
X225360121Y-83782898D01*
X225375886Y-83771206D01*
X225392721Y-83761116D01*
X225410463Y-83752724D01*
X225428943Y-83746112D01*
X225447982Y-83741343D01*
X225467397Y-83738463D01*
X225487000Y-83737500D01*
X226887000Y-83737500D01*
X226906603Y-83738463D01*
X226906603Y-83738463D01*
G37*
D21*
G04 #@! TD*
G04 #@! TO.P,L2,3*
G04 #@! TO.N,GREEN*
X226187000Y-84137500D03*
D14*
G04 #@! TO.N,BLUE*
G04 #@! TO.C,L2*
G36*
X230081603Y-83738463D02*
X230101018Y-83741343D01*
X230120057Y-83746112D01*
X230138537Y-83752724D01*
X230156279Y-83761116D01*
X230173114Y-83771206D01*
X230188879Y-83782898D01*
X230203421Y-83796079D01*
X230216602Y-83810621D01*
X230228294Y-83826386D01*
X230238384Y-83843221D01*
X230246776Y-83860963D01*
X230253388Y-83879443D01*
X230258157Y-83898482D01*
X230261037Y-83917897D01*
X230262000Y-83937500D01*
X230262000Y-84337500D01*
X230261037Y-84357103D01*
X230258157Y-84376518D01*
X230253388Y-84395557D01*
X230246776Y-84414037D01*
X230238384Y-84431779D01*
X230228294Y-84448614D01*
X230216602Y-84464379D01*
X230203421Y-84478921D01*
X230188879Y-84492102D01*
X230173114Y-84503794D01*
X230156279Y-84513884D01*
X230138537Y-84522276D01*
X230120057Y-84528888D01*
X230101018Y-84533657D01*
X230081603Y-84536537D01*
X230062000Y-84537500D01*
X228662000Y-84537500D01*
X228642397Y-84536537D01*
X228622982Y-84533657D01*
X228603943Y-84528888D01*
X228585463Y-84522276D01*
X228567721Y-84513884D01*
X228550886Y-84503794D01*
X228535121Y-84492102D01*
X228520579Y-84478921D01*
X228507398Y-84464379D01*
X228495706Y-84448614D01*
X228485616Y-84431779D01*
X228477224Y-84414037D01*
X228470612Y-84395557D01*
X228465843Y-84376518D01*
X228462963Y-84357103D01*
X228462000Y-84337500D01*
X228462000Y-83937500D01*
X228462963Y-83917897D01*
X228465843Y-83898482D01*
X228470612Y-83879443D01*
X228477224Y-83860963D01*
X228485616Y-83843221D01*
X228495706Y-83826386D01*
X228507398Y-83810621D01*
X228520579Y-83796079D01*
X228535121Y-83782898D01*
X228550886Y-83771206D01*
X228567721Y-83761116D01*
X228585463Y-83752724D01*
X228603943Y-83746112D01*
X228622982Y-83741343D01*
X228642397Y-83738463D01*
X228662000Y-83737500D01*
X230062000Y-83737500D01*
X230081603Y-83738463D01*
X230081603Y-83738463D01*
G37*
D21*
G04 #@! TD*
G04 #@! TO.P,L2,4*
G04 #@! TO.N,BLUE*
X229362000Y-84137500D03*
D14*
G04 #@! TO.N,BLUE*
G04 #@! TO.C,L3*
G36*
X238082603Y-103169463D02*
X238102018Y-103172343D01*
X238121057Y-103177112D01*
X238139537Y-103183724D01*
X238157279Y-103192116D01*
X238174114Y-103202206D01*
X238189879Y-103213898D01*
X238204421Y-103227079D01*
X238217602Y-103241621D01*
X238229294Y-103257386D01*
X238239384Y-103274221D01*
X238247776Y-103291963D01*
X238254388Y-103310443D01*
X238259157Y-103329482D01*
X238262037Y-103348897D01*
X238263000Y-103368500D01*
X238263000Y-103768500D01*
X238262037Y-103788103D01*
X238259157Y-103807518D01*
X238254388Y-103826557D01*
X238247776Y-103845037D01*
X238239384Y-103862779D01*
X238229294Y-103879614D01*
X238217602Y-103895379D01*
X238204421Y-103909921D01*
X238189879Y-103923102D01*
X238174114Y-103934794D01*
X238157279Y-103944884D01*
X238139537Y-103953276D01*
X238121057Y-103959888D01*
X238102018Y-103964657D01*
X238082603Y-103967537D01*
X238063000Y-103968500D01*
X236663000Y-103968500D01*
X236643397Y-103967537D01*
X236623982Y-103964657D01*
X236604943Y-103959888D01*
X236586463Y-103953276D01*
X236568721Y-103944884D01*
X236551886Y-103934794D01*
X236536121Y-103923102D01*
X236521579Y-103909921D01*
X236508398Y-103895379D01*
X236496706Y-103879614D01*
X236486616Y-103862779D01*
X236478224Y-103845037D01*
X236471612Y-103826557D01*
X236466843Y-103807518D01*
X236463963Y-103788103D01*
X236463000Y-103768500D01*
X236463000Y-103368500D01*
X236463963Y-103348897D01*
X236466843Y-103329482D01*
X236471612Y-103310443D01*
X236478224Y-103291963D01*
X236486616Y-103274221D01*
X236496706Y-103257386D01*
X236508398Y-103241621D01*
X236521579Y-103227079D01*
X236536121Y-103213898D01*
X236551886Y-103202206D01*
X236568721Y-103192116D01*
X236586463Y-103183724D01*
X236604943Y-103177112D01*
X236623982Y-103172343D01*
X236643397Y-103169463D01*
X236663000Y-103168500D01*
X238063000Y-103168500D01*
X238082603Y-103169463D01*
X238082603Y-103169463D01*
G37*
D21*
G04 #@! TD*
G04 #@! TO.P,L3,4*
G04 #@! TO.N,BLUE*
X237363000Y-103568500D03*
D14*
G04 #@! TO.N,GREEN*
G04 #@! TO.C,L3*
G36*
X234907603Y-103169463D02*
X234927018Y-103172343D01*
X234946057Y-103177112D01*
X234964537Y-103183724D01*
X234982279Y-103192116D01*
X234999114Y-103202206D01*
X235014879Y-103213898D01*
X235029421Y-103227079D01*
X235042602Y-103241621D01*
X235054294Y-103257386D01*
X235064384Y-103274221D01*
X235072776Y-103291963D01*
X235079388Y-103310443D01*
X235084157Y-103329482D01*
X235087037Y-103348897D01*
X235088000Y-103368500D01*
X235088000Y-103768500D01*
X235087037Y-103788103D01*
X235084157Y-103807518D01*
X235079388Y-103826557D01*
X235072776Y-103845037D01*
X235064384Y-103862779D01*
X235054294Y-103879614D01*
X235042602Y-103895379D01*
X235029421Y-103909921D01*
X235014879Y-103923102D01*
X234999114Y-103934794D01*
X234982279Y-103944884D01*
X234964537Y-103953276D01*
X234946057Y-103959888D01*
X234927018Y-103964657D01*
X234907603Y-103967537D01*
X234888000Y-103968500D01*
X233488000Y-103968500D01*
X233468397Y-103967537D01*
X233448982Y-103964657D01*
X233429943Y-103959888D01*
X233411463Y-103953276D01*
X233393721Y-103944884D01*
X233376886Y-103934794D01*
X233361121Y-103923102D01*
X233346579Y-103909921D01*
X233333398Y-103895379D01*
X233321706Y-103879614D01*
X233311616Y-103862779D01*
X233303224Y-103845037D01*
X233296612Y-103826557D01*
X233291843Y-103807518D01*
X233288963Y-103788103D01*
X233288000Y-103768500D01*
X233288000Y-103368500D01*
X233288963Y-103348897D01*
X233291843Y-103329482D01*
X233296612Y-103310443D01*
X233303224Y-103291963D01*
X233311616Y-103274221D01*
X233321706Y-103257386D01*
X233333398Y-103241621D01*
X233346579Y-103227079D01*
X233361121Y-103213898D01*
X233376886Y-103202206D01*
X233393721Y-103192116D01*
X233411463Y-103183724D01*
X233429943Y-103177112D01*
X233448982Y-103172343D01*
X233468397Y-103169463D01*
X233488000Y-103168500D01*
X234888000Y-103168500D01*
X234907603Y-103169463D01*
X234907603Y-103169463D01*
G37*
D21*
G04 #@! TD*
G04 #@! TO.P,L3,3*
G04 #@! TO.N,GREEN*
X234188000Y-103568500D03*
D14*
G04 #@! TO.N,+5V*
G04 #@! TO.C,L3*
G36*
X238082603Y-101708963D02*
X238102018Y-101711843D01*
X238121057Y-101716612D01*
X238139537Y-101723224D01*
X238157279Y-101731616D01*
X238174114Y-101741706D01*
X238189879Y-101753398D01*
X238204421Y-101766579D01*
X238217602Y-101781121D01*
X238229294Y-101796886D01*
X238239384Y-101813721D01*
X238247776Y-101831463D01*
X238254388Y-101849943D01*
X238259157Y-101868982D01*
X238262037Y-101888397D01*
X238263000Y-101908000D01*
X238263000Y-102308000D01*
X238262037Y-102327603D01*
X238259157Y-102347018D01*
X238254388Y-102366057D01*
X238247776Y-102384537D01*
X238239384Y-102402279D01*
X238229294Y-102419114D01*
X238217602Y-102434879D01*
X238204421Y-102449421D01*
X238189879Y-102462602D01*
X238174114Y-102474294D01*
X238157279Y-102484384D01*
X238139537Y-102492776D01*
X238121057Y-102499388D01*
X238102018Y-102504157D01*
X238082603Y-102507037D01*
X238063000Y-102508000D01*
X236663000Y-102508000D01*
X236643397Y-102507037D01*
X236623982Y-102504157D01*
X236604943Y-102499388D01*
X236586463Y-102492776D01*
X236568721Y-102484384D01*
X236551886Y-102474294D01*
X236536121Y-102462602D01*
X236521579Y-102449421D01*
X236508398Y-102434879D01*
X236496706Y-102419114D01*
X236486616Y-102402279D01*
X236478224Y-102384537D01*
X236471612Y-102366057D01*
X236466843Y-102347018D01*
X236463963Y-102327603D01*
X236463000Y-102308000D01*
X236463000Y-101908000D01*
X236463963Y-101888397D01*
X236466843Y-101868982D01*
X236471612Y-101849943D01*
X236478224Y-101831463D01*
X236486616Y-101813721D01*
X236496706Y-101796886D01*
X236508398Y-101781121D01*
X236521579Y-101766579D01*
X236536121Y-101753398D01*
X236551886Y-101741706D01*
X236568721Y-101731616D01*
X236586463Y-101723224D01*
X236604943Y-101716612D01*
X236623982Y-101711843D01*
X236643397Y-101708963D01*
X236663000Y-101708000D01*
X238063000Y-101708000D01*
X238082603Y-101708963D01*
X238082603Y-101708963D01*
G37*
D21*
G04 #@! TD*
G04 #@! TO.P,L3,2*
G04 #@! TO.N,+5V*
X237363000Y-102108000D03*
D14*
G04 #@! TO.N,RED*
G04 #@! TO.C,L3*
G36*
X234907603Y-101708963D02*
X234927018Y-101711843D01*
X234946057Y-101716612D01*
X234964537Y-101723224D01*
X234982279Y-101731616D01*
X234999114Y-101741706D01*
X235014879Y-101753398D01*
X235029421Y-101766579D01*
X235042602Y-101781121D01*
X235054294Y-101796886D01*
X235064384Y-101813721D01*
X235072776Y-101831463D01*
X235079388Y-101849943D01*
X235084157Y-101868982D01*
X235087037Y-101888397D01*
X235088000Y-101908000D01*
X235088000Y-102308000D01*
X235087037Y-102327603D01*
X235084157Y-102347018D01*
X235079388Y-102366057D01*
X235072776Y-102384537D01*
X235064384Y-102402279D01*
X235054294Y-102419114D01*
X235042602Y-102434879D01*
X235029421Y-102449421D01*
X235014879Y-102462602D01*
X234999114Y-102474294D01*
X234982279Y-102484384D01*
X234964537Y-102492776D01*
X234946057Y-102499388D01*
X234927018Y-102504157D01*
X234907603Y-102507037D01*
X234888000Y-102508000D01*
X233488000Y-102508000D01*
X233468397Y-102507037D01*
X233448982Y-102504157D01*
X233429943Y-102499388D01*
X233411463Y-102492776D01*
X233393721Y-102484384D01*
X233376886Y-102474294D01*
X233361121Y-102462602D01*
X233346579Y-102449421D01*
X233333398Y-102434879D01*
X233321706Y-102419114D01*
X233311616Y-102402279D01*
X233303224Y-102384537D01*
X233296612Y-102366057D01*
X233291843Y-102347018D01*
X233288963Y-102327603D01*
X233288000Y-102308000D01*
X233288000Y-101908000D01*
X233288963Y-101888397D01*
X233291843Y-101868982D01*
X233296612Y-101849943D01*
X233303224Y-101831463D01*
X233311616Y-101813721D01*
X233321706Y-101796886D01*
X233333398Y-101781121D01*
X233346579Y-101766579D01*
X233361121Y-101753398D01*
X233376886Y-101741706D01*
X233393721Y-101731616D01*
X233411463Y-101723224D01*
X233429943Y-101716612D01*
X233448982Y-101711843D01*
X233468397Y-101708963D01*
X233488000Y-101708000D01*
X234888000Y-101708000D01*
X234907603Y-101708963D01*
X234907603Y-101708963D01*
G37*
D21*
G04 #@! TD*
G04 #@! TO.P,L3,1*
G04 #@! TO.N,RED*
X234188000Y-102108000D03*
D14*
G04 #@! TO.N,RED*
G04 #@! TO.C,L4*
G36*
X226906603Y-121266963D02*
X226926018Y-121269843D01*
X226945057Y-121274612D01*
X226963537Y-121281224D01*
X226981279Y-121289616D01*
X226998114Y-121299706D01*
X227013879Y-121311398D01*
X227028421Y-121324579D01*
X227041602Y-121339121D01*
X227053294Y-121354886D01*
X227063384Y-121371721D01*
X227071776Y-121389463D01*
X227078388Y-121407943D01*
X227083157Y-121426982D01*
X227086037Y-121446397D01*
X227087000Y-121466000D01*
X227087000Y-121866000D01*
X227086037Y-121885603D01*
X227083157Y-121905018D01*
X227078388Y-121924057D01*
X227071776Y-121942537D01*
X227063384Y-121960279D01*
X227053294Y-121977114D01*
X227041602Y-121992879D01*
X227028421Y-122007421D01*
X227013879Y-122020602D01*
X226998114Y-122032294D01*
X226981279Y-122042384D01*
X226963537Y-122050776D01*
X226945057Y-122057388D01*
X226926018Y-122062157D01*
X226906603Y-122065037D01*
X226887000Y-122066000D01*
X225487000Y-122066000D01*
X225467397Y-122065037D01*
X225447982Y-122062157D01*
X225428943Y-122057388D01*
X225410463Y-122050776D01*
X225392721Y-122042384D01*
X225375886Y-122032294D01*
X225360121Y-122020602D01*
X225345579Y-122007421D01*
X225332398Y-121992879D01*
X225320706Y-121977114D01*
X225310616Y-121960279D01*
X225302224Y-121942537D01*
X225295612Y-121924057D01*
X225290843Y-121905018D01*
X225287963Y-121885603D01*
X225287000Y-121866000D01*
X225287000Y-121466000D01*
X225287963Y-121446397D01*
X225290843Y-121426982D01*
X225295612Y-121407943D01*
X225302224Y-121389463D01*
X225310616Y-121371721D01*
X225320706Y-121354886D01*
X225332398Y-121339121D01*
X225345579Y-121324579D01*
X225360121Y-121311398D01*
X225375886Y-121299706D01*
X225392721Y-121289616D01*
X225410463Y-121281224D01*
X225428943Y-121274612D01*
X225447982Y-121269843D01*
X225467397Y-121266963D01*
X225487000Y-121266000D01*
X226887000Y-121266000D01*
X226906603Y-121266963D01*
X226906603Y-121266963D01*
G37*
D21*
G04 #@! TD*
G04 #@! TO.P,L4,1*
G04 #@! TO.N,RED*
X226187000Y-121666000D03*
D14*
G04 #@! TO.N,+5V*
G04 #@! TO.C,L4*
G36*
X230081603Y-121266963D02*
X230101018Y-121269843D01*
X230120057Y-121274612D01*
X230138537Y-121281224D01*
X230156279Y-121289616D01*
X230173114Y-121299706D01*
X230188879Y-121311398D01*
X230203421Y-121324579D01*
X230216602Y-121339121D01*
X230228294Y-121354886D01*
X230238384Y-121371721D01*
X230246776Y-121389463D01*
X230253388Y-121407943D01*
X230258157Y-121426982D01*
X230261037Y-121446397D01*
X230262000Y-121466000D01*
X230262000Y-121866000D01*
X230261037Y-121885603D01*
X230258157Y-121905018D01*
X230253388Y-121924057D01*
X230246776Y-121942537D01*
X230238384Y-121960279D01*
X230228294Y-121977114D01*
X230216602Y-121992879D01*
X230203421Y-122007421D01*
X230188879Y-122020602D01*
X230173114Y-122032294D01*
X230156279Y-122042384D01*
X230138537Y-122050776D01*
X230120057Y-122057388D01*
X230101018Y-122062157D01*
X230081603Y-122065037D01*
X230062000Y-122066000D01*
X228662000Y-122066000D01*
X228642397Y-122065037D01*
X228622982Y-122062157D01*
X228603943Y-122057388D01*
X228585463Y-122050776D01*
X228567721Y-122042384D01*
X228550886Y-122032294D01*
X228535121Y-122020602D01*
X228520579Y-122007421D01*
X228507398Y-121992879D01*
X228495706Y-121977114D01*
X228485616Y-121960279D01*
X228477224Y-121942537D01*
X228470612Y-121924057D01*
X228465843Y-121905018D01*
X228462963Y-121885603D01*
X228462000Y-121866000D01*
X228462000Y-121466000D01*
X228462963Y-121446397D01*
X228465843Y-121426982D01*
X228470612Y-121407943D01*
X228477224Y-121389463D01*
X228485616Y-121371721D01*
X228495706Y-121354886D01*
X228507398Y-121339121D01*
X228520579Y-121324579D01*
X228535121Y-121311398D01*
X228550886Y-121299706D01*
X228567721Y-121289616D01*
X228585463Y-121281224D01*
X228603943Y-121274612D01*
X228622982Y-121269843D01*
X228642397Y-121266963D01*
X228662000Y-121266000D01*
X230062000Y-121266000D01*
X230081603Y-121266963D01*
X230081603Y-121266963D01*
G37*
D21*
G04 #@! TD*
G04 #@! TO.P,L4,2*
G04 #@! TO.N,+5V*
X229362000Y-121666000D03*
D14*
G04 #@! TO.N,GREEN*
G04 #@! TO.C,L4*
G36*
X226906603Y-122727463D02*
X226926018Y-122730343D01*
X226945057Y-122735112D01*
X226963537Y-122741724D01*
X226981279Y-122750116D01*
X226998114Y-122760206D01*
X227013879Y-122771898D01*
X227028421Y-122785079D01*
X227041602Y-122799621D01*
X227053294Y-122815386D01*
X227063384Y-122832221D01*
X227071776Y-122849963D01*
X227078388Y-122868443D01*
X227083157Y-122887482D01*
X227086037Y-122906897D01*
X227087000Y-122926500D01*
X227087000Y-123326500D01*
X227086037Y-123346103D01*
X227083157Y-123365518D01*
X227078388Y-123384557D01*
X227071776Y-123403037D01*
X227063384Y-123420779D01*
X227053294Y-123437614D01*
X227041602Y-123453379D01*
X227028421Y-123467921D01*
X227013879Y-123481102D01*
X226998114Y-123492794D01*
X226981279Y-123502884D01*
X226963537Y-123511276D01*
X226945057Y-123517888D01*
X226926018Y-123522657D01*
X226906603Y-123525537D01*
X226887000Y-123526500D01*
X225487000Y-123526500D01*
X225467397Y-123525537D01*
X225447982Y-123522657D01*
X225428943Y-123517888D01*
X225410463Y-123511276D01*
X225392721Y-123502884D01*
X225375886Y-123492794D01*
X225360121Y-123481102D01*
X225345579Y-123467921D01*
X225332398Y-123453379D01*
X225320706Y-123437614D01*
X225310616Y-123420779D01*
X225302224Y-123403037D01*
X225295612Y-123384557D01*
X225290843Y-123365518D01*
X225287963Y-123346103D01*
X225287000Y-123326500D01*
X225287000Y-122926500D01*
X225287963Y-122906897D01*
X225290843Y-122887482D01*
X225295612Y-122868443D01*
X225302224Y-122849963D01*
X225310616Y-122832221D01*
X225320706Y-122815386D01*
X225332398Y-122799621D01*
X225345579Y-122785079D01*
X225360121Y-122771898D01*
X225375886Y-122760206D01*
X225392721Y-122750116D01*
X225410463Y-122741724D01*
X225428943Y-122735112D01*
X225447982Y-122730343D01*
X225467397Y-122727463D01*
X225487000Y-122726500D01*
X226887000Y-122726500D01*
X226906603Y-122727463D01*
X226906603Y-122727463D01*
G37*
D21*
G04 #@! TD*
G04 #@! TO.P,L4,3*
G04 #@! TO.N,GREEN*
X226187000Y-123126500D03*
D14*
G04 #@! TO.N,BLUE*
G04 #@! TO.C,L4*
G36*
X230081603Y-122727463D02*
X230101018Y-122730343D01*
X230120057Y-122735112D01*
X230138537Y-122741724D01*
X230156279Y-122750116D01*
X230173114Y-122760206D01*
X230188879Y-122771898D01*
X230203421Y-122785079D01*
X230216602Y-122799621D01*
X230228294Y-122815386D01*
X230238384Y-122832221D01*
X230246776Y-122849963D01*
X230253388Y-122868443D01*
X230258157Y-122887482D01*
X230261037Y-122906897D01*
X230262000Y-122926500D01*
X230262000Y-123326500D01*
X230261037Y-123346103D01*
X230258157Y-123365518D01*
X230253388Y-123384557D01*
X230246776Y-123403037D01*
X230238384Y-123420779D01*
X230228294Y-123437614D01*
X230216602Y-123453379D01*
X230203421Y-123467921D01*
X230188879Y-123481102D01*
X230173114Y-123492794D01*
X230156279Y-123502884D01*
X230138537Y-123511276D01*
X230120057Y-123517888D01*
X230101018Y-123522657D01*
X230081603Y-123525537D01*
X230062000Y-123526500D01*
X228662000Y-123526500D01*
X228642397Y-123525537D01*
X228622982Y-123522657D01*
X228603943Y-123517888D01*
X228585463Y-123511276D01*
X228567721Y-123502884D01*
X228550886Y-123492794D01*
X228535121Y-123481102D01*
X228520579Y-123467921D01*
X228507398Y-123453379D01*
X228495706Y-123437614D01*
X228485616Y-123420779D01*
X228477224Y-123403037D01*
X228470612Y-123384557D01*
X228465843Y-123365518D01*
X228462963Y-123346103D01*
X228462000Y-123326500D01*
X228462000Y-122926500D01*
X228462963Y-122906897D01*
X228465843Y-122887482D01*
X228470612Y-122868443D01*
X228477224Y-122849963D01*
X228485616Y-122832221D01*
X228495706Y-122815386D01*
X228507398Y-122799621D01*
X228520579Y-122785079D01*
X228535121Y-122771898D01*
X228550886Y-122760206D01*
X228567721Y-122750116D01*
X228585463Y-122741724D01*
X228603943Y-122735112D01*
X228622982Y-122730343D01*
X228642397Y-122727463D01*
X228662000Y-122726500D01*
X230062000Y-122726500D01*
X230081603Y-122727463D01*
X230081603Y-122727463D01*
G37*
D21*
G04 #@! TD*
G04 #@! TO.P,L4,4*
G04 #@! TO.N,BLUE*
X229362000Y-123126500D03*
D14*
G04 #@! TO.N,BLUE*
G04 #@! TO.C,L5*
G36*
X210523603Y-130728463D02*
X210543018Y-130731343D01*
X210562057Y-130736112D01*
X210580537Y-130742724D01*
X210598279Y-130751116D01*
X210615114Y-130761206D01*
X210630879Y-130772898D01*
X210645421Y-130786079D01*
X210658602Y-130800621D01*
X210670294Y-130816386D01*
X210680384Y-130833221D01*
X210688776Y-130850963D01*
X210695388Y-130869443D01*
X210700157Y-130888482D01*
X210703037Y-130907897D01*
X210704000Y-130927500D01*
X210704000Y-131327500D01*
X210703037Y-131347103D01*
X210700157Y-131366518D01*
X210695388Y-131385557D01*
X210688776Y-131404037D01*
X210680384Y-131421779D01*
X210670294Y-131438614D01*
X210658602Y-131454379D01*
X210645421Y-131468921D01*
X210630879Y-131482102D01*
X210615114Y-131493794D01*
X210598279Y-131503884D01*
X210580537Y-131512276D01*
X210562057Y-131518888D01*
X210543018Y-131523657D01*
X210523603Y-131526537D01*
X210504000Y-131527500D01*
X209104000Y-131527500D01*
X209084397Y-131526537D01*
X209064982Y-131523657D01*
X209045943Y-131518888D01*
X209027463Y-131512276D01*
X209009721Y-131503884D01*
X208992886Y-131493794D01*
X208977121Y-131482102D01*
X208962579Y-131468921D01*
X208949398Y-131454379D01*
X208937706Y-131438614D01*
X208927616Y-131421779D01*
X208919224Y-131404037D01*
X208912612Y-131385557D01*
X208907843Y-131366518D01*
X208904963Y-131347103D01*
X208904000Y-131327500D01*
X208904000Y-130927500D01*
X208904963Y-130907897D01*
X208907843Y-130888482D01*
X208912612Y-130869443D01*
X208919224Y-130850963D01*
X208927616Y-130833221D01*
X208937706Y-130816386D01*
X208949398Y-130800621D01*
X208962579Y-130786079D01*
X208977121Y-130772898D01*
X208992886Y-130761206D01*
X209009721Y-130751116D01*
X209027463Y-130742724D01*
X209045943Y-130736112D01*
X209064982Y-130731343D01*
X209084397Y-130728463D01*
X209104000Y-130727500D01*
X210504000Y-130727500D01*
X210523603Y-130728463D01*
X210523603Y-130728463D01*
G37*
D21*
G04 #@! TD*
G04 #@! TO.P,L5,4*
G04 #@! TO.N,BLUE*
X209804000Y-131127500D03*
D14*
G04 #@! TO.N,GREEN*
G04 #@! TO.C,L5*
G36*
X207348603Y-130728463D02*
X207368018Y-130731343D01*
X207387057Y-130736112D01*
X207405537Y-130742724D01*
X207423279Y-130751116D01*
X207440114Y-130761206D01*
X207455879Y-130772898D01*
X207470421Y-130786079D01*
X207483602Y-130800621D01*
X207495294Y-130816386D01*
X207505384Y-130833221D01*
X207513776Y-130850963D01*
X207520388Y-130869443D01*
X207525157Y-130888482D01*
X207528037Y-130907897D01*
X207529000Y-130927500D01*
X207529000Y-131327500D01*
X207528037Y-131347103D01*
X207525157Y-131366518D01*
X207520388Y-131385557D01*
X207513776Y-131404037D01*
X207505384Y-131421779D01*
X207495294Y-131438614D01*
X207483602Y-131454379D01*
X207470421Y-131468921D01*
X207455879Y-131482102D01*
X207440114Y-131493794D01*
X207423279Y-131503884D01*
X207405537Y-131512276D01*
X207387057Y-131518888D01*
X207368018Y-131523657D01*
X207348603Y-131526537D01*
X207329000Y-131527500D01*
X205929000Y-131527500D01*
X205909397Y-131526537D01*
X205889982Y-131523657D01*
X205870943Y-131518888D01*
X205852463Y-131512276D01*
X205834721Y-131503884D01*
X205817886Y-131493794D01*
X205802121Y-131482102D01*
X205787579Y-131468921D01*
X205774398Y-131454379D01*
X205762706Y-131438614D01*
X205752616Y-131421779D01*
X205744224Y-131404037D01*
X205737612Y-131385557D01*
X205732843Y-131366518D01*
X205729963Y-131347103D01*
X205729000Y-131327500D01*
X205729000Y-130927500D01*
X205729963Y-130907897D01*
X205732843Y-130888482D01*
X205737612Y-130869443D01*
X205744224Y-130850963D01*
X205752616Y-130833221D01*
X205762706Y-130816386D01*
X205774398Y-130800621D01*
X205787579Y-130786079D01*
X205802121Y-130772898D01*
X205817886Y-130761206D01*
X205834721Y-130751116D01*
X205852463Y-130742724D01*
X205870943Y-130736112D01*
X205889982Y-130731343D01*
X205909397Y-130728463D01*
X205929000Y-130727500D01*
X207329000Y-130727500D01*
X207348603Y-130728463D01*
X207348603Y-130728463D01*
G37*
D21*
G04 #@! TD*
G04 #@! TO.P,L5,3*
G04 #@! TO.N,GREEN*
X206629000Y-131127500D03*
D14*
G04 #@! TO.N,+5V*
G04 #@! TO.C,L5*
G36*
X210523603Y-129267963D02*
X210543018Y-129270843D01*
X210562057Y-129275612D01*
X210580537Y-129282224D01*
X210598279Y-129290616D01*
X210615114Y-129300706D01*
X210630879Y-129312398D01*
X210645421Y-129325579D01*
X210658602Y-129340121D01*
X210670294Y-129355886D01*
X210680384Y-129372721D01*
X210688776Y-129390463D01*
X210695388Y-129408943D01*
X210700157Y-129427982D01*
X210703037Y-129447397D01*
X210704000Y-129467000D01*
X210704000Y-129867000D01*
X210703037Y-129886603D01*
X210700157Y-129906018D01*
X210695388Y-129925057D01*
X210688776Y-129943537D01*
X210680384Y-129961279D01*
X210670294Y-129978114D01*
X210658602Y-129993879D01*
X210645421Y-130008421D01*
X210630879Y-130021602D01*
X210615114Y-130033294D01*
X210598279Y-130043384D01*
X210580537Y-130051776D01*
X210562057Y-130058388D01*
X210543018Y-130063157D01*
X210523603Y-130066037D01*
X210504000Y-130067000D01*
X209104000Y-130067000D01*
X209084397Y-130066037D01*
X209064982Y-130063157D01*
X209045943Y-130058388D01*
X209027463Y-130051776D01*
X209009721Y-130043384D01*
X208992886Y-130033294D01*
X208977121Y-130021602D01*
X208962579Y-130008421D01*
X208949398Y-129993879D01*
X208937706Y-129978114D01*
X208927616Y-129961279D01*
X208919224Y-129943537D01*
X208912612Y-129925057D01*
X208907843Y-129906018D01*
X208904963Y-129886603D01*
X208904000Y-129867000D01*
X208904000Y-129467000D01*
X208904963Y-129447397D01*
X208907843Y-129427982D01*
X208912612Y-129408943D01*
X208919224Y-129390463D01*
X208927616Y-129372721D01*
X208937706Y-129355886D01*
X208949398Y-129340121D01*
X208962579Y-129325579D01*
X208977121Y-129312398D01*
X208992886Y-129300706D01*
X209009721Y-129290616D01*
X209027463Y-129282224D01*
X209045943Y-129275612D01*
X209064982Y-129270843D01*
X209084397Y-129267963D01*
X209104000Y-129267000D01*
X210504000Y-129267000D01*
X210523603Y-129267963D01*
X210523603Y-129267963D01*
G37*
D21*
G04 #@! TD*
G04 #@! TO.P,L5,2*
G04 #@! TO.N,+5V*
X209804000Y-129667000D03*
D14*
G04 #@! TO.N,RED*
G04 #@! TO.C,L5*
G36*
X207348603Y-129267963D02*
X207368018Y-129270843D01*
X207387057Y-129275612D01*
X207405537Y-129282224D01*
X207423279Y-129290616D01*
X207440114Y-129300706D01*
X207455879Y-129312398D01*
X207470421Y-129325579D01*
X207483602Y-129340121D01*
X207495294Y-129355886D01*
X207505384Y-129372721D01*
X207513776Y-129390463D01*
X207520388Y-129408943D01*
X207525157Y-129427982D01*
X207528037Y-129447397D01*
X207529000Y-129467000D01*
X207529000Y-129867000D01*
X207528037Y-129886603D01*
X207525157Y-129906018D01*
X207520388Y-129925057D01*
X207513776Y-129943537D01*
X207505384Y-129961279D01*
X207495294Y-129978114D01*
X207483602Y-129993879D01*
X207470421Y-130008421D01*
X207455879Y-130021602D01*
X207440114Y-130033294D01*
X207423279Y-130043384D01*
X207405537Y-130051776D01*
X207387057Y-130058388D01*
X207368018Y-130063157D01*
X207348603Y-130066037D01*
X207329000Y-130067000D01*
X205929000Y-130067000D01*
X205909397Y-130066037D01*
X205889982Y-130063157D01*
X205870943Y-130058388D01*
X205852463Y-130051776D01*
X205834721Y-130043384D01*
X205817886Y-130033294D01*
X205802121Y-130021602D01*
X205787579Y-130008421D01*
X205774398Y-129993879D01*
X205762706Y-129978114D01*
X205752616Y-129961279D01*
X205744224Y-129943537D01*
X205737612Y-129925057D01*
X205732843Y-129906018D01*
X205729963Y-129886603D01*
X205729000Y-129867000D01*
X205729000Y-129467000D01*
X205729963Y-129447397D01*
X205732843Y-129427982D01*
X205737612Y-129408943D01*
X205744224Y-129390463D01*
X205752616Y-129372721D01*
X205762706Y-129355886D01*
X205774398Y-129340121D01*
X205787579Y-129325579D01*
X205802121Y-129312398D01*
X205817886Y-129300706D01*
X205834721Y-129290616D01*
X205852463Y-129282224D01*
X205870943Y-129275612D01*
X205889982Y-129270843D01*
X205909397Y-129267963D01*
X205929000Y-129267000D01*
X207329000Y-129267000D01*
X207348603Y-129267963D01*
X207348603Y-129267963D01*
G37*
D21*
G04 #@! TD*
G04 #@! TO.P,L5,1*
G04 #@! TO.N,RED*
X206629000Y-129667000D03*
D14*
G04 #@! TO.N,RED*
G04 #@! TO.C,L6*
G36*
X188044603Y-121266963D02*
X188064018Y-121269843D01*
X188083057Y-121274612D01*
X188101537Y-121281224D01*
X188119279Y-121289616D01*
X188136114Y-121299706D01*
X188151879Y-121311398D01*
X188166421Y-121324579D01*
X188179602Y-121339121D01*
X188191294Y-121354886D01*
X188201384Y-121371721D01*
X188209776Y-121389463D01*
X188216388Y-121407943D01*
X188221157Y-121426982D01*
X188224037Y-121446397D01*
X188225000Y-121466000D01*
X188225000Y-121866000D01*
X188224037Y-121885603D01*
X188221157Y-121905018D01*
X188216388Y-121924057D01*
X188209776Y-121942537D01*
X188201384Y-121960279D01*
X188191294Y-121977114D01*
X188179602Y-121992879D01*
X188166421Y-122007421D01*
X188151879Y-122020602D01*
X188136114Y-122032294D01*
X188119279Y-122042384D01*
X188101537Y-122050776D01*
X188083057Y-122057388D01*
X188064018Y-122062157D01*
X188044603Y-122065037D01*
X188025000Y-122066000D01*
X186625000Y-122066000D01*
X186605397Y-122065037D01*
X186585982Y-122062157D01*
X186566943Y-122057388D01*
X186548463Y-122050776D01*
X186530721Y-122042384D01*
X186513886Y-122032294D01*
X186498121Y-122020602D01*
X186483579Y-122007421D01*
X186470398Y-121992879D01*
X186458706Y-121977114D01*
X186448616Y-121960279D01*
X186440224Y-121942537D01*
X186433612Y-121924057D01*
X186428843Y-121905018D01*
X186425963Y-121885603D01*
X186425000Y-121866000D01*
X186425000Y-121466000D01*
X186425963Y-121446397D01*
X186428843Y-121426982D01*
X186433612Y-121407943D01*
X186440224Y-121389463D01*
X186448616Y-121371721D01*
X186458706Y-121354886D01*
X186470398Y-121339121D01*
X186483579Y-121324579D01*
X186498121Y-121311398D01*
X186513886Y-121299706D01*
X186530721Y-121289616D01*
X186548463Y-121281224D01*
X186566943Y-121274612D01*
X186585982Y-121269843D01*
X186605397Y-121266963D01*
X186625000Y-121266000D01*
X188025000Y-121266000D01*
X188044603Y-121266963D01*
X188044603Y-121266963D01*
G37*
D21*
G04 #@! TD*
G04 #@! TO.P,L6,1*
G04 #@! TO.N,RED*
X187325000Y-121666000D03*
D14*
G04 #@! TO.N,+5V*
G04 #@! TO.C,L6*
G36*
X191219603Y-121266963D02*
X191239018Y-121269843D01*
X191258057Y-121274612D01*
X191276537Y-121281224D01*
X191294279Y-121289616D01*
X191311114Y-121299706D01*
X191326879Y-121311398D01*
X191341421Y-121324579D01*
X191354602Y-121339121D01*
X191366294Y-121354886D01*
X191376384Y-121371721D01*
X191384776Y-121389463D01*
X191391388Y-121407943D01*
X191396157Y-121426982D01*
X191399037Y-121446397D01*
X191400000Y-121466000D01*
X191400000Y-121866000D01*
X191399037Y-121885603D01*
X191396157Y-121905018D01*
X191391388Y-121924057D01*
X191384776Y-121942537D01*
X191376384Y-121960279D01*
X191366294Y-121977114D01*
X191354602Y-121992879D01*
X191341421Y-122007421D01*
X191326879Y-122020602D01*
X191311114Y-122032294D01*
X191294279Y-122042384D01*
X191276537Y-122050776D01*
X191258057Y-122057388D01*
X191239018Y-122062157D01*
X191219603Y-122065037D01*
X191200000Y-122066000D01*
X189800000Y-122066000D01*
X189780397Y-122065037D01*
X189760982Y-122062157D01*
X189741943Y-122057388D01*
X189723463Y-122050776D01*
X189705721Y-122042384D01*
X189688886Y-122032294D01*
X189673121Y-122020602D01*
X189658579Y-122007421D01*
X189645398Y-121992879D01*
X189633706Y-121977114D01*
X189623616Y-121960279D01*
X189615224Y-121942537D01*
X189608612Y-121924057D01*
X189603843Y-121905018D01*
X189600963Y-121885603D01*
X189600000Y-121866000D01*
X189600000Y-121466000D01*
X189600963Y-121446397D01*
X189603843Y-121426982D01*
X189608612Y-121407943D01*
X189615224Y-121389463D01*
X189623616Y-121371721D01*
X189633706Y-121354886D01*
X189645398Y-121339121D01*
X189658579Y-121324579D01*
X189673121Y-121311398D01*
X189688886Y-121299706D01*
X189705721Y-121289616D01*
X189723463Y-121281224D01*
X189741943Y-121274612D01*
X189760982Y-121269843D01*
X189780397Y-121266963D01*
X189800000Y-121266000D01*
X191200000Y-121266000D01*
X191219603Y-121266963D01*
X191219603Y-121266963D01*
G37*
D21*
G04 #@! TD*
G04 #@! TO.P,L6,2*
G04 #@! TO.N,+5V*
X190500000Y-121666000D03*
D14*
G04 #@! TO.N,GREEN*
G04 #@! TO.C,L6*
G36*
X188044603Y-122727463D02*
X188064018Y-122730343D01*
X188083057Y-122735112D01*
X188101537Y-122741724D01*
X188119279Y-122750116D01*
X188136114Y-122760206D01*
X188151879Y-122771898D01*
X188166421Y-122785079D01*
X188179602Y-122799621D01*
X188191294Y-122815386D01*
X188201384Y-122832221D01*
X188209776Y-122849963D01*
X188216388Y-122868443D01*
X188221157Y-122887482D01*
X188224037Y-122906897D01*
X188225000Y-122926500D01*
X188225000Y-123326500D01*
X188224037Y-123346103D01*
X188221157Y-123365518D01*
X188216388Y-123384557D01*
X188209776Y-123403037D01*
X188201384Y-123420779D01*
X188191294Y-123437614D01*
X188179602Y-123453379D01*
X188166421Y-123467921D01*
X188151879Y-123481102D01*
X188136114Y-123492794D01*
X188119279Y-123502884D01*
X188101537Y-123511276D01*
X188083057Y-123517888D01*
X188064018Y-123522657D01*
X188044603Y-123525537D01*
X188025000Y-123526500D01*
X186625000Y-123526500D01*
X186605397Y-123525537D01*
X186585982Y-123522657D01*
X186566943Y-123517888D01*
X186548463Y-123511276D01*
X186530721Y-123502884D01*
X186513886Y-123492794D01*
X186498121Y-123481102D01*
X186483579Y-123467921D01*
X186470398Y-123453379D01*
X186458706Y-123437614D01*
X186448616Y-123420779D01*
X186440224Y-123403037D01*
X186433612Y-123384557D01*
X186428843Y-123365518D01*
X186425963Y-123346103D01*
X186425000Y-123326500D01*
X186425000Y-122926500D01*
X186425963Y-122906897D01*
X186428843Y-122887482D01*
X186433612Y-122868443D01*
X186440224Y-122849963D01*
X186448616Y-122832221D01*
X186458706Y-122815386D01*
X186470398Y-122799621D01*
X186483579Y-122785079D01*
X186498121Y-122771898D01*
X186513886Y-122760206D01*
X186530721Y-122750116D01*
X186548463Y-122741724D01*
X186566943Y-122735112D01*
X186585982Y-122730343D01*
X186605397Y-122727463D01*
X186625000Y-122726500D01*
X188025000Y-122726500D01*
X188044603Y-122727463D01*
X188044603Y-122727463D01*
G37*
D21*
G04 #@! TD*
G04 #@! TO.P,L6,3*
G04 #@! TO.N,GREEN*
X187325000Y-123126500D03*
D14*
G04 #@! TO.N,BLUE*
G04 #@! TO.C,L6*
G36*
X191219603Y-122727463D02*
X191239018Y-122730343D01*
X191258057Y-122735112D01*
X191276537Y-122741724D01*
X191294279Y-122750116D01*
X191311114Y-122760206D01*
X191326879Y-122771898D01*
X191341421Y-122785079D01*
X191354602Y-122799621D01*
X191366294Y-122815386D01*
X191376384Y-122832221D01*
X191384776Y-122849963D01*
X191391388Y-122868443D01*
X191396157Y-122887482D01*
X191399037Y-122906897D01*
X191400000Y-122926500D01*
X191400000Y-123326500D01*
X191399037Y-123346103D01*
X191396157Y-123365518D01*
X191391388Y-123384557D01*
X191384776Y-123403037D01*
X191376384Y-123420779D01*
X191366294Y-123437614D01*
X191354602Y-123453379D01*
X191341421Y-123467921D01*
X191326879Y-123481102D01*
X191311114Y-123492794D01*
X191294279Y-123502884D01*
X191276537Y-123511276D01*
X191258057Y-123517888D01*
X191239018Y-123522657D01*
X191219603Y-123525537D01*
X191200000Y-123526500D01*
X189800000Y-123526500D01*
X189780397Y-123525537D01*
X189760982Y-123522657D01*
X189741943Y-123517888D01*
X189723463Y-123511276D01*
X189705721Y-123502884D01*
X189688886Y-123492794D01*
X189673121Y-123481102D01*
X189658579Y-123467921D01*
X189645398Y-123453379D01*
X189633706Y-123437614D01*
X189623616Y-123420779D01*
X189615224Y-123403037D01*
X189608612Y-123384557D01*
X189603843Y-123365518D01*
X189600963Y-123346103D01*
X189600000Y-123326500D01*
X189600000Y-122926500D01*
X189600963Y-122906897D01*
X189603843Y-122887482D01*
X189608612Y-122868443D01*
X189615224Y-122849963D01*
X189623616Y-122832221D01*
X189633706Y-122815386D01*
X189645398Y-122799621D01*
X189658579Y-122785079D01*
X189673121Y-122771898D01*
X189688886Y-122760206D01*
X189705721Y-122750116D01*
X189723463Y-122741724D01*
X189741943Y-122735112D01*
X189760982Y-122730343D01*
X189780397Y-122727463D01*
X189800000Y-122726500D01*
X191200000Y-122726500D01*
X191219603Y-122727463D01*
X191219603Y-122727463D01*
G37*
D21*
G04 #@! TD*
G04 #@! TO.P,L6,4*
G04 #@! TO.N,BLUE*
X190500000Y-123126500D03*
D14*
G04 #@! TO.N,BLUE*
G04 #@! TO.C,L7*
G36*
X183091603Y-103169463D02*
X183111018Y-103172343D01*
X183130057Y-103177112D01*
X183148537Y-103183724D01*
X183166279Y-103192116D01*
X183183114Y-103202206D01*
X183198879Y-103213898D01*
X183213421Y-103227079D01*
X183226602Y-103241621D01*
X183238294Y-103257386D01*
X183248384Y-103274221D01*
X183256776Y-103291963D01*
X183263388Y-103310443D01*
X183268157Y-103329482D01*
X183271037Y-103348897D01*
X183272000Y-103368500D01*
X183272000Y-103768500D01*
X183271037Y-103788103D01*
X183268157Y-103807518D01*
X183263388Y-103826557D01*
X183256776Y-103845037D01*
X183248384Y-103862779D01*
X183238294Y-103879614D01*
X183226602Y-103895379D01*
X183213421Y-103909921D01*
X183198879Y-103923102D01*
X183183114Y-103934794D01*
X183166279Y-103944884D01*
X183148537Y-103953276D01*
X183130057Y-103959888D01*
X183111018Y-103964657D01*
X183091603Y-103967537D01*
X183072000Y-103968500D01*
X181672000Y-103968500D01*
X181652397Y-103967537D01*
X181632982Y-103964657D01*
X181613943Y-103959888D01*
X181595463Y-103953276D01*
X181577721Y-103944884D01*
X181560886Y-103934794D01*
X181545121Y-103923102D01*
X181530579Y-103909921D01*
X181517398Y-103895379D01*
X181505706Y-103879614D01*
X181495616Y-103862779D01*
X181487224Y-103845037D01*
X181480612Y-103826557D01*
X181475843Y-103807518D01*
X181472963Y-103788103D01*
X181472000Y-103768500D01*
X181472000Y-103368500D01*
X181472963Y-103348897D01*
X181475843Y-103329482D01*
X181480612Y-103310443D01*
X181487224Y-103291963D01*
X181495616Y-103274221D01*
X181505706Y-103257386D01*
X181517398Y-103241621D01*
X181530579Y-103227079D01*
X181545121Y-103213898D01*
X181560886Y-103202206D01*
X181577721Y-103192116D01*
X181595463Y-103183724D01*
X181613943Y-103177112D01*
X181632982Y-103172343D01*
X181652397Y-103169463D01*
X181672000Y-103168500D01*
X183072000Y-103168500D01*
X183091603Y-103169463D01*
X183091603Y-103169463D01*
G37*
D21*
G04 #@! TD*
G04 #@! TO.P,L7,4*
G04 #@! TO.N,BLUE*
X182372000Y-103568500D03*
D14*
G04 #@! TO.N,GREEN*
G04 #@! TO.C,L7*
G36*
X179916603Y-103169463D02*
X179936018Y-103172343D01*
X179955057Y-103177112D01*
X179973537Y-103183724D01*
X179991279Y-103192116D01*
X180008114Y-103202206D01*
X180023879Y-103213898D01*
X180038421Y-103227079D01*
X180051602Y-103241621D01*
X180063294Y-103257386D01*
X180073384Y-103274221D01*
X180081776Y-103291963D01*
X180088388Y-103310443D01*
X180093157Y-103329482D01*
X180096037Y-103348897D01*
X180097000Y-103368500D01*
X180097000Y-103768500D01*
X180096037Y-103788103D01*
X180093157Y-103807518D01*
X180088388Y-103826557D01*
X180081776Y-103845037D01*
X180073384Y-103862779D01*
X180063294Y-103879614D01*
X180051602Y-103895379D01*
X180038421Y-103909921D01*
X180023879Y-103923102D01*
X180008114Y-103934794D01*
X179991279Y-103944884D01*
X179973537Y-103953276D01*
X179955057Y-103959888D01*
X179936018Y-103964657D01*
X179916603Y-103967537D01*
X179897000Y-103968500D01*
X178497000Y-103968500D01*
X178477397Y-103967537D01*
X178457982Y-103964657D01*
X178438943Y-103959888D01*
X178420463Y-103953276D01*
X178402721Y-103944884D01*
X178385886Y-103934794D01*
X178370121Y-103923102D01*
X178355579Y-103909921D01*
X178342398Y-103895379D01*
X178330706Y-103879614D01*
X178320616Y-103862779D01*
X178312224Y-103845037D01*
X178305612Y-103826557D01*
X178300843Y-103807518D01*
X178297963Y-103788103D01*
X178297000Y-103768500D01*
X178297000Y-103368500D01*
X178297963Y-103348897D01*
X178300843Y-103329482D01*
X178305612Y-103310443D01*
X178312224Y-103291963D01*
X178320616Y-103274221D01*
X178330706Y-103257386D01*
X178342398Y-103241621D01*
X178355579Y-103227079D01*
X178370121Y-103213898D01*
X178385886Y-103202206D01*
X178402721Y-103192116D01*
X178420463Y-103183724D01*
X178438943Y-103177112D01*
X178457982Y-103172343D01*
X178477397Y-103169463D01*
X178497000Y-103168500D01*
X179897000Y-103168500D01*
X179916603Y-103169463D01*
X179916603Y-103169463D01*
G37*
D21*
G04 #@! TD*
G04 #@! TO.P,L7,3*
G04 #@! TO.N,GREEN*
X179197000Y-103568500D03*
D14*
G04 #@! TO.N,+5V*
G04 #@! TO.C,L7*
G36*
X183091603Y-101708963D02*
X183111018Y-101711843D01*
X183130057Y-101716612D01*
X183148537Y-101723224D01*
X183166279Y-101731616D01*
X183183114Y-101741706D01*
X183198879Y-101753398D01*
X183213421Y-101766579D01*
X183226602Y-101781121D01*
X183238294Y-101796886D01*
X183248384Y-101813721D01*
X183256776Y-101831463D01*
X183263388Y-101849943D01*
X183268157Y-101868982D01*
X183271037Y-101888397D01*
X183272000Y-101908000D01*
X183272000Y-102308000D01*
X183271037Y-102327603D01*
X183268157Y-102347018D01*
X183263388Y-102366057D01*
X183256776Y-102384537D01*
X183248384Y-102402279D01*
X183238294Y-102419114D01*
X183226602Y-102434879D01*
X183213421Y-102449421D01*
X183198879Y-102462602D01*
X183183114Y-102474294D01*
X183166279Y-102484384D01*
X183148537Y-102492776D01*
X183130057Y-102499388D01*
X183111018Y-102504157D01*
X183091603Y-102507037D01*
X183072000Y-102508000D01*
X181672000Y-102508000D01*
X181652397Y-102507037D01*
X181632982Y-102504157D01*
X181613943Y-102499388D01*
X181595463Y-102492776D01*
X181577721Y-102484384D01*
X181560886Y-102474294D01*
X181545121Y-102462602D01*
X181530579Y-102449421D01*
X181517398Y-102434879D01*
X181505706Y-102419114D01*
X181495616Y-102402279D01*
X181487224Y-102384537D01*
X181480612Y-102366057D01*
X181475843Y-102347018D01*
X181472963Y-102327603D01*
X181472000Y-102308000D01*
X181472000Y-101908000D01*
X181472963Y-101888397D01*
X181475843Y-101868982D01*
X181480612Y-101849943D01*
X181487224Y-101831463D01*
X181495616Y-101813721D01*
X181505706Y-101796886D01*
X181517398Y-101781121D01*
X181530579Y-101766579D01*
X181545121Y-101753398D01*
X181560886Y-101741706D01*
X181577721Y-101731616D01*
X181595463Y-101723224D01*
X181613943Y-101716612D01*
X181632982Y-101711843D01*
X181652397Y-101708963D01*
X181672000Y-101708000D01*
X183072000Y-101708000D01*
X183091603Y-101708963D01*
X183091603Y-101708963D01*
G37*
D21*
G04 #@! TD*
G04 #@! TO.P,L7,2*
G04 #@! TO.N,+5V*
X182372000Y-102108000D03*
D14*
G04 #@! TO.N,RED*
G04 #@! TO.C,L7*
G36*
X179916603Y-101708963D02*
X179936018Y-101711843D01*
X179955057Y-101716612D01*
X179973537Y-101723224D01*
X179991279Y-101731616D01*
X180008114Y-101741706D01*
X180023879Y-101753398D01*
X180038421Y-101766579D01*
X180051602Y-101781121D01*
X180063294Y-101796886D01*
X180073384Y-101813721D01*
X180081776Y-101831463D01*
X180088388Y-101849943D01*
X180093157Y-101868982D01*
X180096037Y-101888397D01*
X180097000Y-101908000D01*
X180097000Y-102308000D01*
X180096037Y-102327603D01*
X180093157Y-102347018D01*
X180088388Y-102366057D01*
X180081776Y-102384537D01*
X180073384Y-102402279D01*
X180063294Y-102419114D01*
X180051602Y-102434879D01*
X180038421Y-102449421D01*
X180023879Y-102462602D01*
X180008114Y-102474294D01*
X179991279Y-102484384D01*
X179973537Y-102492776D01*
X179955057Y-102499388D01*
X179936018Y-102504157D01*
X179916603Y-102507037D01*
X179897000Y-102508000D01*
X178497000Y-102508000D01*
X178477397Y-102507037D01*
X178457982Y-102504157D01*
X178438943Y-102499388D01*
X178420463Y-102492776D01*
X178402721Y-102484384D01*
X178385886Y-102474294D01*
X178370121Y-102462602D01*
X178355579Y-102449421D01*
X178342398Y-102434879D01*
X178330706Y-102419114D01*
X178320616Y-102402279D01*
X178312224Y-102384537D01*
X178305612Y-102366057D01*
X178300843Y-102347018D01*
X178297963Y-102327603D01*
X178297000Y-102308000D01*
X178297000Y-101908000D01*
X178297963Y-101888397D01*
X178300843Y-101868982D01*
X178305612Y-101849943D01*
X178312224Y-101831463D01*
X178320616Y-101813721D01*
X178330706Y-101796886D01*
X178342398Y-101781121D01*
X178355579Y-101766579D01*
X178370121Y-101753398D01*
X178385886Y-101741706D01*
X178402721Y-101731616D01*
X178420463Y-101723224D01*
X178438943Y-101716612D01*
X178457982Y-101711843D01*
X178477397Y-101708963D01*
X178497000Y-101708000D01*
X179897000Y-101708000D01*
X179916603Y-101708963D01*
X179916603Y-101708963D01*
G37*
D21*
G04 #@! TD*
G04 #@! TO.P,L7,1*
G04 #@! TO.N,RED*
X179197000Y-102108000D03*
D14*
G04 #@! TO.N,RED*
G04 #@! TO.C,L8*
G36*
X187917603Y-82277963D02*
X187937018Y-82280843D01*
X187956057Y-82285612D01*
X187974537Y-82292224D01*
X187992279Y-82300616D01*
X188009114Y-82310706D01*
X188024879Y-82322398D01*
X188039421Y-82335579D01*
X188052602Y-82350121D01*
X188064294Y-82365886D01*
X188074384Y-82382721D01*
X188082776Y-82400463D01*
X188089388Y-82418943D01*
X188094157Y-82437982D01*
X188097037Y-82457397D01*
X188098000Y-82477000D01*
X188098000Y-82877000D01*
X188097037Y-82896603D01*
X188094157Y-82916018D01*
X188089388Y-82935057D01*
X188082776Y-82953537D01*
X188074384Y-82971279D01*
X188064294Y-82988114D01*
X188052602Y-83003879D01*
X188039421Y-83018421D01*
X188024879Y-83031602D01*
X188009114Y-83043294D01*
X187992279Y-83053384D01*
X187974537Y-83061776D01*
X187956057Y-83068388D01*
X187937018Y-83073157D01*
X187917603Y-83076037D01*
X187898000Y-83077000D01*
X186498000Y-83077000D01*
X186478397Y-83076037D01*
X186458982Y-83073157D01*
X186439943Y-83068388D01*
X186421463Y-83061776D01*
X186403721Y-83053384D01*
X186386886Y-83043294D01*
X186371121Y-83031602D01*
X186356579Y-83018421D01*
X186343398Y-83003879D01*
X186331706Y-82988114D01*
X186321616Y-82971279D01*
X186313224Y-82953537D01*
X186306612Y-82935057D01*
X186301843Y-82916018D01*
X186298963Y-82896603D01*
X186298000Y-82877000D01*
X186298000Y-82477000D01*
X186298963Y-82457397D01*
X186301843Y-82437982D01*
X186306612Y-82418943D01*
X186313224Y-82400463D01*
X186321616Y-82382721D01*
X186331706Y-82365886D01*
X186343398Y-82350121D01*
X186356579Y-82335579D01*
X186371121Y-82322398D01*
X186386886Y-82310706D01*
X186403721Y-82300616D01*
X186421463Y-82292224D01*
X186439943Y-82285612D01*
X186458982Y-82280843D01*
X186478397Y-82277963D01*
X186498000Y-82277000D01*
X187898000Y-82277000D01*
X187917603Y-82277963D01*
X187917603Y-82277963D01*
G37*
D21*
G04 #@! TD*
G04 #@! TO.P,L8,1*
G04 #@! TO.N,RED*
X187198000Y-82677000D03*
D14*
G04 #@! TO.N,+5V*
G04 #@! TO.C,L8*
G36*
X191092603Y-82277963D02*
X191112018Y-82280843D01*
X191131057Y-82285612D01*
X191149537Y-82292224D01*
X191167279Y-82300616D01*
X191184114Y-82310706D01*
X191199879Y-82322398D01*
X191214421Y-82335579D01*
X191227602Y-82350121D01*
X191239294Y-82365886D01*
X191249384Y-82382721D01*
X191257776Y-82400463D01*
X191264388Y-82418943D01*
X191269157Y-82437982D01*
X191272037Y-82457397D01*
X191273000Y-82477000D01*
X191273000Y-82877000D01*
X191272037Y-82896603D01*
X191269157Y-82916018D01*
X191264388Y-82935057D01*
X191257776Y-82953537D01*
X191249384Y-82971279D01*
X191239294Y-82988114D01*
X191227602Y-83003879D01*
X191214421Y-83018421D01*
X191199879Y-83031602D01*
X191184114Y-83043294D01*
X191167279Y-83053384D01*
X191149537Y-83061776D01*
X191131057Y-83068388D01*
X191112018Y-83073157D01*
X191092603Y-83076037D01*
X191073000Y-83077000D01*
X189673000Y-83077000D01*
X189653397Y-83076037D01*
X189633982Y-83073157D01*
X189614943Y-83068388D01*
X189596463Y-83061776D01*
X189578721Y-83053384D01*
X189561886Y-83043294D01*
X189546121Y-83031602D01*
X189531579Y-83018421D01*
X189518398Y-83003879D01*
X189506706Y-82988114D01*
X189496616Y-82971279D01*
X189488224Y-82953537D01*
X189481612Y-82935057D01*
X189476843Y-82916018D01*
X189473963Y-82896603D01*
X189473000Y-82877000D01*
X189473000Y-82477000D01*
X189473963Y-82457397D01*
X189476843Y-82437982D01*
X189481612Y-82418943D01*
X189488224Y-82400463D01*
X189496616Y-82382721D01*
X189506706Y-82365886D01*
X189518398Y-82350121D01*
X189531579Y-82335579D01*
X189546121Y-82322398D01*
X189561886Y-82310706D01*
X189578721Y-82300616D01*
X189596463Y-82292224D01*
X189614943Y-82285612D01*
X189633982Y-82280843D01*
X189653397Y-82277963D01*
X189673000Y-82277000D01*
X191073000Y-82277000D01*
X191092603Y-82277963D01*
X191092603Y-82277963D01*
G37*
D21*
G04 #@! TD*
G04 #@! TO.P,L8,2*
G04 #@! TO.N,+5V*
X190373000Y-82677000D03*
D14*
G04 #@! TO.N,GREEN*
G04 #@! TO.C,L8*
G36*
X187917603Y-83738463D02*
X187937018Y-83741343D01*
X187956057Y-83746112D01*
X187974537Y-83752724D01*
X187992279Y-83761116D01*
X188009114Y-83771206D01*
X188024879Y-83782898D01*
X188039421Y-83796079D01*
X188052602Y-83810621D01*
X188064294Y-83826386D01*
X188074384Y-83843221D01*
X188082776Y-83860963D01*
X188089388Y-83879443D01*
X188094157Y-83898482D01*
X188097037Y-83917897D01*
X188098000Y-83937500D01*
X188098000Y-84337500D01*
X188097037Y-84357103D01*
X188094157Y-84376518D01*
X188089388Y-84395557D01*
X188082776Y-84414037D01*
X188074384Y-84431779D01*
X188064294Y-84448614D01*
X188052602Y-84464379D01*
X188039421Y-84478921D01*
X188024879Y-84492102D01*
X188009114Y-84503794D01*
X187992279Y-84513884D01*
X187974537Y-84522276D01*
X187956057Y-84528888D01*
X187937018Y-84533657D01*
X187917603Y-84536537D01*
X187898000Y-84537500D01*
X186498000Y-84537500D01*
X186478397Y-84536537D01*
X186458982Y-84533657D01*
X186439943Y-84528888D01*
X186421463Y-84522276D01*
X186403721Y-84513884D01*
X186386886Y-84503794D01*
X186371121Y-84492102D01*
X186356579Y-84478921D01*
X186343398Y-84464379D01*
X186331706Y-84448614D01*
X186321616Y-84431779D01*
X186313224Y-84414037D01*
X186306612Y-84395557D01*
X186301843Y-84376518D01*
X186298963Y-84357103D01*
X186298000Y-84337500D01*
X186298000Y-83937500D01*
X186298963Y-83917897D01*
X186301843Y-83898482D01*
X186306612Y-83879443D01*
X186313224Y-83860963D01*
X186321616Y-83843221D01*
X186331706Y-83826386D01*
X186343398Y-83810621D01*
X186356579Y-83796079D01*
X186371121Y-83782898D01*
X186386886Y-83771206D01*
X186403721Y-83761116D01*
X186421463Y-83752724D01*
X186439943Y-83746112D01*
X186458982Y-83741343D01*
X186478397Y-83738463D01*
X186498000Y-83737500D01*
X187898000Y-83737500D01*
X187917603Y-83738463D01*
X187917603Y-83738463D01*
G37*
D21*
G04 #@! TD*
G04 #@! TO.P,L8,3*
G04 #@! TO.N,GREEN*
X187198000Y-84137500D03*
D14*
G04 #@! TO.N,BLUE*
G04 #@! TO.C,L8*
G36*
X191092603Y-83738463D02*
X191112018Y-83741343D01*
X191131057Y-83746112D01*
X191149537Y-83752724D01*
X191167279Y-83761116D01*
X191184114Y-83771206D01*
X191199879Y-83782898D01*
X191214421Y-83796079D01*
X191227602Y-83810621D01*
X191239294Y-83826386D01*
X191249384Y-83843221D01*
X191257776Y-83860963D01*
X191264388Y-83879443D01*
X191269157Y-83898482D01*
X191272037Y-83917897D01*
X191273000Y-83937500D01*
X191273000Y-84337500D01*
X191272037Y-84357103D01*
X191269157Y-84376518D01*
X191264388Y-84395557D01*
X191257776Y-84414037D01*
X191249384Y-84431779D01*
X191239294Y-84448614D01*
X191227602Y-84464379D01*
X191214421Y-84478921D01*
X191199879Y-84492102D01*
X191184114Y-84503794D01*
X191167279Y-84513884D01*
X191149537Y-84522276D01*
X191131057Y-84528888D01*
X191112018Y-84533657D01*
X191092603Y-84536537D01*
X191073000Y-84537500D01*
X189673000Y-84537500D01*
X189653397Y-84536537D01*
X189633982Y-84533657D01*
X189614943Y-84528888D01*
X189596463Y-84522276D01*
X189578721Y-84513884D01*
X189561886Y-84503794D01*
X189546121Y-84492102D01*
X189531579Y-84478921D01*
X189518398Y-84464379D01*
X189506706Y-84448614D01*
X189496616Y-84431779D01*
X189488224Y-84414037D01*
X189481612Y-84395557D01*
X189476843Y-84376518D01*
X189473963Y-84357103D01*
X189473000Y-84337500D01*
X189473000Y-83937500D01*
X189473963Y-83917897D01*
X189476843Y-83898482D01*
X189481612Y-83879443D01*
X189488224Y-83860963D01*
X189496616Y-83843221D01*
X189506706Y-83826386D01*
X189518398Y-83810621D01*
X189531579Y-83796079D01*
X189546121Y-83782898D01*
X189561886Y-83771206D01*
X189578721Y-83761116D01*
X189596463Y-83752724D01*
X189614943Y-83746112D01*
X189633982Y-83741343D01*
X189653397Y-83738463D01*
X189673000Y-83737500D01*
X191073000Y-83737500D01*
X191092603Y-83738463D01*
X191092603Y-83738463D01*
G37*
D21*
G04 #@! TD*
G04 #@! TO.P,L8,4*
G04 #@! TO.N,BLUE*
X190373000Y-84137500D03*
D22*
G04 #@! TO.N,+5V*
X194056000Y-114173000D03*
X210386000Y-113284000D03*
X206295000Y-121158000D03*
X192151000Y-121666000D03*
X211455000Y-129667000D03*
X229362000Y-120523000D03*
X184404000Y-108966000D03*
X236601000Y-100330000D03*
G04 #@! TO.N,GND*
X213360000Y-123952000D03*
X213360000Y-120396000D03*
D23*
X203327000Y-125476000D03*
X200025000Y-124587000D03*
X198120000Y-119253000D03*
X195834000Y-121539000D03*
X224663000Y-119634000D03*
X226822000Y-117475000D03*
X224917000Y-108712000D03*
X220980000Y-104775000D03*
X226822000Y-113157000D03*
X203581000Y-111887000D03*
X207010000Y-111887000D03*
G04 #@! TO.N,RED*
X234061000Y-100584000D03*
X204851000Y-74549000D03*
X203073000Y-130556000D03*
X226561181Y-81228506D03*
X186077338Y-119865662D03*
X188934838Y-82000838D03*
X181090010Y-100203000D03*
X225298000Y-125730000D03*
G04 #@! TO.N,GREEN*
X232791000Y-103632000D03*
X205105000Y-76073000D03*
X226060000Y-85217000D03*
X231013000Y-108331000D03*
X187325000Y-120015000D03*
X204851000Y-130683000D03*
X225425000Y-124206000D03*
X236728000Y-104902000D03*
X186817000Y-85217000D03*
X181605763Y-106441914D03*
G04 #@! TO.N,BLUE*
X229235000Y-124714000D03*
X238633000Y-104775000D03*
X231267000Y-84328000D03*
X212090000Y-73152000D03*
X191747663Y-80114661D03*
X212090000Y-132461000D03*
X189969662Y-124863338D03*
X180340000Y-105537000D03*
G04 #@! TO.N,Net-(IC1-Pad2)*
X193167000Y-116078000D03*
X215900000Y-117602000D03*
G04 #@! TO.N,Net-(IC1-Pad3)*
X193040000Y-117602000D03*
X215392000Y-112649000D03*
G04 #@! TO.N,Net-(IC1-Pad5)*
X215519000Y-107188000D03*
X205890467Y-117199792D03*
G04 #@! TO.N,Net-(IC1-Pad6)*
X202057000Y-122682000D03*
X201041000Y-116840000D03*
G04 #@! TD*
D24*
G04 #@! TO.N,+5V*
X195834000Y-114173000D02*
X194056000Y-114173000D01*
X211275000Y-112395000D02*
X210386000Y-113284000D01*
X212725000Y-112395000D02*
X211275000Y-112395000D01*
X209497000Y-114173000D02*
X208280000Y-114173000D01*
X210386000Y-113284000D02*
X209497000Y-114173000D01*
X207200000Y-120253000D02*
X206295000Y-121158000D01*
X209550000Y-120253000D02*
X207200000Y-120253000D01*
X206295000Y-121158000D02*
X199517000Y-121158000D01*
X206295000Y-121158000D02*
X206295000Y-121158000D01*
X190500000Y-121666000D02*
X192151000Y-121666000D01*
X209804000Y-129667000D02*
X211455000Y-129667000D01*
X229362000Y-121666000D02*
X229362000Y-120523000D01*
X237363000Y-102108000D02*
X237363000Y-101608000D01*
X232412021Y-92331021D02*
X232412021Y-91569021D01*
X237363000Y-97282000D02*
X232412021Y-92331021D01*
X232412021Y-91569021D02*
X232410000Y-91567000D01*
X232410000Y-91567000D02*
X232410000Y-83947000D01*
X232410000Y-83947000D02*
X231140000Y-82677000D01*
X231140000Y-82677000D02*
X229362000Y-82677000D01*
X228891290Y-82206290D02*
X228891290Y-81444290D01*
X229362000Y-82677000D02*
X228891290Y-82206290D01*
X228891290Y-81444290D02*
X224790000Y-77343000D01*
X224790000Y-77343000D02*
X217932000Y-77343000D01*
X217932000Y-77343000D02*
X217932000Y-77089000D01*
X217932000Y-77089000D02*
X212979000Y-72136000D01*
X212979000Y-72136000D02*
X210185000Y-72136000D01*
X210185000Y-72136000D02*
X209931000Y-72390000D01*
X209931000Y-72390000D02*
X209931000Y-74549000D01*
X209931000Y-72390000D02*
X203073000Y-72390000D01*
X203073000Y-72390000D02*
X200533000Y-74930000D01*
X200533000Y-74930000D02*
X195072000Y-74930000D01*
X195072000Y-74930000D02*
X190373000Y-79629000D01*
X190373000Y-79629000D02*
X190373000Y-82677000D01*
X190373000Y-79629000D02*
X187833000Y-79629000D01*
X187833000Y-79629000D02*
X185166000Y-82296000D01*
X185166000Y-82296000D02*
X185166000Y-93599000D01*
X185166000Y-93599000D02*
X182372000Y-96393000D01*
X182372000Y-96393000D02*
X182372000Y-102108000D01*
X182372000Y-102108000D02*
X183642000Y-102108000D01*
X183642000Y-102108000D02*
X183896000Y-102108000D01*
X183896000Y-102108000D02*
X184404000Y-102616000D01*
X184404000Y-102616000D02*
X184404000Y-108966000D01*
X237363000Y-100330000D02*
X236601000Y-100330000D01*
X237363000Y-101608000D02*
X237363000Y-100330000D01*
X237363000Y-100330000D02*
X237363000Y-97282000D01*
G04 #@! TO.N,GND*
X215451770Y-123932514D02*
X213379486Y-123932514D01*
X213379486Y-123932514D02*
X213360000Y-123952000D01*
X215258797Y-127449041D02*
X205300041Y-127449041D01*
X205300041Y-127449041D02*
X203327000Y-125476000D01*
X200660000Y-108077000D02*
X200660000Y-113792000D01*
X200660000Y-113792000D02*
X199263000Y-115189000D01*
X199263000Y-115189000D02*
X199263000Y-118110000D01*
X199263000Y-118110000D02*
X198120000Y-119253000D01*
X217440000Y-120595000D02*
X217876000Y-121031000D01*
X217440000Y-119695000D02*
X217440000Y-120595000D01*
X217876000Y-121031000D02*
X223266000Y-121031000D01*
X223266000Y-121031000D02*
X224663000Y-119634000D01*
X200660000Y-109279081D02*
X203267919Y-111887000D01*
X200660000Y-108077000D02*
X200660000Y-109279081D01*
X202946000Y-114173000D02*
X202946000Y-112522000D01*
X202946000Y-112522000D02*
X203581000Y-111887000D01*
G04 #@! TO.N,Net-(D1-Pad2)*
X216919024Y-122412965D02*
X216900965Y-122412965D01*
X217563759Y-123057700D02*
X216919024Y-122412965D01*
X216900965Y-122412965D02*
X216535000Y-122047000D01*
X216535000Y-122047000D02*
X212090000Y-122047000D01*
X212090000Y-122047000D02*
X209550000Y-124587000D01*
D25*
G04 #@! TO.N,RED*
X234061000Y-100584000D02*
X234061000Y-101981000D01*
X234061000Y-101981000D02*
X234188000Y-102108000D01*
X206629000Y-74549000D02*
X204851000Y-74549000D01*
X206629000Y-129667000D02*
X203962000Y-129667000D01*
X203962000Y-129667000D02*
X203073000Y-130556000D01*
X226187000Y-121666000D02*
X226187000Y-121166000D01*
X226187000Y-121166000D02*
X226187000Y-118745000D01*
X226187000Y-118745000D02*
X224409000Y-116967000D01*
X224409000Y-116967000D02*
X222885000Y-116967000D01*
X226187000Y-81602687D02*
X226561181Y-81228506D01*
X226187000Y-82677000D02*
X226187000Y-81602687D01*
X187325000Y-121666000D02*
X186077338Y-120418338D01*
X186077338Y-120418338D02*
X186077338Y-119865662D01*
X188258676Y-82677000D02*
X188534839Y-82400837D01*
X187198000Y-82677000D02*
X188258676Y-82677000D01*
X188534839Y-82400837D02*
X188934838Y-82000838D01*
X181090010Y-100214990D02*
X181090010Y-100203000D01*
X179197000Y-102108000D02*
X181090010Y-100214990D01*
X224898001Y-125330001D02*
X225298000Y-125730000D01*
X224028000Y-122825000D02*
X224028000Y-124460000D01*
X224028000Y-124460000D02*
X224898001Y-125330001D01*
X226187000Y-121666000D02*
X225187000Y-121666000D01*
X225187000Y-121666000D02*
X224028000Y-122825000D01*
G04 #@! TO.N,GREEN*
X234188000Y-103568500D02*
X233616500Y-103568500D01*
X233616500Y-103568500D02*
X233553000Y-103632000D01*
X233553000Y-103632000D02*
X232791000Y-103632000D01*
X206629000Y-76009500D02*
X206057500Y-76009500D01*
X206057500Y-76009500D02*
X205994000Y-76073000D01*
X205994000Y-76073000D02*
X205105000Y-76073000D01*
X226187000Y-84137500D02*
X226187000Y-85090000D01*
X226187000Y-85090000D02*
X226060000Y-85217000D01*
X230613001Y-108730999D02*
X228073001Y-108730999D01*
X231013000Y-108331000D02*
X230613001Y-108730999D01*
X225044000Y-111760000D02*
X223812000Y-111760000D01*
X228073001Y-108730999D02*
X225044000Y-111760000D01*
X223812000Y-111760000D02*
X223012000Y-111760000D01*
X187325000Y-123126500D02*
X188023500Y-123126500D01*
X188023500Y-123126500D02*
X188849000Y-122301000D01*
X188849000Y-122301000D02*
X188849000Y-120523000D01*
X188849000Y-120523000D02*
X188341000Y-120015000D01*
X188341000Y-120015000D02*
X187325000Y-120015000D01*
X205250999Y-131082999D02*
X206610001Y-131082999D01*
X204851000Y-130683000D02*
X205250999Y-131082999D01*
X206610001Y-131082999D02*
X206629000Y-131064000D01*
X225824999Y-123806001D02*
X225824999Y-123552001D01*
X225425000Y-124206000D02*
X225824999Y-123806001D01*
X225824999Y-123552001D02*
X226187000Y-123190000D01*
X236728000Y-104902000D02*
X234442000Y-104902000D01*
X234442000Y-104902000D02*
X234188000Y-104648000D01*
X234188000Y-104648000D02*
X234188000Y-103505000D01*
X187198000Y-84137500D02*
X187198000Y-84836000D01*
X187198000Y-84836000D02*
X186817000Y-85217000D01*
X179852030Y-106441914D02*
X181040078Y-106441914D01*
X179197000Y-103568500D02*
X179197000Y-105786884D01*
X179197000Y-105786884D02*
X179852030Y-106441914D01*
X181040078Y-106441914D02*
X181605763Y-106441914D01*
G04 #@! TO.N,BLUE*
X229235000Y-124714000D02*
X229235000Y-124148315D01*
X229235000Y-124148315D02*
X229235000Y-123063000D01*
X238233001Y-104375001D02*
X238106001Y-104375001D01*
X238633000Y-104775000D02*
X238233001Y-104375001D01*
X238106001Y-104375001D02*
X237363000Y-103632000D01*
X231267000Y-84328000D02*
X229616000Y-84328000D01*
X229616000Y-84328000D02*
X229489000Y-84201000D01*
X212090000Y-73152000D02*
X212090000Y-75565000D01*
X212090000Y-75565000D02*
X211582000Y-76073000D01*
X211582000Y-76073000D02*
X209804000Y-76073000D01*
X223812000Y-106515000D02*
X223977000Y-106680000D01*
X223012000Y-106515000D02*
X223812000Y-106515000D01*
X223977000Y-106680000D02*
X236728000Y-106680000D01*
X236728000Y-106680000D02*
X238633000Y-104775000D01*
X191373000Y-84137500D02*
X191747663Y-83762837D01*
X190373000Y-84137500D02*
X191373000Y-84137500D01*
X191747663Y-83762837D02*
X191747663Y-80680346D01*
X191747663Y-80680346D02*
X191747663Y-80114661D01*
X211137500Y-132461000D02*
X211524315Y-132461000D01*
X209804000Y-131127500D02*
X211137500Y-132461000D01*
X211524315Y-132461000D02*
X212090000Y-132461000D01*
X190500000Y-123126500D02*
X190500000Y-124333000D01*
X190500000Y-124333000D02*
X190369661Y-124463339D01*
X190369661Y-124463339D02*
X189969662Y-124863338D01*
X182372000Y-103568500D02*
X180403500Y-105537000D01*
X180403500Y-105537000D02*
X180340000Y-105537000D01*
G04 #@! TO.N,Net-(IC1-Pad2)*
X195834000Y-115443000D02*
X193802000Y-115443000D01*
X193802000Y-115443000D02*
X193167000Y-116078000D01*
X216465685Y-117602000D02*
X216592685Y-117729000D01*
X215900000Y-117602000D02*
X216465685Y-117602000D01*
X216592685Y-117729000D02*
X217424000Y-117729000D01*
G04 #@! TO.N,Net-(IC1-Pad3)*
X195834000Y-116713000D02*
X193929000Y-116713000D01*
X193929000Y-116713000D02*
X193040000Y-117602000D01*
X215392000Y-112649000D02*
X217170000Y-112649000D01*
X217170000Y-112649000D02*
X217424000Y-112395000D01*
G04 #@! TO.N,Net-(IC1-Pad4)*
X197134000Y-117983000D02*
X197866000Y-117251000D01*
X195834000Y-117983000D02*
X197134000Y-117983000D01*
X197866000Y-117251000D02*
X197866000Y-112522000D01*
X197866000Y-112522000D02*
X195580000Y-110236000D01*
X195580000Y-110236000D02*
X195580000Y-108077000D01*
X199300000Y-122720000D02*
X199262000Y-122682000D01*
X199390000Y-122720000D02*
X199300000Y-122720000D01*
X195834000Y-119254000D02*
X195834000Y-118110000D01*
X199262000Y-122682000D02*
X195834000Y-119254000D01*
X195834000Y-118110000D02*
X195961000Y-117983000D01*
G04 #@! TO.N,Net-(IC1-Pad5)*
X215519000Y-107188000D02*
X217551000Y-107188000D01*
X205490468Y-117599791D02*
X205890467Y-117199792D01*
X205107259Y-117983000D02*
X205490468Y-117599791D01*
X202946000Y-117983000D02*
X205107259Y-117983000D01*
G04 #@! TO.N,Net-(IC1-Pad6)*
X205740000Y-106874919D02*
X201608081Y-102743000D01*
X205740000Y-108077000D02*
X205740000Y-106874919D01*
X201608081Y-102743000D02*
X201422000Y-102743000D01*
X201422000Y-102743000D02*
X198501000Y-102743000D01*
X198501000Y-102743000D02*
X198374000Y-102870000D01*
X201644746Y-129136865D02*
X201644746Y-124872254D01*
X201076548Y-129705063D02*
X201644746Y-129136865D01*
X201644746Y-124872254D02*
X203835000Y-122682000D01*
X203835000Y-122720000D02*
X202095000Y-122720000D01*
X202095000Y-122720000D02*
X202057000Y-122682000D01*
X201041000Y-116840000D02*
X203073000Y-116840000D01*
X202946000Y-116713000D02*
X204246000Y-116713000D01*
X204246000Y-116713000D02*
X205624999Y-115334001D01*
X205740000Y-109279081D02*
X205740000Y-108077000D01*
X205624999Y-109394082D02*
X205740000Y-109279081D01*
X205624999Y-115334001D02*
X205624999Y-109394082D01*
G04 #@! TO.N,Net-(IC1-Pad7)*
X204724000Y-109601000D02*
X204724000Y-115443000D01*
X203200000Y-108077000D02*
X204724000Y-109601000D01*
X204724000Y-115443000D02*
X202819000Y-115443000D01*
G04 #@! TO.N,Net-(R1-Pad1)*
X222085000Y-118529000D02*
X221869000Y-118745000D01*
X222885000Y-118529000D02*
X222085000Y-118529000D01*
X221869000Y-118745000D02*
X219456000Y-118745000D01*
G04 #@! TO.N,Net-(R2-Pad1)*
X223012000Y-113360000D02*
X219507000Y-113360000D01*
X219507000Y-113360000D02*
X219456000Y-113411000D01*
G04 #@! TO.N,Net-(R3-Pad1)*
X223012000Y-108115000D02*
X219494000Y-108115000D01*
X219494000Y-108115000D02*
X219456000Y-108077000D01*
G04 #@! TD*
D26*
G04 #@! TO.N,GND*
G36*
X225857394Y-105895000D02*
X224297066Y-105895000D01*
X224118292Y-105775546D01*
X224045960Y-105761158D01*
X223969809Y-105647191D01*
X223759765Y-105506843D01*
X223512000Y-105457560D01*
X222512000Y-105457560D01*
X222264235Y-105506843D01*
X222054191Y-105647191D01*
X221913843Y-105857235D01*
X221864560Y-106105000D01*
X221864560Y-106925000D01*
X221913843Y-107172765D01*
X222008882Y-107315000D01*
X221998859Y-107330000D01*
X220421850Y-107330000D01*
X220347809Y-107219191D01*
X220137765Y-107078843D01*
X219890000Y-107029560D01*
X218990000Y-107029560D01*
X218742235Y-107078843D01*
X218537440Y-107215684D01*
X218537440Y-106727000D01*
X218488157Y-106479235D01*
X218347809Y-106269191D01*
X218137765Y-106128843D01*
X217890000Y-106079560D01*
X216990000Y-106079560D01*
X216742235Y-106128843D01*
X216532191Y-106269191D01*
X216442782Y-106403000D01*
X216197711Y-106403000D01*
X216105280Y-106310569D01*
X215724874Y-106153000D01*
X215313126Y-106153000D01*
X214932720Y-106310569D01*
X214641569Y-106601720D01*
X214484000Y-106982126D01*
X214484000Y-107393874D01*
X214641569Y-107774280D01*
X214932720Y-108065431D01*
X215313126Y-108223000D01*
X215724874Y-108223000D01*
X216105280Y-108065431D01*
X216197711Y-107973000D01*
X216524300Y-107973000D01*
X216532191Y-107984809D01*
X216665694Y-108074013D01*
X216630302Y-108088673D01*
X216451673Y-108267301D01*
X216355000Y-108500690D01*
X216355000Y-108741250D01*
X216513750Y-108900000D01*
X217313000Y-108900000D01*
X217313000Y-108880000D01*
X217567000Y-108880000D01*
X217567000Y-108900000D01*
X218366250Y-108900000D01*
X218451781Y-108814469D01*
X218532191Y-108934809D01*
X218742235Y-109075157D01*
X218990000Y-109124440D01*
X219890000Y-109124440D01*
X220137765Y-109075157D01*
X220347809Y-108934809D01*
X220371068Y-108900000D01*
X221998859Y-108900000D01*
X222054191Y-108982809D01*
X222264235Y-109123157D01*
X222512000Y-109172440D01*
X223512000Y-109172440D01*
X223759765Y-109123157D01*
X223969809Y-108982809D01*
X224110157Y-108772765D01*
X224159440Y-108525000D01*
X224159440Y-107705000D01*
X224111702Y-107465000D01*
X230415289Y-107465000D01*
X230135569Y-107744720D01*
X230052197Y-107945999D01*
X228150311Y-107945999D01*
X228073000Y-107930621D01*
X227995689Y-107945999D01*
X227995685Y-107945999D01*
X227766709Y-107991545D01*
X227647626Y-108071114D01*
X227572592Y-108121250D01*
X227572590Y-108121252D01*
X227507048Y-108165046D01*
X227463254Y-108230588D01*
X224718843Y-110975000D01*
X224025141Y-110975000D01*
X223969809Y-110892191D01*
X223759765Y-110751843D01*
X223512000Y-110702560D01*
X222512000Y-110702560D01*
X222264235Y-110751843D01*
X222054191Y-110892191D01*
X221913843Y-111102235D01*
X221864560Y-111350000D01*
X221864560Y-112170000D01*
X221913843Y-112417765D01*
X222008882Y-112560000D01*
X221998859Y-112575000D01*
X220362381Y-112575000D01*
X220347809Y-112553191D01*
X220137765Y-112412843D01*
X219890000Y-112363560D01*
X218990000Y-112363560D01*
X218742235Y-112412843D01*
X218537440Y-112549684D01*
X218537440Y-112061000D01*
X218488157Y-111813235D01*
X218347809Y-111603191D01*
X218137765Y-111462843D01*
X217890000Y-111413560D01*
X216990000Y-111413560D01*
X216742235Y-111462843D01*
X216532191Y-111603191D01*
X216391843Y-111813235D01*
X216381745Y-111864000D01*
X216070711Y-111864000D01*
X215978280Y-111771569D01*
X215597874Y-111614000D01*
X215186126Y-111614000D01*
X214805720Y-111771569D01*
X214514569Y-112062720D01*
X214357000Y-112443126D01*
X214357000Y-112854874D01*
X214514569Y-113235280D01*
X214805720Y-113526431D01*
X215186126Y-113684000D01*
X215597874Y-113684000D01*
X215978280Y-113526431D01*
X216070711Y-113434000D01*
X216618975Y-113434000D01*
X216451673Y-113601301D01*
X216355000Y-113834690D01*
X216355000Y-114075250D01*
X216513750Y-114234000D01*
X217313000Y-114234000D01*
X217313000Y-114214000D01*
X217567000Y-114214000D01*
X217567000Y-114234000D01*
X218366250Y-114234000D01*
X218451781Y-114148469D01*
X218532191Y-114268809D01*
X218742235Y-114409157D01*
X218990000Y-114458440D01*
X219890000Y-114458440D01*
X220137765Y-114409157D01*
X220347809Y-114268809D01*
X220430536Y-114145000D01*
X221998859Y-114145000D01*
X222054191Y-114227809D01*
X222264235Y-114368157D01*
X222512000Y-114417440D01*
X223512000Y-114417440D01*
X223759765Y-114368157D01*
X223969809Y-114227809D01*
X224110157Y-114017765D01*
X224159440Y-113770000D01*
X224159440Y-112950000D01*
X224110157Y-112702235D01*
X224015118Y-112560000D01*
X224025141Y-112545000D01*
X224966688Y-112545000D01*
X225044000Y-112560378D01*
X225121312Y-112545000D01*
X225121316Y-112545000D01*
X225350292Y-112499454D01*
X225609953Y-112325953D01*
X225653749Y-112260408D01*
X228398159Y-109515999D01*
X230535689Y-109515999D01*
X230613001Y-109531377D01*
X230690313Y-109515999D01*
X230690317Y-109515999D01*
X230919293Y-109470453D01*
X231075617Y-109366000D01*
X231218874Y-109366000D01*
X231599280Y-109208431D01*
X231890431Y-108917280D01*
X232048000Y-108536874D01*
X232048000Y-108125126D01*
X231890431Y-107744720D01*
X231610711Y-107465000D01*
X236650688Y-107465000D01*
X236728000Y-107480378D01*
X236805312Y-107465000D01*
X236805316Y-107465000D01*
X237034292Y-107419454D01*
X237293953Y-107245953D01*
X237337749Y-107180408D01*
X237637776Y-106880382D01*
X238744984Y-107987590D01*
X236990638Y-114378421D01*
X232309779Y-122728060D01*
X230270000Y-124527865D01*
X230270000Y-124508126D01*
X230126280Y-124161154D01*
X230386301Y-124109432D01*
X230661231Y-123925731D01*
X230844932Y-123650801D01*
X230909440Y-123326500D01*
X230909440Y-122926500D01*
X230844932Y-122602199D01*
X230707322Y-122396250D01*
X230844932Y-122190301D01*
X230909440Y-121866000D01*
X230909440Y-121466000D01*
X230844932Y-121141699D01*
X230661231Y-120866769D01*
X230494318Y-120755242D01*
X230497000Y-120748766D01*
X230497000Y-120297234D01*
X230324207Y-119880074D01*
X230004926Y-119560793D01*
X229587766Y-119388000D01*
X229136234Y-119388000D01*
X228719074Y-119560793D01*
X228399793Y-119880074D01*
X228227000Y-120297234D01*
X228227000Y-120748766D01*
X228229682Y-120755242D01*
X228062769Y-120866769D01*
X227879068Y-121141699D01*
X227814560Y-121466000D01*
X227814560Y-121866000D01*
X227879068Y-122190301D01*
X228016678Y-122396250D01*
X227879068Y-122602199D01*
X227814560Y-122926500D01*
X227814560Y-123326500D01*
X227879068Y-123650801D01*
X228062769Y-123925731D01*
X228337699Y-124109432D01*
X228369526Y-124115763D01*
X228357569Y-124127720D01*
X228200000Y-124508126D01*
X228200000Y-124919874D01*
X228357569Y-125300280D01*
X228648720Y-125591431D01*
X228931757Y-125708668D01*
X225864315Y-128415235D01*
X224956297Y-128802928D01*
X225141224Y-128526165D01*
X225219053Y-128134894D01*
X225141224Y-127743623D01*
X224662870Y-126588774D01*
X224602072Y-126497783D01*
X224711720Y-126607431D01*
X225092126Y-126765000D01*
X225503874Y-126765000D01*
X225884280Y-126607431D01*
X226175431Y-126316280D01*
X226333000Y-125935874D01*
X226333000Y-125524126D01*
X226175431Y-125143720D01*
X226063211Y-125031500D01*
X226302431Y-124792280D01*
X226460000Y-124411874D01*
X226460000Y-124268617D01*
X226523262Y-124173940D01*
X226887000Y-124173940D01*
X227211301Y-124109432D01*
X227486231Y-123925731D01*
X227669932Y-123650801D01*
X227734440Y-123326500D01*
X227734440Y-122926500D01*
X227669932Y-122602199D01*
X227532322Y-122396250D01*
X227669932Y-122190301D01*
X227734440Y-121866000D01*
X227734440Y-121466000D01*
X227669932Y-121141699D01*
X227486231Y-120866769D01*
X227211301Y-120683068D01*
X226972000Y-120635468D01*
X226972000Y-118822312D01*
X226987378Y-118745000D01*
X226972000Y-118667688D01*
X226972000Y-118667684D01*
X226926454Y-118438708D01*
X226752953Y-118179047D01*
X226687408Y-118135251D01*
X225018749Y-116466592D01*
X224974953Y-116401047D01*
X224715292Y-116227546D01*
X224486316Y-116182000D01*
X224486312Y-116182000D01*
X224409000Y-116166622D01*
X224331688Y-116182000D01*
X223923532Y-116182000D01*
X223842809Y-116061191D01*
X223632765Y-115920843D01*
X223385000Y-115871560D01*
X222385000Y-115871560D01*
X222137235Y-115920843D01*
X221927191Y-116061191D01*
X221786843Y-116271235D01*
X221737560Y-116519000D01*
X221737560Y-117339000D01*
X221786843Y-117586765D01*
X221881882Y-117729000D01*
X221851040Y-117775158D01*
X221778708Y-117789546D01*
X221523607Y-117960000D01*
X220396459Y-117960000D01*
X220347809Y-117887191D01*
X220137765Y-117746843D01*
X219890000Y-117697560D01*
X218990000Y-117697560D01*
X218742235Y-117746843D01*
X218537440Y-117883684D01*
X218537440Y-117395000D01*
X218488157Y-117147235D01*
X218347809Y-116937191D01*
X218137765Y-116796843D01*
X217890000Y-116747560D01*
X216990000Y-116747560D01*
X216742235Y-116796843D01*
X216673284Y-116842915D01*
X216587578Y-116825867D01*
X216486280Y-116724569D01*
X216105874Y-116567000D01*
X215694126Y-116567000D01*
X215313720Y-116724569D01*
X215022569Y-117015720D01*
X214865000Y-117396126D01*
X214865000Y-117807874D01*
X215022569Y-118188280D01*
X215313720Y-118479431D01*
X215694126Y-118637000D01*
X216105874Y-118637000D01*
X216431503Y-118502120D01*
X216532191Y-118652809D01*
X216665694Y-118742013D01*
X216630302Y-118756673D01*
X216451673Y-118935301D01*
X216355000Y-119168690D01*
X216355000Y-119409250D01*
X216513750Y-119568000D01*
X217313000Y-119568000D01*
X217313000Y-119548000D01*
X217567000Y-119548000D01*
X217567000Y-119568000D01*
X218366250Y-119568000D01*
X218451781Y-119482469D01*
X218532191Y-119602809D01*
X218742235Y-119743157D01*
X218990000Y-119792440D01*
X219890000Y-119792440D01*
X220137765Y-119743157D01*
X220347809Y-119602809D01*
X220396459Y-119530000D01*
X221791688Y-119530000D01*
X221869000Y-119545378D01*
X221946312Y-119530000D01*
X221946316Y-119530000D01*
X222085184Y-119502377D01*
X222137235Y-119537157D01*
X222385000Y-119586440D01*
X223385000Y-119586440D01*
X223632765Y-119537157D01*
X223842809Y-119396809D01*
X223983157Y-119186765D01*
X224032440Y-118939000D01*
X224032440Y-118119000D01*
X223983157Y-117871235D01*
X223903486Y-117752000D01*
X224083843Y-117752000D01*
X225402001Y-119070158D01*
X225402000Y-120635468D01*
X225162699Y-120683068D01*
X224887769Y-120866769D01*
X224821308Y-120966236D01*
X224621047Y-121100047D01*
X224577251Y-121165592D01*
X223527592Y-122215251D01*
X223462047Y-122259047D01*
X223418251Y-122324592D01*
X223288547Y-122518708D01*
X223288546Y-122518709D01*
X223243000Y-122747685D01*
X223243000Y-122747688D01*
X223227622Y-122825000D01*
X223243000Y-122902312D01*
X223243001Y-124382684D01*
X223227622Y-124460000D01*
X223288546Y-124766291D01*
X223418251Y-124960408D01*
X223418254Y-124960411D01*
X223462048Y-125025953D01*
X223527590Y-125069747D01*
X224263000Y-125805158D01*
X224263000Y-125935874D01*
X224378750Y-126215320D01*
X224109530Y-126035433D01*
X223718259Y-125957605D01*
X223326988Y-126035434D01*
X222634078Y-126322447D01*
X222302375Y-126544084D01*
X222080738Y-126875787D01*
X222002909Y-127267058D01*
X222080738Y-127658329D01*
X222559092Y-128813178D01*
X222780729Y-129144882D01*
X223112432Y-129366519D01*
X223469814Y-129437606D01*
X220618644Y-130654960D01*
X220554078Y-130499084D01*
X220220732Y-130165738D01*
X219785194Y-129985333D01*
X219313772Y-129985333D01*
X218878234Y-130165738D01*
X218544888Y-130499084D01*
X218364483Y-130934622D01*
X218364483Y-131406044D01*
X218438877Y-131585647D01*
X217670214Y-131913840D01*
X217879625Y-131773916D01*
X218101262Y-131442213D01*
X218179091Y-131050942D01*
X218101262Y-130659671D01*
X217622908Y-129504822D01*
X217401271Y-129173118D01*
X217069568Y-128951481D01*
X216678297Y-128873653D01*
X216287026Y-128951482D01*
X215594116Y-129238495D01*
X215262413Y-129460132D01*
X215040776Y-129791835D01*
X214962947Y-130183106D01*
X215040776Y-130574377D01*
X215519130Y-131729226D01*
X215740767Y-132060930D01*
X216072470Y-132282567D01*
X216463741Y-132360395D01*
X216764409Y-132300588D01*
X214598016Y-133225565D01*
X212423879Y-133442979D01*
X212676280Y-133338431D01*
X212967431Y-133047280D01*
X213125000Y-132666874D01*
X213125000Y-132255126D01*
X212967431Y-131874720D01*
X212676280Y-131583569D01*
X212295874Y-131426000D01*
X211884126Y-131426000D01*
X211503720Y-131583569D01*
X211436973Y-131650316D01*
X211312072Y-131525414D01*
X211351440Y-131327500D01*
X211351440Y-130927500D01*
X211326476Y-130802000D01*
X211680766Y-130802000D01*
X212097926Y-130629207D01*
X212417207Y-130309926D01*
X212590000Y-129892766D01*
X212590000Y-129441234D01*
X212417207Y-129024074D01*
X212097926Y-128704793D01*
X211680766Y-128532000D01*
X211229234Y-128532000D01*
X210841239Y-128692713D01*
X210828301Y-128684068D01*
X210504000Y-128619560D01*
X209104000Y-128619560D01*
X208779699Y-128684068D01*
X208504769Y-128867769D01*
X208321068Y-129142699D01*
X208256560Y-129467000D01*
X208256560Y-129867000D01*
X208321068Y-130191301D01*
X208458678Y-130397250D01*
X208321068Y-130603199D01*
X208256560Y-130927500D01*
X208256560Y-131327500D01*
X208321068Y-131651801D01*
X208504769Y-131926731D01*
X208779699Y-132110432D01*
X209104000Y-132174940D01*
X209741283Y-132174940D01*
X210527753Y-132961411D01*
X210571547Y-133026953D01*
X210637089Y-133070747D01*
X210637091Y-133070749D01*
X210831208Y-133200454D01*
X211060184Y-133246000D01*
X211060188Y-133246000D01*
X211137500Y-133261378D01*
X211214812Y-133246000D01*
X211411289Y-133246000D01*
X211503720Y-133338431D01*
X211884126Y-133496000D01*
X211893665Y-133496000D01*
X208284193Y-133856947D01*
X201457015Y-132719084D01*
X192216263Y-128921515D01*
X190975523Y-127924057D01*
X193833787Y-127924057D01*
X193919702Y-128131474D01*
X194511502Y-128376605D01*
X194764120Y-128376605D01*
X194997510Y-128279933D01*
X195176138Y-128101305D01*
X195272811Y-127867915D01*
X195363867Y-127648086D01*
X195277952Y-127440669D01*
X194216184Y-127000870D01*
X193833787Y-127924057D01*
X190975523Y-127924057D01*
X189829822Y-127003003D01*
X192524604Y-127003003D01*
X192524604Y-127255622D01*
X192621278Y-127489011D01*
X192799906Y-127667639D01*
X193391705Y-127912770D01*
X193599122Y-127826856D01*
X193981519Y-126903669D01*
X193649652Y-126766205D01*
X194313385Y-126766205D01*
X195375154Y-127206004D01*
X195582571Y-127120089D01*
X195673627Y-126900260D01*
X195770300Y-126666871D01*
X195770300Y-126414252D01*
X195673626Y-126180863D01*
X195494998Y-126002235D01*
X194903199Y-125757104D01*
X194695782Y-125843018D01*
X194313385Y-126766205D01*
X193649652Y-126766205D01*
X192919750Y-126463870D01*
X192712333Y-126549785D01*
X192621277Y-126769614D01*
X192524604Y-127003003D01*
X189829822Y-127003003D01*
X188609287Y-126021788D01*
X192931037Y-126021788D01*
X193016952Y-126229205D01*
X194078720Y-126669004D01*
X194461117Y-125745817D01*
X194375202Y-125538400D01*
X193783402Y-125293269D01*
X193530784Y-125293269D01*
X193297394Y-125389941D01*
X193118766Y-125568569D01*
X193022093Y-125801959D01*
X192931037Y-126021788D01*
X188609287Y-126021788D01*
X185766369Y-123736306D01*
X182753291Y-119659788D01*
X185042338Y-119659788D01*
X185042338Y-120071536D01*
X185199907Y-120451942D01*
X185304435Y-120556470D01*
X185334974Y-120710000D01*
X185337884Y-120724629D01*
X185449083Y-120891049D01*
X185511385Y-120984291D01*
X185576930Y-121028087D01*
X185816928Y-121268085D01*
X185777560Y-121466000D01*
X185777560Y-121866000D01*
X185842068Y-122190301D01*
X185979678Y-122396250D01*
X185842068Y-122602199D01*
X185777560Y-122926500D01*
X185777560Y-123326500D01*
X185842068Y-123650801D01*
X186025769Y-123925731D01*
X186300699Y-124109432D01*
X186625000Y-124173940D01*
X188025000Y-124173940D01*
X188349301Y-124109432D01*
X188624231Y-123925731D01*
X188807932Y-123650801D01*
X188857239Y-123402918D01*
X188952560Y-123307597D01*
X188952560Y-123326500D01*
X189017068Y-123650801D01*
X189200769Y-123925731D01*
X189346311Y-124022978D01*
X189092231Y-124277058D01*
X188934662Y-124657464D01*
X188934662Y-125069212D01*
X189092231Y-125449618D01*
X189383382Y-125740769D01*
X189763788Y-125898338D01*
X190175536Y-125898338D01*
X190555942Y-125740769D01*
X190847093Y-125449618D01*
X191004662Y-125069212D01*
X191004662Y-124939907D01*
X191065953Y-124898953D01*
X191239454Y-124639292D01*
X191285000Y-124410316D01*
X191285000Y-124410311D01*
X191300378Y-124333001D01*
X191285000Y-124255690D01*
X191285000Y-124157032D01*
X191524301Y-124109432D01*
X191799231Y-123925731D01*
X191982932Y-123650801D01*
X192047440Y-123326500D01*
X192047440Y-122926500D01*
X192022476Y-122801000D01*
X192376766Y-122801000D01*
X192793926Y-122628207D01*
X193113207Y-122308926D01*
X193286000Y-121891766D01*
X193286000Y-121440234D01*
X193113207Y-121023074D01*
X192793926Y-120703793D01*
X192376766Y-120531000D01*
X191925234Y-120531000D01*
X191537239Y-120691713D01*
X191524301Y-120683068D01*
X191200000Y-120618560D01*
X189800000Y-120618560D01*
X189634000Y-120651580D01*
X189634000Y-120600310D01*
X189649378Y-120522999D01*
X189634000Y-120445688D01*
X189634000Y-120445684D01*
X189588454Y-120216708D01*
X189543711Y-120149746D01*
X189458749Y-120022591D01*
X189458747Y-120022589D01*
X189414953Y-119957047D01*
X189349410Y-119913253D01*
X188950749Y-119514592D01*
X188906953Y-119449047D01*
X188647292Y-119275546D01*
X188418316Y-119230000D01*
X188418312Y-119230000D01*
X188341000Y-119214622D01*
X188263688Y-119230000D01*
X188003711Y-119230000D01*
X187911280Y-119137569D01*
X187530874Y-118980000D01*
X187119126Y-118980000D01*
X186791213Y-119115826D01*
X186663618Y-118988231D01*
X186283212Y-118830662D01*
X185871464Y-118830662D01*
X185491058Y-118988231D01*
X185199907Y-119279382D01*
X185042338Y-119659788D01*
X182753291Y-119659788D01*
X181466739Y-117919159D01*
X181239763Y-117396126D01*
X192005000Y-117396126D01*
X192005000Y-117807874D01*
X192162569Y-118188280D01*
X192453720Y-118479431D01*
X192834126Y-118637000D01*
X193245874Y-118637000D01*
X193626280Y-118479431D01*
X193917431Y-118188280D01*
X194075000Y-117807874D01*
X194075000Y-117677158D01*
X194221918Y-117530239D01*
X194186560Y-117708000D01*
X194186560Y-118258000D01*
X194235843Y-118505765D01*
X194376191Y-118715809D01*
X194586235Y-118856157D01*
X194834000Y-118905440D01*
X195049000Y-118905440D01*
X195049000Y-119176688D01*
X195033622Y-119254000D01*
X195049000Y-119331312D01*
X195049000Y-119331315D01*
X195094546Y-119560291D01*
X195268047Y-119819953D01*
X195333592Y-119863749D01*
X198242560Y-122772718D01*
X198242560Y-123130000D01*
X198291843Y-123377765D01*
X198432191Y-123587809D01*
X198642235Y-123728157D01*
X198890000Y-123777440D01*
X199890000Y-123777440D01*
X200137765Y-123728157D01*
X200347809Y-123587809D01*
X200488157Y-123377765D01*
X200537440Y-123130000D01*
X200537440Y-122310000D01*
X200488157Y-122062235D01*
X200475304Y-122043000D01*
X201232289Y-122043000D01*
X201179569Y-122095720D01*
X201022000Y-122476126D01*
X201022000Y-122887874D01*
X201179569Y-123268280D01*
X201470720Y-123559431D01*
X201737081Y-123669761D01*
X201144336Y-124262507D01*
X201078794Y-124306301D01*
X201035000Y-124371843D01*
X201034997Y-124371846D01*
X200905292Y-124565963D01*
X200844368Y-124872254D01*
X200859747Y-124949571D01*
X200859746Y-128270015D01*
X200762077Y-128250588D01*
X200389940Y-128324611D01*
X200074458Y-128535409D01*
X199863660Y-128850891D01*
X199614916Y-129451412D01*
X199540893Y-129823549D01*
X199614916Y-130195686D01*
X199825714Y-130511168D01*
X200141197Y-130721967D01*
X201018883Y-131085516D01*
X201391019Y-131159538D01*
X201763156Y-131085515D01*
X202078638Y-130874717D01*
X202082405Y-130869079D01*
X202195569Y-131142280D01*
X202486720Y-131433431D01*
X202867126Y-131591000D01*
X203278874Y-131591000D01*
X203659280Y-131433431D01*
X203929595Y-131163116D01*
X203973569Y-131269280D01*
X204264720Y-131560431D01*
X204645126Y-131718000D01*
X204788383Y-131718000D01*
X204944707Y-131822453D01*
X205173683Y-131867999D01*
X205173686Y-131867999D01*
X205250998Y-131883377D01*
X205294958Y-131874633D01*
X205329769Y-131926731D01*
X205604699Y-132110432D01*
X205929000Y-132174940D01*
X207329000Y-132174940D01*
X207653301Y-132110432D01*
X207928231Y-131926731D01*
X208111932Y-131651801D01*
X208176440Y-131327500D01*
X208176440Y-130927500D01*
X208111932Y-130603199D01*
X207974322Y-130397250D01*
X208111932Y-130191301D01*
X208176440Y-129867000D01*
X208176440Y-129467000D01*
X208111932Y-129142699D01*
X207928231Y-128867769D01*
X207653301Y-128684068D01*
X207329000Y-128619560D01*
X205929000Y-128619560D01*
X205604699Y-128684068D01*
X205329769Y-128867769D01*
X205320260Y-128882000D01*
X204039312Y-128882000D01*
X203962000Y-128866622D01*
X203884688Y-128882000D01*
X203884684Y-128882000D01*
X203655708Y-128927546D01*
X203461591Y-129057251D01*
X203461589Y-129057253D01*
X203396047Y-129101047D01*
X203352253Y-129166589D01*
X202997842Y-129521000D01*
X202867126Y-129521000D01*
X202603529Y-129630185D01*
X202612203Y-129586577D01*
X202538180Y-129214440D01*
X202429746Y-129052157D01*
X202429746Y-128243056D01*
X214088576Y-128243056D01*
X214410244Y-129019631D01*
X214588872Y-129198260D01*
X214822261Y-129294933D01*
X215074880Y-129294933D01*
X215308269Y-129198260D01*
X215620486Y-129068936D01*
X215706401Y-128861519D01*
X215190065Y-127614974D01*
X214174491Y-128035639D01*
X214088576Y-128243056D01*
X202429746Y-128243056D01*
X202429746Y-126685865D01*
X213548204Y-126685865D01*
X213548204Y-126938484D01*
X213869872Y-127715059D01*
X214077289Y-127800974D01*
X215092864Y-127380309D01*
X214576528Y-126133765D01*
X214369111Y-126047850D01*
X214056894Y-126177174D01*
X213823505Y-126273847D01*
X213644877Y-126452476D01*
X213548204Y-126685865D01*
X202429746Y-126685865D01*
X202429746Y-125197411D01*
X203849718Y-123777440D01*
X204335000Y-123777440D01*
X204582765Y-123728157D01*
X204792809Y-123587809D01*
X204933157Y-123377765D01*
X204982440Y-123130000D01*
X204982440Y-122310000D01*
X204933157Y-122062235D01*
X204920304Y-122043000D01*
X205574867Y-122043000D01*
X205652074Y-122120207D01*
X206069234Y-122293000D01*
X206520766Y-122293000D01*
X206937926Y-122120207D01*
X207257207Y-121800926D01*
X207336718Y-121608970D01*
X207452235Y-121686157D01*
X207700000Y-121735440D01*
X211149981Y-121735440D01*
X209764862Y-123120560D01*
X207700000Y-123120560D01*
X207452235Y-123169843D01*
X207242191Y-123310191D01*
X207101843Y-123520235D01*
X207052560Y-123768000D01*
X207052560Y-125438000D01*
X207101843Y-125685765D01*
X207242191Y-125895809D01*
X207452235Y-126036157D01*
X207700000Y-126085440D01*
X211400000Y-126085440D01*
X211645723Y-126036563D01*
X214811193Y-126036563D01*
X215327529Y-127283108D01*
X215346007Y-127275454D01*
X215443208Y-127510119D01*
X215424730Y-127517773D01*
X215941066Y-128764317D01*
X216148483Y-128850232D01*
X216460700Y-128720908D01*
X216694089Y-128624235D01*
X216872717Y-128445606D01*
X216969390Y-128212217D01*
X216969390Y-127959598D01*
X216656289Y-127203706D01*
X216934203Y-127481620D01*
X217369741Y-127662025D01*
X217841163Y-127662025D01*
X218276701Y-127481620D01*
X218610047Y-127148274D01*
X218790452Y-126712736D01*
X218790452Y-126241314D01*
X218610047Y-125805776D01*
X218276701Y-125472430D01*
X217841163Y-125292025D01*
X217369741Y-125292025D01*
X216934203Y-125472430D01*
X216600857Y-125805776D01*
X216420452Y-126241314D01*
X216420452Y-126634346D01*
X216107350Y-125878451D01*
X215928722Y-125699822D01*
X215695333Y-125603149D01*
X215442714Y-125603149D01*
X215209325Y-125699822D01*
X214897108Y-125829146D01*
X214811193Y-126036563D01*
X211645723Y-126036563D01*
X211647765Y-126036157D01*
X211857809Y-125895809D01*
X211998157Y-125685765D01*
X212047440Y-125438000D01*
X212047440Y-124726529D01*
X214281549Y-124726529D01*
X214507546Y-125272135D01*
X214686174Y-125450763D01*
X214919563Y-125547436D01*
X215172182Y-125547436D01*
X215405571Y-125450763D01*
X215717788Y-125321439D01*
X215803703Y-125114022D01*
X215383038Y-124098447D01*
X214367464Y-124519112D01*
X214281549Y-124726529D01*
X212047440Y-124726529D01*
X212047440Y-123768000D01*
X211998157Y-123520235D01*
X211946161Y-123442418D01*
X212456579Y-122932000D01*
X214248045Y-122932000D01*
X214112149Y-122988290D01*
X213933520Y-123166918D01*
X213836848Y-123400308D01*
X213836848Y-123652927D01*
X214062845Y-124198532D01*
X214270262Y-124284447D01*
X215285837Y-123863782D01*
X215278183Y-123845304D01*
X215512848Y-123748103D01*
X215520502Y-123766581D01*
X215538980Y-123758927D01*
X215636181Y-123993592D01*
X215617703Y-124001246D01*
X216038368Y-125016820D01*
X216245785Y-125102735D01*
X216558002Y-124973411D01*
X216791391Y-124876738D01*
X216970020Y-124698110D01*
X217048753Y-124508029D01*
X217360809Y-124570101D01*
X217752080Y-124492273D01*
X218444990Y-124205261D01*
X218776694Y-123983624D01*
X218998331Y-123651921D01*
X219076160Y-123260650D01*
X218998332Y-122869379D01*
X218711320Y-122176469D01*
X218489683Y-121844765D01*
X218157980Y-121623128D01*
X217766709Y-121545299D01*
X217375438Y-121623127D01*
X217366434Y-121626856D01*
X217222425Y-121482847D01*
X217173049Y-121408951D01*
X216880310Y-121213348D01*
X216622165Y-121162000D01*
X216622161Y-121162000D01*
X216535000Y-121144663D01*
X216447839Y-121162000D01*
X212177159Y-121162000D01*
X212089999Y-121144663D01*
X212033952Y-121155811D01*
X212047440Y-121088000D01*
X212047440Y-119980750D01*
X216355000Y-119980750D01*
X216355000Y-120221310D01*
X216451673Y-120454699D01*
X216630302Y-120633327D01*
X216863691Y-120730000D01*
X217154250Y-120730000D01*
X217313000Y-120571250D01*
X217313000Y-119822000D01*
X217567000Y-119822000D01*
X217567000Y-120571250D01*
X217725750Y-120730000D01*
X218016309Y-120730000D01*
X218249698Y-120633327D01*
X218428327Y-120454699D01*
X218525000Y-120221310D01*
X218525000Y-119980750D01*
X218366250Y-119822000D01*
X217567000Y-119822000D01*
X217313000Y-119822000D01*
X216513750Y-119822000D01*
X216355000Y-119980750D01*
X212047440Y-119980750D01*
X212047440Y-119418000D01*
X211998157Y-119170235D01*
X211857809Y-118960191D01*
X211647765Y-118819843D01*
X211400000Y-118770560D01*
X207700000Y-118770560D01*
X207452235Y-118819843D01*
X207242191Y-118960191D01*
X207101843Y-119170235D01*
X207060432Y-119378424D01*
X206854690Y-119419348D01*
X206854688Y-119419349D01*
X206854689Y-119419349D01*
X206635845Y-119565576D01*
X206635844Y-119565577D01*
X206561951Y-119614951D01*
X206512577Y-119688844D01*
X206178421Y-120023000D01*
X206069234Y-120023000D01*
X205652074Y-120195793D01*
X205574867Y-120273000D01*
X204806713Y-120273000D01*
X204792809Y-120252191D01*
X204582765Y-120111843D01*
X204335000Y-120062560D01*
X203335000Y-120062560D01*
X203087235Y-120111843D01*
X202877191Y-120252191D01*
X202863287Y-120273000D01*
X200361713Y-120273000D01*
X200347809Y-120252191D01*
X200137765Y-120111843D01*
X199890000Y-120062560D01*
X198890000Y-120062560D01*
X198642235Y-120111843D01*
X198432191Y-120252191D01*
X198291843Y-120462235D01*
X198268707Y-120578549D01*
X196619000Y-118928843D01*
X196619000Y-118905440D01*
X196834000Y-118905440D01*
X197081765Y-118856157D01*
X197214711Y-118767325D01*
X197440292Y-118722454D01*
X197699953Y-118548953D01*
X197743749Y-118483408D01*
X198366411Y-117860747D01*
X198431953Y-117816953D01*
X198475747Y-117751411D01*
X198475749Y-117751409D01*
X198577057Y-117599791D01*
X198605454Y-117557292D01*
X198651000Y-117328316D01*
X198651000Y-117328312D01*
X198666378Y-117251001D01*
X198651000Y-117173690D01*
X198651000Y-113771690D01*
X201311000Y-113771690D01*
X201311000Y-113887250D01*
X201469750Y-114046000D01*
X202819000Y-114046000D01*
X202819000Y-113421750D01*
X202660250Y-113263000D01*
X201819691Y-113263000D01*
X201586302Y-113359673D01*
X201407673Y-113538301D01*
X201311000Y-113771690D01*
X198651000Y-113771690D01*
X198651000Y-112599310D01*
X198666378Y-112521999D01*
X198651000Y-112444688D01*
X198651000Y-112444684D01*
X198605454Y-112215708D01*
X198525885Y-112096625D01*
X198475749Y-112021591D01*
X198475747Y-112021589D01*
X198431953Y-111956047D01*
X198366411Y-111912253D01*
X196365000Y-109910843D01*
X196365000Y-109574440D01*
X196430000Y-109574440D01*
X196677765Y-109525157D01*
X196887809Y-109384809D01*
X197028157Y-109174765D01*
X197043006Y-109100113D01*
X197278815Y-109335922D01*
X197824615Y-109562000D01*
X198415385Y-109562000D01*
X198961185Y-109335922D01*
X199176149Y-109120958D01*
X199795647Y-109120958D01*
X199875920Y-109372259D01*
X200431279Y-109573718D01*
X201021458Y-109547315D01*
X201444080Y-109372259D01*
X201524353Y-109120958D01*
X200660000Y-108256605D01*
X199795647Y-109120958D01*
X199176149Y-109120958D01*
X199378922Y-108918185D01*
X199398155Y-108871753D01*
X199616042Y-108941353D01*
X200480395Y-108077000D01*
X199616042Y-107212647D01*
X199398155Y-107282247D01*
X199378922Y-107235815D01*
X199176149Y-107033042D01*
X199795647Y-107033042D01*
X200660000Y-107897395D01*
X201524353Y-107033042D01*
X201444080Y-106781741D01*
X200888721Y-106580282D01*
X200298542Y-106606685D01*
X199875920Y-106781741D01*
X199795647Y-107033042D01*
X199176149Y-107033042D01*
X198961185Y-106818078D01*
X198415385Y-106592000D01*
X197824615Y-106592000D01*
X197278815Y-106818078D01*
X197043006Y-107053887D01*
X197028157Y-106979235D01*
X196887809Y-106769191D01*
X196677765Y-106628843D01*
X196430000Y-106579560D01*
X194730000Y-106579560D01*
X194482235Y-106628843D01*
X194272191Y-106769191D01*
X194131843Y-106979235D01*
X194082560Y-107227000D01*
X194082560Y-108927000D01*
X194131843Y-109174765D01*
X194272191Y-109384809D01*
X194482235Y-109525157D01*
X194730000Y-109574440D01*
X194795000Y-109574440D01*
X194795000Y-110158688D01*
X194779622Y-110236000D01*
X194795000Y-110313312D01*
X194795000Y-110313315D01*
X194812517Y-110401378D01*
X194840546Y-110542291D01*
X194947635Y-110702560D01*
X195014047Y-110801953D01*
X195079592Y-110845749D01*
X197081001Y-112847159D01*
X197081001Y-113299691D01*
X196834000Y-113250560D01*
X194834000Y-113250560D01*
X194754505Y-113266372D01*
X194698926Y-113210793D01*
X194281766Y-113038000D01*
X193830234Y-113038000D01*
X193413074Y-113210793D01*
X193093793Y-113530074D01*
X192921000Y-113947234D01*
X192921000Y-114398766D01*
X193093793Y-114815926D01*
X193203550Y-114925683D01*
X193192251Y-114942592D01*
X193091843Y-115043000D01*
X192961126Y-115043000D01*
X192580720Y-115200569D01*
X192289569Y-115491720D01*
X192132000Y-115872126D01*
X192132000Y-116283874D01*
X192289569Y-116664280D01*
X192401789Y-116776500D01*
X192162569Y-117015720D01*
X192005000Y-117396126D01*
X181239763Y-117396126D01*
X178585900Y-111280706D01*
X182043606Y-107823000D01*
X183519001Y-107823000D01*
X183519001Y-108245866D01*
X183441793Y-108323074D01*
X183269000Y-108740234D01*
X183269000Y-109191766D01*
X183441793Y-109608926D01*
X183761074Y-109928207D01*
X184178234Y-110101000D01*
X184629766Y-110101000D01*
X185046926Y-109928207D01*
X185366207Y-109608926D01*
X185539000Y-109191766D01*
X185539000Y-108740234D01*
X185366207Y-108323074D01*
X185289000Y-108245867D01*
X185289000Y-107823000D01*
X188341000Y-107823000D01*
X188389601Y-107813333D01*
X188430803Y-107785803D01*
X193671828Y-102544778D01*
X196612000Y-102544778D01*
X196612000Y-103195222D01*
X196860914Y-103796153D01*
X197320847Y-104256086D01*
X197921778Y-104505000D01*
X198572222Y-104505000D01*
X199173153Y-104256086D01*
X199633086Y-103796153D01*
X199744159Y-103528000D01*
X199924841Y-103528000D01*
X200035914Y-103796153D01*
X200495847Y-104256086D01*
X201096778Y-104505000D01*
X201747222Y-104505000D01*
X202109757Y-104354833D01*
X204735908Y-106980985D01*
X204481078Y-107235815D01*
X204470000Y-107262560D01*
X204458922Y-107235815D01*
X204041185Y-106818078D01*
X203495385Y-106592000D01*
X202904615Y-106592000D01*
X202358815Y-106818078D01*
X201941078Y-107235815D01*
X201921845Y-107282247D01*
X201703958Y-107212647D01*
X200839605Y-108077000D01*
X201703958Y-108941353D01*
X201921845Y-108871753D01*
X201941078Y-108918185D01*
X202358815Y-109335922D01*
X202904615Y-109562000D01*
X203495385Y-109562000D01*
X203551570Y-109538727D01*
X203939000Y-109926158D01*
X203939001Y-113263000D01*
X203231750Y-113263000D01*
X203073000Y-113421750D01*
X203073000Y-114046000D01*
X203093000Y-114046000D01*
X203093000Y-114300000D01*
X203073000Y-114300000D01*
X203073000Y-114320000D01*
X202819000Y-114320000D01*
X202819000Y-114300000D01*
X201469750Y-114300000D01*
X201311000Y-114458750D01*
X201311000Y-114574310D01*
X201407673Y-114807699D01*
X201416883Y-114816909D01*
X201347843Y-114920235D01*
X201298560Y-115168000D01*
X201298560Y-115718000D01*
X201322060Y-115836143D01*
X201246874Y-115805000D01*
X200835126Y-115805000D01*
X200454720Y-115962569D01*
X200163569Y-116253720D01*
X200006000Y-116634126D01*
X200006000Y-117045874D01*
X200163569Y-117426280D01*
X200454720Y-117717431D01*
X200835126Y-117875000D01*
X201246874Y-117875000D01*
X201298560Y-117853591D01*
X201298560Y-118258000D01*
X201347843Y-118505765D01*
X201488191Y-118715809D01*
X201698235Y-118856157D01*
X201946000Y-118905440D01*
X203946000Y-118905440D01*
X204193765Y-118856157D01*
X204325700Y-118768000D01*
X205029947Y-118768000D01*
X205107259Y-118783378D01*
X205184571Y-118768000D01*
X205184575Y-118768000D01*
X205413551Y-118722454D01*
X205673212Y-118548953D01*
X205717008Y-118483408D01*
X205965624Y-118234792D01*
X206096341Y-118234792D01*
X206476747Y-118077223D01*
X206767898Y-117786072D01*
X206925467Y-117405666D01*
X206925467Y-117125750D01*
X211140000Y-117125750D01*
X211140000Y-117916309D01*
X211236673Y-118149698D01*
X211415301Y-118328327D01*
X211648690Y-118425000D01*
X212439250Y-118425000D01*
X212598000Y-118266250D01*
X212598000Y-116967000D01*
X212852000Y-116967000D01*
X212852000Y-118266250D01*
X213010750Y-118425000D01*
X213801310Y-118425000D01*
X214034699Y-118328327D01*
X214213327Y-118149698D01*
X214310000Y-117916309D01*
X214310000Y-117125750D01*
X214151250Y-116967000D01*
X212852000Y-116967000D01*
X212598000Y-116967000D01*
X211298750Y-116967000D01*
X211140000Y-117125750D01*
X206925467Y-117125750D01*
X206925467Y-116993918D01*
X206767898Y-116613512D01*
X206476747Y-116322361D01*
X206096341Y-116164792D01*
X205904366Y-116164792D01*
X206048408Y-116020750D01*
X207145000Y-116020750D01*
X207145000Y-116271309D01*
X207241673Y-116504698D01*
X207420301Y-116683327D01*
X207653690Y-116780000D01*
X207994250Y-116780000D01*
X208153000Y-116621250D01*
X208153000Y-115862000D01*
X208407000Y-115862000D01*
X208407000Y-116621250D01*
X208565750Y-116780000D01*
X208906310Y-116780000D01*
X209139699Y-116683327D01*
X209318327Y-116504698D01*
X209415000Y-116271309D01*
X209415000Y-116020750D01*
X209256250Y-115862000D01*
X208407000Y-115862000D01*
X208153000Y-115862000D01*
X207303750Y-115862000D01*
X207145000Y-116020750D01*
X206048408Y-116020750D01*
X206125410Y-115943748D01*
X206190952Y-115899954D01*
X206234746Y-115834412D01*
X206234748Y-115834410D01*
X206282000Y-115763691D01*
X211140000Y-115763691D01*
X211140000Y-116554250D01*
X211298750Y-116713000D01*
X212598000Y-116713000D01*
X212598000Y-115413750D01*
X212852000Y-115413750D01*
X212852000Y-116713000D01*
X214151250Y-116713000D01*
X214310000Y-116554250D01*
X214310000Y-115763691D01*
X214213327Y-115530302D01*
X214034699Y-115351673D01*
X213801310Y-115255000D01*
X213010750Y-115255000D01*
X212852000Y-115413750D01*
X212598000Y-115413750D01*
X212439250Y-115255000D01*
X211648690Y-115255000D01*
X211415301Y-115351673D01*
X211236673Y-115530302D01*
X211140000Y-115763691D01*
X206282000Y-115763691D01*
X206364453Y-115640293D01*
X206386331Y-115530302D01*
X206409999Y-115411317D01*
X206409999Y-115411314D01*
X206425377Y-115334002D01*
X206409999Y-115256690D01*
X206409999Y-113725000D01*
X207132560Y-113725000D01*
X207132560Y-114545000D01*
X207181843Y-114792765D01*
X207274917Y-114932058D01*
X207241673Y-114965302D01*
X207145000Y-115198691D01*
X207145000Y-115449250D01*
X207303750Y-115608000D01*
X208153000Y-115608000D01*
X208153000Y-115588000D01*
X208407000Y-115588000D01*
X208407000Y-115608000D01*
X209256250Y-115608000D01*
X209415000Y-115449250D01*
X209415000Y-115198691D01*
X209356724Y-115058000D01*
X209409839Y-115058000D01*
X209497000Y-115075337D01*
X209584161Y-115058000D01*
X209584165Y-115058000D01*
X209842310Y-115006652D01*
X210135049Y-114811049D01*
X210184425Y-114737153D01*
X210274828Y-114646750D01*
X216355000Y-114646750D01*
X216355000Y-114887310D01*
X216451673Y-115120699D01*
X216630302Y-115299327D01*
X216863691Y-115396000D01*
X217154250Y-115396000D01*
X217313000Y-115237250D01*
X217313000Y-114488000D01*
X217567000Y-114488000D01*
X217567000Y-115237250D01*
X217725750Y-115396000D01*
X218016309Y-115396000D01*
X218249698Y-115299327D01*
X218428327Y-115120699D01*
X218525000Y-114887310D01*
X218525000Y-114646750D01*
X218366250Y-114488000D01*
X217567000Y-114488000D01*
X217313000Y-114488000D01*
X216513750Y-114488000D01*
X216355000Y-114646750D01*
X210274828Y-114646750D01*
X210502578Y-114419000D01*
X210611766Y-114419000D01*
X211028926Y-114246207D01*
X211348207Y-113926926D01*
X211381750Y-113845946D01*
X211527235Y-113943157D01*
X211775000Y-113992440D01*
X213675000Y-113992440D01*
X213922765Y-113943157D01*
X214132809Y-113802809D01*
X214273157Y-113592765D01*
X214322440Y-113345000D01*
X214322440Y-111445000D01*
X214273157Y-111197235D01*
X214132809Y-110987191D01*
X213922765Y-110846843D01*
X213675000Y-110797560D01*
X211775000Y-110797560D01*
X211527235Y-110846843D01*
X211317191Y-110987191D01*
X211176843Y-111197235D01*
X211127560Y-111445000D01*
X211127560Y-111521989D01*
X210929690Y-111561348D01*
X210710845Y-111707576D01*
X210710844Y-111707577D01*
X210636951Y-111756951D01*
X210587577Y-111830844D01*
X210269421Y-112149000D01*
X210160234Y-112149000D01*
X209743074Y-112321793D01*
X209423793Y-112641074D01*
X209251000Y-113058234D01*
X209251000Y-113167422D01*
X209185909Y-113232512D01*
X209027765Y-113126843D01*
X208780000Y-113077560D01*
X207780000Y-113077560D01*
X207532235Y-113126843D01*
X207322191Y-113267191D01*
X207181843Y-113477235D01*
X207132560Y-113725000D01*
X206409999Y-113725000D01*
X206409999Y-109689319D01*
X206479454Y-109585373D01*
X206524394Y-109359446D01*
X206581185Y-109335922D01*
X206998922Y-108918185D01*
X207010000Y-108891440D01*
X207021078Y-108918185D01*
X207438815Y-109335922D01*
X207984615Y-109562000D01*
X208575385Y-109562000D01*
X209121185Y-109335922D01*
X209144357Y-109312750D01*
X216355000Y-109312750D01*
X216355000Y-109553310D01*
X216451673Y-109786699D01*
X216630302Y-109965327D01*
X216863691Y-110062000D01*
X217154250Y-110062000D01*
X217313000Y-109903250D01*
X217313000Y-109154000D01*
X217567000Y-109154000D01*
X217567000Y-109903250D01*
X217725750Y-110062000D01*
X218016309Y-110062000D01*
X218249698Y-109965327D01*
X218428327Y-109786699D01*
X218525000Y-109553310D01*
X218525000Y-109312750D01*
X218366250Y-109154000D01*
X217567000Y-109154000D01*
X217313000Y-109154000D01*
X216513750Y-109154000D01*
X216355000Y-109312750D01*
X209144357Y-109312750D01*
X209538922Y-108918185D01*
X209765000Y-108372385D01*
X209765000Y-107781615D01*
X209538922Y-107235815D01*
X209121185Y-106818078D01*
X208575385Y-106592000D01*
X207984615Y-106592000D01*
X207438815Y-106818078D01*
X207021078Y-107235815D01*
X207010000Y-107262560D01*
X206998922Y-107235815D01*
X206581185Y-106818078D01*
X206524394Y-106794554D01*
X206479454Y-106568627D01*
X206451197Y-106526338D01*
X206349749Y-106374510D01*
X206349747Y-106374508D01*
X206305953Y-106308966D01*
X206240411Y-106265172D01*
X203997771Y-104022532D01*
X213784073Y-104022532D01*
X213882736Y-104289387D01*
X214492461Y-104515908D01*
X215142460Y-104491856D01*
X215631264Y-104289387D01*
X215729927Y-104022532D01*
X217594073Y-104022532D01*
X217692736Y-104289387D01*
X218302461Y-104515908D01*
X218952460Y-104491856D01*
X219441264Y-104289387D01*
X219539927Y-104022532D01*
X218567000Y-103049605D01*
X217594073Y-104022532D01*
X215729927Y-104022532D01*
X214757000Y-103049605D01*
X213784073Y-104022532D01*
X203997771Y-104022532D01*
X203057000Y-103081762D01*
X203057000Y-102605461D01*
X213111092Y-102605461D01*
X213135144Y-103255460D01*
X213337613Y-103744264D01*
X213604468Y-103842927D01*
X214577395Y-102870000D01*
X214936605Y-102870000D01*
X215909532Y-103842927D01*
X216176387Y-103744264D01*
X216402908Y-103134539D01*
X216383331Y-102605461D01*
X216921092Y-102605461D01*
X216945144Y-103255460D01*
X217147613Y-103744264D01*
X217414468Y-103842927D01*
X218387395Y-102870000D01*
X218746605Y-102870000D01*
X219719532Y-103842927D01*
X219986387Y-103744264D01*
X220212908Y-103134539D01*
X220188856Y-102484540D01*
X219986387Y-101995736D01*
X219719532Y-101897073D01*
X218746605Y-102870000D01*
X218387395Y-102870000D01*
X217414468Y-101897073D01*
X217147613Y-101995736D01*
X216921092Y-102605461D01*
X216383331Y-102605461D01*
X216378856Y-102484540D01*
X216176387Y-101995736D01*
X215909532Y-101897073D01*
X214936605Y-102870000D01*
X214577395Y-102870000D01*
X213604468Y-101897073D01*
X213337613Y-101995736D01*
X213111092Y-102605461D01*
X203057000Y-102605461D01*
X203057000Y-102544778D01*
X202808086Y-101943847D01*
X202581707Y-101717468D01*
X213784073Y-101717468D01*
X214757000Y-102690395D01*
X215729927Y-101717468D01*
X217594073Y-101717468D01*
X218567000Y-102690395D01*
X219539927Y-101717468D01*
X219441264Y-101450613D01*
X218831539Y-101224092D01*
X218181540Y-101248144D01*
X217692736Y-101450613D01*
X217594073Y-101717468D01*
X215729927Y-101717468D01*
X215631264Y-101450613D01*
X215021539Y-101224092D01*
X214371540Y-101248144D01*
X213882736Y-101450613D01*
X213784073Y-101717468D01*
X202581707Y-101717468D01*
X202348153Y-101483914D01*
X201747222Y-101235000D01*
X201096778Y-101235000D01*
X200495847Y-101483914D01*
X200035914Y-101943847D01*
X200030052Y-101958000D01*
X199638948Y-101958000D01*
X199633086Y-101943847D01*
X199173153Y-101483914D01*
X198572222Y-101235000D01*
X197921778Y-101235000D01*
X197320847Y-101483914D01*
X196860914Y-101943847D01*
X196612000Y-102544778D01*
X193671828Y-102544778D01*
X196013883Y-100202723D01*
X220038671Y-100076277D01*
X225857394Y-105895000D01*
X225857394Y-105895000D01*
G37*
X225857394Y-105895000D02*
X224297066Y-105895000D01*
X224118292Y-105775546D01*
X224045960Y-105761158D01*
X223969809Y-105647191D01*
X223759765Y-105506843D01*
X223512000Y-105457560D01*
X222512000Y-105457560D01*
X222264235Y-105506843D01*
X222054191Y-105647191D01*
X221913843Y-105857235D01*
X221864560Y-106105000D01*
X221864560Y-106925000D01*
X221913843Y-107172765D01*
X222008882Y-107315000D01*
X221998859Y-107330000D01*
X220421850Y-107330000D01*
X220347809Y-107219191D01*
X220137765Y-107078843D01*
X219890000Y-107029560D01*
X218990000Y-107029560D01*
X218742235Y-107078843D01*
X218537440Y-107215684D01*
X218537440Y-106727000D01*
X218488157Y-106479235D01*
X218347809Y-106269191D01*
X218137765Y-106128843D01*
X217890000Y-106079560D01*
X216990000Y-106079560D01*
X216742235Y-106128843D01*
X216532191Y-106269191D01*
X216442782Y-106403000D01*
X216197711Y-106403000D01*
X216105280Y-106310569D01*
X215724874Y-106153000D01*
X215313126Y-106153000D01*
X214932720Y-106310569D01*
X214641569Y-106601720D01*
X214484000Y-106982126D01*
X214484000Y-107393874D01*
X214641569Y-107774280D01*
X214932720Y-108065431D01*
X215313126Y-108223000D01*
X215724874Y-108223000D01*
X216105280Y-108065431D01*
X216197711Y-107973000D01*
X216524300Y-107973000D01*
X216532191Y-107984809D01*
X216665694Y-108074013D01*
X216630302Y-108088673D01*
X216451673Y-108267301D01*
X216355000Y-108500690D01*
X216355000Y-108741250D01*
X216513750Y-108900000D01*
X217313000Y-108900000D01*
X217313000Y-108880000D01*
X217567000Y-108880000D01*
X217567000Y-108900000D01*
X218366250Y-108900000D01*
X218451781Y-108814469D01*
X218532191Y-108934809D01*
X218742235Y-109075157D01*
X218990000Y-109124440D01*
X219890000Y-109124440D01*
X220137765Y-109075157D01*
X220347809Y-108934809D01*
X220371068Y-108900000D01*
X221998859Y-108900000D01*
X222054191Y-108982809D01*
X222264235Y-109123157D01*
X222512000Y-109172440D01*
X223512000Y-109172440D01*
X223759765Y-109123157D01*
X223969809Y-108982809D01*
X224110157Y-108772765D01*
X224159440Y-108525000D01*
X224159440Y-107705000D01*
X224111702Y-107465000D01*
X230415289Y-107465000D01*
X230135569Y-107744720D01*
X230052197Y-107945999D01*
X228150311Y-107945999D01*
X228073000Y-107930621D01*
X227995689Y-107945999D01*
X227995685Y-107945999D01*
X227766709Y-107991545D01*
X227647626Y-108071114D01*
X227572592Y-108121250D01*
X227572590Y-108121252D01*
X227507048Y-108165046D01*
X227463254Y-108230588D01*
X224718843Y-110975000D01*
X224025141Y-110975000D01*
X223969809Y-110892191D01*
X223759765Y-110751843D01*
X223512000Y-110702560D01*
X222512000Y-110702560D01*
X222264235Y-110751843D01*
X222054191Y-110892191D01*
X221913843Y-111102235D01*
X221864560Y-111350000D01*
X221864560Y-112170000D01*
X221913843Y-112417765D01*
X222008882Y-112560000D01*
X221998859Y-112575000D01*
X220362381Y-112575000D01*
X220347809Y-112553191D01*
X220137765Y-112412843D01*
X219890000Y-112363560D01*
X218990000Y-112363560D01*
X218742235Y-112412843D01*
X218537440Y-112549684D01*
X218537440Y-112061000D01*
X218488157Y-111813235D01*
X218347809Y-111603191D01*
X218137765Y-111462843D01*
X217890000Y-111413560D01*
X216990000Y-111413560D01*
X216742235Y-111462843D01*
X216532191Y-111603191D01*
X216391843Y-111813235D01*
X216381745Y-111864000D01*
X216070711Y-111864000D01*
X215978280Y-111771569D01*
X215597874Y-111614000D01*
X215186126Y-111614000D01*
X214805720Y-111771569D01*
X214514569Y-112062720D01*
X214357000Y-112443126D01*
X214357000Y-112854874D01*
X214514569Y-113235280D01*
X214805720Y-113526431D01*
X215186126Y-113684000D01*
X215597874Y-113684000D01*
X215978280Y-113526431D01*
X216070711Y-113434000D01*
X216618975Y-113434000D01*
X216451673Y-113601301D01*
X216355000Y-113834690D01*
X216355000Y-114075250D01*
X216513750Y-114234000D01*
X217313000Y-114234000D01*
X217313000Y-114214000D01*
X217567000Y-114214000D01*
X217567000Y-114234000D01*
X218366250Y-114234000D01*
X218451781Y-114148469D01*
X218532191Y-114268809D01*
X218742235Y-114409157D01*
X218990000Y-114458440D01*
X219890000Y-114458440D01*
X220137765Y-114409157D01*
X220347809Y-114268809D01*
X220430536Y-114145000D01*
X221998859Y-114145000D01*
X222054191Y-114227809D01*
X222264235Y-114368157D01*
X222512000Y-114417440D01*
X223512000Y-114417440D01*
X223759765Y-114368157D01*
X223969809Y-114227809D01*
X224110157Y-114017765D01*
X224159440Y-113770000D01*
X224159440Y-112950000D01*
X224110157Y-112702235D01*
X224015118Y-112560000D01*
X224025141Y-112545000D01*
X224966688Y-112545000D01*
X225044000Y-112560378D01*
X225121312Y-112545000D01*
X225121316Y-112545000D01*
X225350292Y-112499454D01*
X225609953Y-112325953D01*
X225653749Y-112260408D01*
X228398159Y-109515999D01*
X230535689Y-109515999D01*
X230613001Y-109531377D01*
X230690313Y-109515999D01*
X230690317Y-109515999D01*
X230919293Y-109470453D01*
X231075617Y-109366000D01*
X231218874Y-109366000D01*
X231599280Y-109208431D01*
X231890431Y-108917280D01*
X232048000Y-108536874D01*
X232048000Y-108125126D01*
X231890431Y-107744720D01*
X231610711Y-107465000D01*
X236650688Y-107465000D01*
X236728000Y-107480378D01*
X236805312Y-107465000D01*
X236805316Y-107465000D01*
X237034292Y-107419454D01*
X237293953Y-107245953D01*
X237337749Y-107180408D01*
X237637776Y-106880382D01*
X238744984Y-107987590D01*
X236990638Y-114378421D01*
X232309779Y-122728060D01*
X230270000Y-124527865D01*
X230270000Y-124508126D01*
X230126280Y-124161154D01*
X230386301Y-124109432D01*
X230661231Y-123925731D01*
X230844932Y-123650801D01*
X230909440Y-123326500D01*
X230909440Y-122926500D01*
X230844932Y-122602199D01*
X230707322Y-122396250D01*
X230844932Y-122190301D01*
X230909440Y-121866000D01*
X230909440Y-121466000D01*
X230844932Y-121141699D01*
X230661231Y-120866769D01*
X230494318Y-120755242D01*
X230497000Y-120748766D01*
X230497000Y-120297234D01*
X230324207Y-119880074D01*
X230004926Y-119560793D01*
X229587766Y-119388000D01*
X229136234Y-119388000D01*
X228719074Y-119560793D01*
X228399793Y-119880074D01*
X228227000Y-120297234D01*
X228227000Y-120748766D01*
X228229682Y-120755242D01*
X228062769Y-120866769D01*
X227879068Y-121141699D01*
X227814560Y-121466000D01*
X227814560Y-121866000D01*
X227879068Y-122190301D01*
X228016678Y-122396250D01*
X227879068Y-122602199D01*
X227814560Y-122926500D01*
X227814560Y-123326500D01*
X227879068Y-123650801D01*
X228062769Y-123925731D01*
X228337699Y-124109432D01*
X228369526Y-124115763D01*
X228357569Y-124127720D01*
X228200000Y-124508126D01*
X228200000Y-124919874D01*
X228357569Y-125300280D01*
X228648720Y-125591431D01*
X228931757Y-125708668D01*
X225864315Y-128415235D01*
X224956297Y-128802928D01*
X225141224Y-128526165D01*
X225219053Y-128134894D01*
X225141224Y-127743623D01*
X224662870Y-126588774D01*
X224602072Y-126497783D01*
X224711720Y-126607431D01*
X225092126Y-126765000D01*
X225503874Y-126765000D01*
X225884280Y-126607431D01*
X226175431Y-126316280D01*
X226333000Y-125935874D01*
X226333000Y-125524126D01*
X226175431Y-125143720D01*
X226063211Y-125031500D01*
X226302431Y-124792280D01*
X226460000Y-124411874D01*
X226460000Y-124268617D01*
X226523262Y-124173940D01*
X226887000Y-124173940D01*
X227211301Y-124109432D01*
X227486231Y-123925731D01*
X227669932Y-123650801D01*
X227734440Y-123326500D01*
X227734440Y-122926500D01*
X227669932Y-122602199D01*
X227532322Y-122396250D01*
X227669932Y-122190301D01*
X227734440Y-121866000D01*
X227734440Y-121466000D01*
X227669932Y-121141699D01*
X227486231Y-120866769D01*
X227211301Y-120683068D01*
X226972000Y-120635468D01*
X226972000Y-118822312D01*
X226987378Y-118745000D01*
X226972000Y-118667688D01*
X226972000Y-118667684D01*
X226926454Y-118438708D01*
X226752953Y-118179047D01*
X226687408Y-118135251D01*
X225018749Y-116466592D01*
X224974953Y-116401047D01*
X224715292Y-116227546D01*
X224486316Y-116182000D01*
X224486312Y-116182000D01*
X224409000Y-116166622D01*
X224331688Y-116182000D01*
X223923532Y-116182000D01*
X223842809Y-116061191D01*
X223632765Y-115920843D01*
X223385000Y-115871560D01*
X222385000Y-115871560D01*
X222137235Y-115920843D01*
X221927191Y-116061191D01*
X221786843Y-116271235D01*
X221737560Y-116519000D01*
X221737560Y-117339000D01*
X221786843Y-117586765D01*
X221881882Y-117729000D01*
X221851040Y-117775158D01*
X221778708Y-117789546D01*
X221523607Y-117960000D01*
X220396459Y-117960000D01*
X220347809Y-117887191D01*
X220137765Y-117746843D01*
X219890000Y-117697560D01*
X218990000Y-117697560D01*
X218742235Y-117746843D01*
X218537440Y-117883684D01*
X218537440Y-117395000D01*
X218488157Y-117147235D01*
X218347809Y-116937191D01*
X218137765Y-116796843D01*
X217890000Y-116747560D01*
X216990000Y-116747560D01*
X216742235Y-116796843D01*
X216673284Y-116842915D01*
X216587578Y-116825867D01*
X216486280Y-116724569D01*
X216105874Y-116567000D01*
X215694126Y-116567000D01*
X215313720Y-116724569D01*
X215022569Y-117015720D01*
X214865000Y-117396126D01*
X214865000Y-117807874D01*
X215022569Y-118188280D01*
X215313720Y-118479431D01*
X215694126Y-118637000D01*
X216105874Y-118637000D01*
X216431503Y-118502120D01*
X216532191Y-118652809D01*
X216665694Y-118742013D01*
X216630302Y-118756673D01*
X216451673Y-118935301D01*
X216355000Y-119168690D01*
X216355000Y-119409250D01*
X216513750Y-119568000D01*
X217313000Y-119568000D01*
X217313000Y-119548000D01*
X217567000Y-119548000D01*
X217567000Y-119568000D01*
X218366250Y-119568000D01*
X218451781Y-119482469D01*
X218532191Y-119602809D01*
X218742235Y-119743157D01*
X218990000Y-119792440D01*
X219890000Y-119792440D01*
X220137765Y-119743157D01*
X220347809Y-119602809D01*
X220396459Y-119530000D01*
X221791688Y-119530000D01*
X221869000Y-119545378D01*
X221946312Y-119530000D01*
X221946316Y-119530000D01*
X222085184Y-119502377D01*
X222137235Y-119537157D01*
X222385000Y-119586440D01*
X223385000Y-119586440D01*
X223632765Y-119537157D01*
X223842809Y-119396809D01*
X223983157Y-119186765D01*
X224032440Y-118939000D01*
X224032440Y-118119000D01*
X223983157Y-117871235D01*
X223903486Y-117752000D01*
X224083843Y-117752000D01*
X225402001Y-119070158D01*
X225402000Y-120635468D01*
X225162699Y-120683068D01*
X224887769Y-120866769D01*
X224821308Y-120966236D01*
X224621047Y-121100047D01*
X224577251Y-121165592D01*
X223527592Y-122215251D01*
X223462047Y-122259047D01*
X223418251Y-122324592D01*
X223288547Y-122518708D01*
X223288546Y-122518709D01*
X223243000Y-122747685D01*
X223243000Y-122747688D01*
X223227622Y-122825000D01*
X223243000Y-122902312D01*
X223243001Y-124382684D01*
X223227622Y-124460000D01*
X223288546Y-124766291D01*
X223418251Y-124960408D01*
X223418254Y-124960411D01*
X223462048Y-125025953D01*
X223527590Y-125069747D01*
X224263000Y-125805158D01*
X224263000Y-125935874D01*
X224378750Y-126215320D01*
X224109530Y-126035433D01*
X223718259Y-125957605D01*
X223326988Y-126035434D01*
X222634078Y-126322447D01*
X222302375Y-126544084D01*
X222080738Y-126875787D01*
X222002909Y-127267058D01*
X222080738Y-127658329D01*
X222559092Y-128813178D01*
X222780729Y-129144882D01*
X223112432Y-129366519D01*
X223469814Y-129437606D01*
X220618644Y-130654960D01*
X220554078Y-130499084D01*
X220220732Y-130165738D01*
X219785194Y-129985333D01*
X219313772Y-129985333D01*
X218878234Y-130165738D01*
X218544888Y-130499084D01*
X218364483Y-130934622D01*
X218364483Y-131406044D01*
X218438877Y-131585647D01*
X217670214Y-131913840D01*
X217879625Y-131773916D01*
X218101262Y-131442213D01*
X218179091Y-131050942D01*
X218101262Y-130659671D01*
X217622908Y-129504822D01*
X217401271Y-129173118D01*
X217069568Y-128951481D01*
X216678297Y-128873653D01*
X216287026Y-128951482D01*
X215594116Y-129238495D01*
X215262413Y-129460132D01*
X215040776Y-129791835D01*
X214962947Y-130183106D01*
X215040776Y-130574377D01*
X215519130Y-131729226D01*
X215740767Y-132060930D01*
X216072470Y-132282567D01*
X216463741Y-132360395D01*
X216764409Y-132300588D01*
X214598016Y-133225565D01*
X212423879Y-133442979D01*
X212676280Y-133338431D01*
X212967431Y-133047280D01*
X213125000Y-132666874D01*
X213125000Y-132255126D01*
X212967431Y-131874720D01*
X212676280Y-131583569D01*
X212295874Y-131426000D01*
X211884126Y-131426000D01*
X211503720Y-131583569D01*
X211436973Y-131650316D01*
X211312072Y-131525414D01*
X211351440Y-131327500D01*
X211351440Y-130927500D01*
X211326476Y-130802000D01*
X211680766Y-130802000D01*
X212097926Y-130629207D01*
X212417207Y-130309926D01*
X212590000Y-129892766D01*
X212590000Y-129441234D01*
X212417207Y-129024074D01*
X212097926Y-128704793D01*
X211680766Y-128532000D01*
X211229234Y-128532000D01*
X210841239Y-128692713D01*
X210828301Y-128684068D01*
X210504000Y-128619560D01*
X209104000Y-128619560D01*
X208779699Y-128684068D01*
X208504769Y-128867769D01*
X208321068Y-129142699D01*
X208256560Y-129467000D01*
X208256560Y-129867000D01*
X208321068Y-130191301D01*
X208458678Y-130397250D01*
X208321068Y-130603199D01*
X208256560Y-130927500D01*
X208256560Y-131327500D01*
X208321068Y-131651801D01*
X208504769Y-131926731D01*
X208779699Y-132110432D01*
X209104000Y-132174940D01*
X209741283Y-132174940D01*
X210527753Y-132961411D01*
X210571547Y-133026953D01*
X210637089Y-133070747D01*
X210637091Y-133070749D01*
X210831208Y-133200454D01*
X211060184Y-133246000D01*
X211060188Y-133246000D01*
X211137500Y-133261378D01*
X211214812Y-133246000D01*
X211411289Y-133246000D01*
X211503720Y-133338431D01*
X211884126Y-133496000D01*
X211893665Y-133496000D01*
X208284193Y-133856947D01*
X201457015Y-132719084D01*
X192216263Y-128921515D01*
X190975523Y-127924057D01*
X193833787Y-127924057D01*
X193919702Y-128131474D01*
X194511502Y-128376605D01*
X194764120Y-128376605D01*
X194997510Y-128279933D01*
X195176138Y-128101305D01*
X195272811Y-127867915D01*
X195363867Y-127648086D01*
X195277952Y-127440669D01*
X194216184Y-127000870D01*
X193833787Y-127924057D01*
X190975523Y-127924057D01*
X189829822Y-127003003D01*
X192524604Y-127003003D01*
X192524604Y-127255622D01*
X192621278Y-127489011D01*
X192799906Y-127667639D01*
X193391705Y-127912770D01*
X193599122Y-127826856D01*
X193981519Y-126903669D01*
X193649652Y-126766205D01*
X194313385Y-126766205D01*
X195375154Y-127206004D01*
X195582571Y-127120089D01*
X195673627Y-126900260D01*
X195770300Y-126666871D01*
X195770300Y-126414252D01*
X195673626Y-126180863D01*
X195494998Y-126002235D01*
X194903199Y-125757104D01*
X194695782Y-125843018D01*
X194313385Y-126766205D01*
X193649652Y-126766205D01*
X192919750Y-126463870D01*
X192712333Y-126549785D01*
X192621277Y-126769614D01*
X192524604Y-127003003D01*
X189829822Y-127003003D01*
X188609287Y-126021788D01*
X192931037Y-126021788D01*
X193016952Y-126229205D01*
X194078720Y-126669004D01*
X194461117Y-125745817D01*
X194375202Y-125538400D01*
X193783402Y-125293269D01*
X193530784Y-125293269D01*
X193297394Y-125389941D01*
X193118766Y-125568569D01*
X193022093Y-125801959D01*
X192931037Y-126021788D01*
X188609287Y-126021788D01*
X185766369Y-123736306D01*
X182753291Y-119659788D01*
X185042338Y-119659788D01*
X185042338Y-120071536D01*
X185199907Y-120451942D01*
X185304435Y-120556470D01*
X185334974Y-120710000D01*
X185337884Y-120724629D01*
X185449083Y-120891049D01*
X185511385Y-120984291D01*
X185576930Y-121028087D01*
X185816928Y-121268085D01*
X185777560Y-121466000D01*
X185777560Y-121866000D01*
X185842068Y-122190301D01*
X185979678Y-122396250D01*
X185842068Y-122602199D01*
X185777560Y-122926500D01*
X185777560Y-123326500D01*
X185842068Y-123650801D01*
X186025769Y-123925731D01*
X186300699Y-124109432D01*
X186625000Y-124173940D01*
X188025000Y-124173940D01*
X188349301Y-124109432D01*
X188624231Y-123925731D01*
X188807932Y-123650801D01*
X188857239Y-123402918D01*
X188952560Y-123307597D01*
X188952560Y-123326500D01*
X189017068Y-123650801D01*
X189200769Y-123925731D01*
X189346311Y-124022978D01*
X189092231Y-124277058D01*
X188934662Y-124657464D01*
X188934662Y-125069212D01*
X189092231Y-125449618D01*
X189383382Y-125740769D01*
X189763788Y-125898338D01*
X190175536Y-125898338D01*
X190555942Y-125740769D01*
X190847093Y-125449618D01*
X191004662Y-125069212D01*
X191004662Y-124939907D01*
X191065953Y-124898953D01*
X191239454Y-124639292D01*
X191285000Y-124410316D01*
X191285000Y-124410311D01*
X191300378Y-124333001D01*
X191285000Y-124255690D01*
X191285000Y-124157032D01*
X191524301Y-124109432D01*
X191799231Y-123925731D01*
X191982932Y-123650801D01*
X192047440Y-123326500D01*
X192047440Y-122926500D01*
X192022476Y-122801000D01*
X192376766Y-122801000D01*
X192793926Y-122628207D01*
X193113207Y-122308926D01*
X193286000Y-121891766D01*
X193286000Y-121440234D01*
X193113207Y-121023074D01*
X192793926Y-120703793D01*
X192376766Y-120531000D01*
X191925234Y-120531000D01*
X191537239Y-120691713D01*
X191524301Y-120683068D01*
X191200000Y-120618560D01*
X189800000Y-120618560D01*
X189634000Y-120651580D01*
X189634000Y-120600310D01*
X189649378Y-120522999D01*
X189634000Y-120445688D01*
X189634000Y-120445684D01*
X189588454Y-120216708D01*
X189543711Y-120149746D01*
X189458749Y-120022591D01*
X189458747Y-120022589D01*
X189414953Y-119957047D01*
X189349410Y-119913253D01*
X188950749Y-119514592D01*
X188906953Y-119449047D01*
X188647292Y-119275546D01*
X188418316Y-119230000D01*
X188418312Y-119230000D01*
X188341000Y-119214622D01*
X188263688Y-119230000D01*
X188003711Y-119230000D01*
X187911280Y-119137569D01*
X187530874Y-118980000D01*
X187119126Y-118980000D01*
X186791213Y-119115826D01*
X186663618Y-118988231D01*
X186283212Y-118830662D01*
X185871464Y-118830662D01*
X185491058Y-118988231D01*
X185199907Y-119279382D01*
X185042338Y-119659788D01*
X182753291Y-119659788D01*
X181466739Y-117919159D01*
X181239763Y-117396126D01*
X192005000Y-117396126D01*
X192005000Y-117807874D01*
X192162569Y-118188280D01*
X192453720Y-118479431D01*
X192834126Y-118637000D01*
X193245874Y-118637000D01*
X193626280Y-118479431D01*
X193917431Y-118188280D01*
X194075000Y-117807874D01*
X194075000Y-117677158D01*
X194221918Y-117530239D01*
X194186560Y-117708000D01*
X194186560Y-118258000D01*
X194235843Y-118505765D01*
X194376191Y-118715809D01*
X194586235Y-118856157D01*
X194834000Y-118905440D01*
X195049000Y-118905440D01*
X195049000Y-119176688D01*
X195033622Y-119254000D01*
X195049000Y-119331312D01*
X195049000Y-119331315D01*
X195094546Y-119560291D01*
X195268047Y-119819953D01*
X195333592Y-119863749D01*
X198242560Y-122772718D01*
X198242560Y-123130000D01*
X198291843Y-123377765D01*
X198432191Y-123587809D01*
X198642235Y-123728157D01*
X198890000Y-123777440D01*
X199890000Y-123777440D01*
X200137765Y-123728157D01*
X200347809Y-123587809D01*
X200488157Y-123377765D01*
X200537440Y-123130000D01*
X200537440Y-122310000D01*
X200488157Y-122062235D01*
X200475304Y-122043000D01*
X201232289Y-122043000D01*
X201179569Y-122095720D01*
X201022000Y-122476126D01*
X201022000Y-122887874D01*
X201179569Y-123268280D01*
X201470720Y-123559431D01*
X201737081Y-123669761D01*
X201144336Y-124262507D01*
X201078794Y-124306301D01*
X201035000Y-124371843D01*
X201034997Y-124371846D01*
X200905292Y-124565963D01*
X200844368Y-124872254D01*
X200859747Y-124949571D01*
X200859746Y-128270015D01*
X200762077Y-128250588D01*
X200389940Y-128324611D01*
X200074458Y-128535409D01*
X199863660Y-128850891D01*
X199614916Y-129451412D01*
X199540893Y-129823549D01*
X199614916Y-130195686D01*
X199825714Y-130511168D01*
X200141197Y-130721967D01*
X201018883Y-131085516D01*
X201391019Y-131159538D01*
X201763156Y-131085515D01*
X202078638Y-130874717D01*
X202082405Y-130869079D01*
X202195569Y-131142280D01*
X202486720Y-131433431D01*
X202867126Y-131591000D01*
X203278874Y-131591000D01*
X203659280Y-131433431D01*
X203929595Y-131163116D01*
X203973569Y-131269280D01*
X204264720Y-131560431D01*
X204645126Y-131718000D01*
X204788383Y-131718000D01*
X204944707Y-131822453D01*
X205173683Y-131867999D01*
X205173686Y-131867999D01*
X205250998Y-131883377D01*
X205294958Y-131874633D01*
X205329769Y-131926731D01*
X205604699Y-132110432D01*
X205929000Y-132174940D01*
X207329000Y-132174940D01*
X207653301Y-132110432D01*
X207928231Y-131926731D01*
X208111932Y-131651801D01*
X208176440Y-131327500D01*
X208176440Y-130927500D01*
X208111932Y-130603199D01*
X207974322Y-130397250D01*
X208111932Y-130191301D01*
X208176440Y-129867000D01*
X208176440Y-129467000D01*
X208111932Y-129142699D01*
X207928231Y-128867769D01*
X207653301Y-128684068D01*
X207329000Y-128619560D01*
X205929000Y-128619560D01*
X205604699Y-128684068D01*
X205329769Y-128867769D01*
X205320260Y-128882000D01*
X204039312Y-128882000D01*
X203962000Y-128866622D01*
X203884688Y-128882000D01*
X203884684Y-128882000D01*
X203655708Y-128927546D01*
X203461591Y-129057251D01*
X203461589Y-129057253D01*
X203396047Y-129101047D01*
X203352253Y-129166589D01*
X202997842Y-129521000D01*
X202867126Y-129521000D01*
X202603529Y-129630185D01*
X202612203Y-129586577D01*
X202538180Y-129214440D01*
X202429746Y-129052157D01*
X202429746Y-128243056D01*
X214088576Y-128243056D01*
X214410244Y-129019631D01*
X214588872Y-129198260D01*
X214822261Y-129294933D01*
X215074880Y-129294933D01*
X215308269Y-129198260D01*
X215620486Y-129068936D01*
X215706401Y-128861519D01*
X215190065Y-127614974D01*
X214174491Y-128035639D01*
X214088576Y-128243056D01*
X202429746Y-128243056D01*
X202429746Y-126685865D01*
X213548204Y-126685865D01*
X213548204Y-126938484D01*
X213869872Y-127715059D01*
X214077289Y-127800974D01*
X215092864Y-127380309D01*
X214576528Y-126133765D01*
X214369111Y-126047850D01*
X214056894Y-126177174D01*
X213823505Y-126273847D01*
X213644877Y-126452476D01*
X213548204Y-126685865D01*
X202429746Y-126685865D01*
X202429746Y-125197411D01*
X203849718Y-123777440D01*
X204335000Y-123777440D01*
X204582765Y-123728157D01*
X204792809Y-123587809D01*
X204933157Y-123377765D01*
X204982440Y-123130000D01*
X204982440Y-122310000D01*
X204933157Y-122062235D01*
X204920304Y-122043000D01*
X205574867Y-122043000D01*
X205652074Y-122120207D01*
X206069234Y-122293000D01*
X206520766Y-122293000D01*
X206937926Y-122120207D01*
X207257207Y-121800926D01*
X207336718Y-121608970D01*
X207452235Y-121686157D01*
X207700000Y-121735440D01*
X211149981Y-121735440D01*
X209764862Y-123120560D01*
X207700000Y-123120560D01*
X207452235Y-123169843D01*
X207242191Y-123310191D01*
X207101843Y-123520235D01*
X207052560Y-123768000D01*
X207052560Y-125438000D01*
X207101843Y-125685765D01*
X207242191Y-125895809D01*
X207452235Y-126036157D01*
X207700000Y-126085440D01*
X211400000Y-126085440D01*
X211645723Y-126036563D01*
X214811193Y-126036563D01*
X215327529Y-127283108D01*
X215346007Y-127275454D01*
X215443208Y-127510119D01*
X215424730Y-127517773D01*
X215941066Y-128764317D01*
X216148483Y-128850232D01*
X216460700Y-128720908D01*
X216694089Y-128624235D01*
X216872717Y-128445606D01*
X216969390Y-128212217D01*
X216969390Y-127959598D01*
X216656289Y-127203706D01*
X216934203Y-127481620D01*
X217369741Y-127662025D01*
X217841163Y-127662025D01*
X218276701Y-127481620D01*
X218610047Y-127148274D01*
X218790452Y-126712736D01*
X218790452Y-126241314D01*
X218610047Y-125805776D01*
X218276701Y-125472430D01*
X217841163Y-125292025D01*
X217369741Y-125292025D01*
X216934203Y-125472430D01*
X216600857Y-125805776D01*
X216420452Y-126241314D01*
X216420452Y-126634346D01*
X216107350Y-125878451D01*
X215928722Y-125699822D01*
X215695333Y-125603149D01*
X215442714Y-125603149D01*
X215209325Y-125699822D01*
X214897108Y-125829146D01*
X214811193Y-126036563D01*
X211645723Y-126036563D01*
X211647765Y-126036157D01*
X211857809Y-125895809D01*
X211998157Y-125685765D01*
X212047440Y-125438000D01*
X212047440Y-124726529D01*
X214281549Y-124726529D01*
X214507546Y-125272135D01*
X214686174Y-125450763D01*
X214919563Y-125547436D01*
X215172182Y-125547436D01*
X215405571Y-125450763D01*
X215717788Y-125321439D01*
X215803703Y-125114022D01*
X215383038Y-124098447D01*
X214367464Y-124519112D01*
X214281549Y-124726529D01*
X212047440Y-124726529D01*
X212047440Y-123768000D01*
X211998157Y-123520235D01*
X211946161Y-123442418D01*
X212456579Y-122932000D01*
X214248045Y-122932000D01*
X214112149Y-122988290D01*
X213933520Y-123166918D01*
X213836848Y-123400308D01*
X213836848Y-123652927D01*
X214062845Y-124198532D01*
X214270262Y-124284447D01*
X215285837Y-123863782D01*
X215278183Y-123845304D01*
X215512848Y-123748103D01*
X215520502Y-123766581D01*
X215538980Y-123758927D01*
X215636181Y-123993592D01*
X215617703Y-124001246D01*
X216038368Y-125016820D01*
X216245785Y-125102735D01*
X216558002Y-124973411D01*
X216791391Y-124876738D01*
X216970020Y-124698110D01*
X217048753Y-124508029D01*
X217360809Y-124570101D01*
X217752080Y-124492273D01*
X218444990Y-124205261D01*
X218776694Y-123983624D01*
X218998331Y-123651921D01*
X219076160Y-123260650D01*
X218998332Y-122869379D01*
X218711320Y-122176469D01*
X218489683Y-121844765D01*
X218157980Y-121623128D01*
X217766709Y-121545299D01*
X217375438Y-121623127D01*
X217366434Y-121626856D01*
X217222425Y-121482847D01*
X217173049Y-121408951D01*
X216880310Y-121213348D01*
X216622165Y-121162000D01*
X216622161Y-121162000D01*
X216535000Y-121144663D01*
X216447839Y-121162000D01*
X212177159Y-121162000D01*
X212089999Y-121144663D01*
X212033952Y-121155811D01*
X212047440Y-121088000D01*
X212047440Y-119980750D01*
X216355000Y-119980750D01*
X216355000Y-120221310D01*
X216451673Y-120454699D01*
X216630302Y-120633327D01*
X216863691Y-120730000D01*
X217154250Y-120730000D01*
X217313000Y-120571250D01*
X217313000Y-119822000D01*
X217567000Y-119822000D01*
X217567000Y-120571250D01*
X217725750Y-120730000D01*
X218016309Y-120730000D01*
X218249698Y-120633327D01*
X218428327Y-120454699D01*
X218525000Y-120221310D01*
X218525000Y-119980750D01*
X218366250Y-119822000D01*
X217567000Y-119822000D01*
X217313000Y-119822000D01*
X216513750Y-119822000D01*
X216355000Y-119980750D01*
X212047440Y-119980750D01*
X212047440Y-119418000D01*
X211998157Y-119170235D01*
X211857809Y-118960191D01*
X211647765Y-118819843D01*
X211400000Y-118770560D01*
X207700000Y-118770560D01*
X207452235Y-118819843D01*
X207242191Y-118960191D01*
X207101843Y-119170235D01*
X207060432Y-119378424D01*
X206854690Y-119419348D01*
X206854688Y-119419349D01*
X206854689Y-119419349D01*
X206635845Y-119565576D01*
X206635844Y-119565577D01*
X206561951Y-119614951D01*
X206512577Y-119688844D01*
X206178421Y-120023000D01*
X206069234Y-120023000D01*
X205652074Y-120195793D01*
X205574867Y-120273000D01*
X204806713Y-120273000D01*
X204792809Y-120252191D01*
X204582765Y-120111843D01*
X204335000Y-120062560D01*
X203335000Y-120062560D01*
X203087235Y-120111843D01*
X202877191Y-120252191D01*
X202863287Y-120273000D01*
X200361713Y-120273000D01*
X200347809Y-120252191D01*
X200137765Y-120111843D01*
X199890000Y-120062560D01*
X198890000Y-120062560D01*
X198642235Y-120111843D01*
X198432191Y-120252191D01*
X198291843Y-120462235D01*
X198268707Y-120578549D01*
X196619000Y-118928843D01*
X196619000Y-118905440D01*
X196834000Y-118905440D01*
X197081765Y-118856157D01*
X197214711Y-118767325D01*
X197440292Y-118722454D01*
X197699953Y-118548953D01*
X197743749Y-118483408D01*
X198366411Y-117860747D01*
X198431953Y-117816953D01*
X198475747Y-117751411D01*
X198475749Y-117751409D01*
X198577057Y-117599791D01*
X198605454Y-117557292D01*
X198651000Y-117328316D01*
X198651000Y-117328312D01*
X198666378Y-117251001D01*
X198651000Y-117173690D01*
X198651000Y-113771690D01*
X201311000Y-113771690D01*
X201311000Y-113887250D01*
X201469750Y-114046000D01*
X202819000Y-114046000D01*
X202819000Y-113421750D01*
X202660250Y-113263000D01*
X201819691Y-113263000D01*
X201586302Y-113359673D01*
X201407673Y-113538301D01*
X201311000Y-113771690D01*
X198651000Y-113771690D01*
X198651000Y-112599310D01*
X198666378Y-112521999D01*
X198651000Y-112444688D01*
X198651000Y-112444684D01*
X198605454Y-112215708D01*
X198525885Y-112096625D01*
X198475749Y-112021591D01*
X198475747Y-112021589D01*
X198431953Y-111956047D01*
X198366411Y-111912253D01*
X196365000Y-109910843D01*
X196365000Y-109574440D01*
X196430000Y-109574440D01*
X196677765Y-109525157D01*
X196887809Y-109384809D01*
X197028157Y-109174765D01*
X197043006Y-109100113D01*
X197278815Y-109335922D01*
X197824615Y-109562000D01*
X198415385Y-109562000D01*
X198961185Y-109335922D01*
X199176149Y-109120958D01*
X199795647Y-109120958D01*
X199875920Y-109372259D01*
X200431279Y-109573718D01*
X201021458Y-109547315D01*
X201444080Y-109372259D01*
X201524353Y-109120958D01*
X200660000Y-108256605D01*
X199795647Y-109120958D01*
X199176149Y-109120958D01*
X199378922Y-108918185D01*
X199398155Y-108871753D01*
X199616042Y-108941353D01*
X200480395Y-108077000D01*
X199616042Y-107212647D01*
X199398155Y-107282247D01*
X199378922Y-107235815D01*
X199176149Y-107033042D01*
X199795647Y-107033042D01*
X200660000Y-107897395D01*
X201524353Y-107033042D01*
X201444080Y-106781741D01*
X200888721Y-106580282D01*
X200298542Y-106606685D01*
X199875920Y-106781741D01*
X199795647Y-107033042D01*
X199176149Y-107033042D01*
X198961185Y-106818078D01*
X198415385Y-106592000D01*
X197824615Y-106592000D01*
X197278815Y-106818078D01*
X197043006Y-107053887D01*
X197028157Y-106979235D01*
X196887809Y-106769191D01*
X196677765Y-106628843D01*
X196430000Y-106579560D01*
X194730000Y-106579560D01*
X194482235Y-106628843D01*
X194272191Y-106769191D01*
X194131843Y-106979235D01*
X194082560Y-107227000D01*
X194082560Y-108927000D01*
X194131843Y-109174765D01*
X194272191Y-109384809D01*
X194482235Y-109525157D01*
X194730000Y-109574440D01*
X194795000Y-109574440D01*
X194795000Y-110158688D01*
X194779622Y-110236000D01*
X194795000Y-110313312D01*
X194795000Y-110313315D01*
X194812517Y-110401378D01*
X194840546Y-110542291D01*
X194947635Y-110702560D01*
X195014047Y-110801953D01*
X195079592Y-110845749D01*
X197081001Y-112847159D01*
X197081001Y-113299691D01*
X196834000Y-113250560D01*
X194834000Y-113250560D01*
X194754505Y-113266372D01*
X194698926Y-113210793D01*
X194281766Y-113038000D01*
X193830234Y-113038000D01*
X193413074Y-113210793D01*
X193093793Y-113530074D01*
X192921000Y-113947234D01*
X192921000Y-114398766D01*
X193093793Y-114815926D01*
X193203550Y-114925683D01*
X193192251Y-114942592D01*
X193091843Y-115043000D01*
X192961126Y-115043000D01*
X192580720Y-115200569D01*
X192289569Y-115491720D01*
X192132000Y-115872126D01*
X192132000Y-116283874D01*
X192289569Y-116664280D01*
X192401789Y-116776500D01*
X192162569Y-117015720D01*
X192005000Y-117396126D01*
X181239763Y-117396126D01*
X178585900Y-111280706D01*
X182043606Y-107823000D01*
X183519001Y-107823000D01*
X183519001Y-108245866D01*
X183441793Y-108323074D01*
X183269000Y-108740234D01*
X183269000Y-109191766D01*
X183441793Y-109608926D01*
X183761074Y-109928207D01*
X184178234Y-110101000D01*
X184629766Y-110101000D01*
X185046926Y-109928207D01*
X185366207Y-109608926D01*
X185539000Y-109191766D01*
X185539000Y-108740234D01*
X185366207Y-108323074D01*
X185289000Y-108245867D01*
X185289000Y-107823000D01*
X188341000Y-107823000D01*
X188389601Y-107813333D01*
X188430803Y-107785803D01*
X193671828Y-102544778D01*
X196612000Y-102544778D01*
X196612000Y-103195222D01*
X196860914Y-103796153D01*
X197320847Y-104256086D01*
X197921778Y-104505000D01*
X198572222Y-104505000D01*
X199173153Y-104256086D01*
X199633086Y-103796153D01*
X199744159Y-103528000D01*
X199924841Y-103528000D01*
X200035914Y-103796153D01*
X200495847Y-104256086D01*
X201096778Y-104505000D01*
X201747222Y-104505000D01*
X202109757Y-104354833D01*
X204735908Y-106980985D01*
X204481078Y-107235815D01*
X204470000Y-107262560D01*
X204458922Y-107235815D01*
X204041185Y-106818078D01*
X203495385Y-106592000D01*
X202904615Y-106592000D01*
X202358815Y-106818078D01*
X201941078Y-107235815D01*
X201921845Y-107282247D01*
X201703958Y-107212647D01*
X200839605Y-108077000D01*
X201703958Y-108941353D01*
X201921845Y-108871753D01*
X201941078Y-108918185D01*
X202358815Y-109335922D01*
X202904615Y-109562000D01*
X203495385Y-109562000D01*
X203551570Y-109538727D01*
X203939000Y-109926158D01*
X203939001Y-113263000D01*
X203231750Y-113263000D01*
X203073000Y-113421750D01*
X203073000Y-114046000D01*
X203093000Y-114046000D01*
X203093000Y-114300000D01*
X203073000Y-114300000D01*
X203073000Y-114320000D01*
X202819000Y-114320000D01*
X202819000Y-114300000D01*
X201469750Y-114300000D01*
X201311000Y-114458750D01*
X201311000Y-114574310D01*
X201407673Y-114807699D01*
X201416883Y-114816909D01*
X201347843Y-114920235D01*
X201298560Y-115168000D01*
X201298560Y-115718000D01*
X201322060Y-115836143D01*
X201246874Y-115805000D01*
X200835126Y-115805000D01*
X200454720Y-115962569D01*
X200163569Y-116253720D01*
X200006000Y-116634126D01*
X200006000Y-117045874D01*
X200163569Y-117426280D01*
X200454720Y-117717431D01*
X200835126Y-117875000D01*
X201246874Y-117875000D01*
X201298560Y-117853591D01*
X201298560Y-118258000D01*
X201347843Y-118505765D01*
X201488191Y-118715809D01*
X201698235Y-118856157D01*
X201946000Y-118905440D01*
X203946000Y-118905440D01*
X204193765Y-118856157D01*
X204325700Y-118768000D01*
X205029947Y-118768000D01*
X205107259Y-118783378D01*
X205184571Y-118768000D01*
X205184575Y-118768000D01*
X205413551Y-118722454D01*
X205673212Y-118548953D01*
X205717008Y-118483408D01*
X205965624Y-118234792D01*
X206096341Y-118234792D01*
X206476747Y-118077223D01*
X206767898Y-117786072D01*
X206925467Y-117405666D01*
X206925467Y-117125750D01*
X211140000Y-117125750D01*
X211140000Y-117916309D01*
X211236673Y-118149698D01*
X211415301Y-118328327D01*
X211648690Y-118425000D01*
X212439250Y-118425000D01*
X212598000Y-118266250D01*
X212598000Y-116967000D01*
X212852000Y-116967000D01*
X212852000Y-118266250D01*
X213010750Y-118425000D01*
X213801310Y-118425000D01*
X214034699Y-118328327D01*
X214213327Y-118149698D01*
X214310000Y-117916309D01*
X214310000Y-117125750D01*
X214151250Y-116967000D01*
X212852000Y-116967000D01*
X212598000Y-116967000D01*
X211298750Y-116967000D01*
X211140000Y-117125750D01*
X206925467Y-117125750D01*
X206925467Y-116993918D01*
X206767898Y-116613512D01*
X206476747Y-116322361D01*
X206096341Y-116164792D01*
X205904366Y-116164792D01*
X206048408Y-116020750D01*
X207145000Y-116020750D01*
X207145000Y-116271309D01*
X207241673Y-116504698D01*
X207420301Y-116683327D01*
X207653690Y-116780000D01*
X207994250Y-116780000D01*
X208153000Y-116621250D01*
X208153000Y-115862000D01*
X208407000Y-115862000D01*
X208407000Y-116621250D01*
X208565750Y-116780000D01*
X208906310Y-116780000D01*
X209139699Y-116683327D01*
X209318327Y-116504698D01*
X209415000Y-116271309D01*
X209415000Y-116020750D01*
X209256250Y-115862000D01*
X208407000Y-115862000D01*
X208153000Y-115862000D01*
X207303750Y-115862000D01*
X207145000Y-116020750D01*
X206048408Y-116020750D01*
X206125410Y-115943748D01*
X206190952Y-115899954D01*
X206234746Y-115834412D01*
X206234748Y-115834410D01*
X206282000Y-115763691D01*
X211140000Y-115763691D01*
X211140000Y-116554250D01*
X211298750Y-116713000D01*
X212598000Y-116713000D01*
X212598000Y-115413750D01*
X212852000Y-115413750D01*
X212852000Y-116713000D01*
X214151250Y-116713000D01*
X214310000Y-116554250D01*
X214310000Y-115763691D01*
X214213327Y-115530302D01*
X214034699Y-115351673D01*
X213801310Y-115255000D01*
X213010750Y-115255000D01*
X212852000Y-115413750D01*
X212598000Y-115413750D01*
X212439250Y-115255000D01*
X211648690Y-115255000D01*
X211415301Y-115351673D01*
X211236673Y-115530302D01*
X211140000Y-115763691D01*
X206282000Y-115763691D01*
X206364453Y-115640293D01*
X206386331Y-115530302D01*
X206409999Y-115411317D01*
X206409999Y-115411314D01*
X206425377Y-115334002D01*
X206409999Y-115256690D01*
X206409999Y-113725000D01*
X207132560Y-113725000D01*
X207132560Y-114545000D01*
X207181843Y-114792765D01*
X207274917Y-114932058D01*
X207241673Y-114965302D01*
X207145000Y-115198691D01*
X207145000Y-115449250D01*
X207303750Y-115608000D01*
X208153000Y-115608000D01*
X208153000Y-115588000D01*
X208407000Y-115588000D01*
X208407000Y-115608000D01*
X209256250Y-115608000D01*
X209415000Y-115449250D01*
X209415000Y-115198691D01*
X209356724Y-115058000D01*
X209409839Y-115058000D01*
X209497000Y-115075337D01*
X209584161Y-115058000D01*
X209584165Y-115058000D01*
X209842310Y-115006652D01*
X210135049Y-114811049D01*
X210184425Y-114737153D01*
X210274828Y-114646750D01*
X216355000Y-114646750D01*
X216355000Y-114887310D01*
X216451673Y-115120699D01*
X216630302Y-115299327D01*
X216863691Y-115396000D01*
X217154250Y-115396000D01*
X217313000Y-115237250D01*
X217313000Y-114488000D01*
X217567000Y-114488000D01*
X217567000Y-115237250D01*
X217725750Y-115396000D01*
X218016309Y-115396000D01*
X218249698Y-115299327D01*
X218428327Y-115120699D01*
X218525000Y-114887310D01*
X218525000Y-114646750D01*
X218366250Y-114488000D01*
X217567000Y-114488000D01*
X217313000Y-114488000D01*
X216513750Y-114488000D01*
X216355000Y-114646750D01*
X210274828Y-114646750D01*
X210502578Y-114419000D01*
X210611766Y-114419000D01*
X211028926Y-114246207D01*
X211348207Y-113926926D01*
X211381750Y-113845946D01*
X211527235Y-113943157D01*
X211775000Y-113992440D01*
X213675000Y-113992440D01*
X213922765Y-113943157D01*
X214132809Y-113802809D01*
X214273157Y-113592765D01*
X214322440Y-113345000D01*
X214322440Y-111445000D01*
X214273157Y-111197235D01*
X214132809Y-110987191D01*
X213922765Y-110846843D01*
X213675000Y-110797560D01*
X211775000Y-110797560D01*
X211527235Y-110846843D01*
X211317191Y-110987191D01*
X211176843Y-111197235D01*
X211127560Y-111445000D01*
X211127560Y-111521989D01*
X210929690Y-111561348D01*
X210710845Y-111707576D01*
X210710844Y-111707577D01*
X210636951Y-111756951D01*
X210587577Y-111830844D01*
X210269421Y-112149000D01*
X210160234Y-112149000D01*
X209743074Y-112321793D01*
X209423793Y-112641074D01*
X209251000Y-113058234D01*
X209251000Y-113167422D01*
X209185909Y-113232512D01*
X209027765Y-113126843D01*
X208780000Y-113077560D01*
X207780000Y-113077560D01*
X207532235Y-113126843D01*
X207322191Y-113267191D01*
X207181843Y-113477235D01*
X207132560Y-113725000D01*
X206409999Y-113725000D01*
X206409999Y-109689319D01*
X206479454Y-109585373D01*
X206524394Y-109359446D01*
X206581185Y-109335922D01*
X206998922Y-108918185D01*
X207010000Y-108891440D01*
X207021078Y-108918185D01*
X207438815Y-109335922D01*
X207984615Y-109562000D01*
X208575385Y-109562000D01*
X209121185Y-109335922D01*
X209144357Y-109312750D01*
X216355000Y-109312750D01*
X216355000Y-109553310D01*
X216451673Y-109786699D01*
X216630302Y-109965327D01*
X216863691Y-110062000D01*
X217154250Y-110062000D01*
X217313000Y-109903250D01*
X217313000Y-109154000D01*
X217567000Y-109154000D01*
X217567000Y-109903250D01*
X217725750Y-110062000D01*
X218016309Y-110062000D01*
X218249698Y-109965327D01*
X218428327Y-109786699D01*
X218525000Y-109553310D01*
X218525000Y-109312750D01*
X218366250Y-109154000D01*
X217567000Y-109154000D01*
X217313000Y-109154000D01*
X216513750Y-109154000D01*
X216355000Y-109312750D01*
X209144357Y-109312750D01*
X209538922Y-108918185D01*
X209765000Y-108372385D01*
X209765000Y-107781615D01*
X209538922Y-107235815D01*
X209121185Y-106818078D01*
X208575385Y-106592000D01*
X207984615Y-106592000D01*
X207438815Y-106818078D01*
X207021078Y-107235815D01*
X207010000Y-107262560D01*
X206998922Y-107235815D01*
X206581185Y-106818078D01*
X206524394Y-106794554D01*
X206479454Y-106568627D01*
X206451197Y-106526338D01*
X206349749Y-106374510D01*
X206349747Y-106374508D01*
X206305953Y-106308966D01*
X206240411Y-106265172D01*
X203997771Y-104022532D01*
X213784073Y-104022532D01*
X213882736Y-104289387D01*
X214492461Y-104515908D01*
X215142460Y-104491856D01*
X215631264Y-104289387D01*
X215729927Y-104022532D01*
X217594073Y-104022532D01*
X217692736Y-104289387D01*
X218302461Y-104515908D01*
X218952460Y-104491856D01*
X219441264Y-104289387D01*
X219539927Y-104022532D01*
X218567000Y-103049605D01*
X217594073Y-104022532D01*
X215729927Y-104022532D01*
X214757000Y-103049605D01*
X213784073Y-104022532D01*
X203997771Y-104022532D01*
X203057000Y-103081762D01*
X203057000Y-102605461D01*
X213111092Y-102605461D01*
X213135144Y-103255460D01*
X213337613Y-103744264D01*
X213604468Y-103842927D01*
X214577395Y-102870000D01*
X214936605Y-102870000D01*
X215909532Y-103842927D01*
X216176387Y-103744264D01*
X216402908Y-103134539D01*
X216383331Y-102605461D01*
X216921092Y-102605461D01*
X216945144Y-103255460D01*
X217147613Y-103744264D01*
X217414468Y-103842927D01*
X218387395Y-102870000D01*
X218746605Y-102870000D01*
X219719532Y-103842927D01*
X219986387Y-103744264D01*
X220212908Y-103134539D01*
X220188856Y-102484540D01*
X219986387Y-101995736D01*
X219719532Y-101897073D01*
X218746605Y-102870000D01*
X218387395Y-102870000D01*
X217414468Y-101897073D01*
X217147613Y-101995736D01*
X216921092Y-102605461D01*
X216383331Y-102605461D01*
X216378856Y-102484540D01*
X216176387Y-101995736D01*
X215909532Y-101897073D01*
X214936605Y-102870000D01*
X214577395Y-102870000D01*
X213604468Y-101897073D01*
X213337613Y-101995736D01*
X213111092Y-102605461D01*
X203057000Y-102605461D01*
X203057000Y-102544778D01*
X202808086Y-101943847D01*
X202581707Y-101717468D01*
X213784073Y-101717468D01*
X214757000Y-102690395D01*
X215729927Y-101717468D01*
X217594073Y-101717468D01*
X218567000Y-102690395D01*
X219539927Y-101717468D01*
X219441264Y-101450613D01*
X218831539Y-101224092D01*
X218181540Y-101248144D01*
X217692736Y-101450613D01*
X217594073Y-101717468D01*
X215729927Y-101717468D01*
X215631264Y-101450613D01*
X215021539Y-101224092D01*
X214371540Y-101248144D01*
X213882736Y-101450613D01*
X213784073Y-101717468D01*
X202581707Y-101717468D01*
X202348153Y-101483914D01*
X201747222Y-101235000D01*
X201096778Y-101235000D01*
X200495847Y-101483914D01*
X200035914Y-101943847D01*
X200030052Y-101958000D01*
X199638948Y-101958000D01*
X199633086Y-101943847D01*
X199173153Y-101483914D01*
X198572222Y-101235000D01*
X197921778Y-101235000D01*
X197320847Y-101483914D01*
X196860914Y-101943847D01*
X196612000Y-102544778D01*
X193671828Y-102544778D01*
X196013883Y-100202723D01*
X220038671Y-100076277D01*
X225857394Y-105895000D01*
G04 #@! TD*
M02*
